<?xml version="1.0" standalone="yes"?>

<svg version="1.1" viewBox="0.0 0.0 987.7821522309712 471.3963254593176" fill="none" stroke="none" stroke-linecap="square" stroke-miterlimit="10" xmlns="http://www.w3.org/2000/svg" xmlns:xlink="http://www.w3.org/1999/xlink"><clipPath id="p.0"><path d="m0 0l987.78217 0l0 471.39633l-987.78217 0l0 -471.39633z" clip-rule="nonzero"></path></clipPath><g clip-path="url(#p.0)"><path fill="#000000" fill-opacity="0.0" d="m0 0l987.78217 0l0 471.39633l-987.78217 0z" fill-rule="evenodd"></path><path fill="#000000" fill-opacity="0.0" d="m55.572178 89.47128l0 0c0 -40.577072 32.894215 -73.47129 73.47128 -73.47129l731.7346 0c19.485779 0 38.173462 7.7407026 51.952026 21.519241c13.778564 13.778538 21.519226 32.466244 21.519226 51.952045l0 293.8763c0 40.577087 -32.894226 73.47128 -73.47125 73.47128l-731.7346 0c-40.577065 0 -73.47128 -32.894196 -73.47128 -73.47128z" fill-rule="evenodd"></path><path stroke="#999999" stroke-width="4.0" stroke-linejoin="round" stroke-linecap="butt" stroke-dasharray="16.0,12.0" d="m55.572178 89.47128l0 0c0 -40.577072 32.894215 -73.47129 73.47128 -73.47129l731.7346 0c19.485779 0 38.173462 7.7407026 51.952026 21.519241c13.778564 13.778538 21.519226 32.466244 21.519226 51.952045l0 293.8763c0 40.577087 -32.894226 73.47128 -73.47125 73.47128l-731.7346 0c-40.577065 0 -73.47128 -32.894196 -73.47128 -73.47128z" fill-rule="evenodd"></path><path fill="#000000" fill-opacity="0.0" d="m283.36746 239.7934l0 0c0 -20.332031 16.48236 -36.814392 36.81436 -36.814392l535.94604 0c9.763794 0 19.127686 3.8786469 26.031677 10.782684c6.9040527 6.9040375 10.782715 16.26793 10.782715 26.031708l0 147.25311c0 20.332031 -16.48236 36.814392 -36.814392 36.814392l-535.94604 0c-20.332 0 -36.81436 -16.48236 -36.81436 -36.814392z" fill-rule="evenodd"></path><path stroke="#999999" stroke-width="4.0" stroke-linejoin="round" stroke-linecap="butt" stroke-dasharray="16.0,12.0" d="m283.36746 239.7934l0 0c0 -20.332031 16.48236 -36.814392 36.81436 -36.814392l535.94604 0c9.763794 0 19.127686 3.8786469 26.031677 10.782684c6.9040527 6.9040375 10.782715 16.26793 10.782715 26.031708l0 147.25311c0 20.332031 -16.48236 36.814392 -36.814392 36.814392l-535.94604 0c-20.332 0 -36.81436 -16.48236 -36.81436 -36.814392z" fill-rule="evenodd"></path><path fill="#000000" fill-opacity="0.0" d="m189.44882 129.42783l432.37796 0l0 73.16536l-432.37796 0z" fill-rule="evenodd"></path><path fill="#000000" d="m202.3707 157.21844l3.109375 0l0.09375 3.609375q1.75 -2.09375 3.4375 -3.03125q1.6875 -0.9375 3.40625 -0.9375q3.046875 0 4.609375 1.984375q1.578125 1.96875 1.46875 5.859375l-3.4375 0q0.046875 -2.578125 -0.765625 -3.734375q-0.796875 -1.171875 -2.359375 -1.171875q-0.6875 0 -1.390625 0.25q-0.6875 0.234375 -1.421875 0.78125q-0.734375 0.53125 -1.5625 1.375q-0.8125 0.828125 -1.75 2.03125l0 12.59375l-3.4375 0l0 -19.609375zm38.835938 19.609375l-4.671875 0l-9.140625 -10.515625l0 10.515625l-3.390625 0l0 -27.59375l3.390625 0l0 16.953125l8.8125 -8.96875l4.484375 0l-9.1875 9.046875l9.703125 10.5625zm20.148438 -0.28125q-1.140625 0.296875 -2.375 0.421875q-1.234375 0.140625 -2.5 0.140625q-3.6875 0 -5.515625 -1.671875q-1.8125 -1.671875 -1.8125 -5.140625l0 -10.234375l-5.484375 0l0 -2.84375l5.484375 0l0 -5.390625l3.40625 -0.875l0 6.265625l8.796875 0l0 2.84375l-8.796875 0l0 9.96875q0 2.109375 1.109375 3.15625q1.125 1.046875 3.3125 1.046875q0.9375 0 2.046875 -0.140625q1.125 -0.15625 2.328125 -0.46875l0 2.921875z" fill-rule="nonzero"></path><path fill="#000000" d="m293.90195 183.5622q-2.328125 -2.9375 -3.9375 -6.875q-1.609375 -3.9375 -1.609375 -8.15625q0 -3.71875 1.203125 -7.125q1.40625 -3.953125 4.34375 -7.875l2.015625 0q-1.890625 3.25 -2.5 4.640625q-0.953125 2.15625 -1.5 4.5q-0.671875 2.921875 -0.671875 5.875q0 7.515625 4.671875 15.015625l-2.015625 0zm4.15625 -11.6875l2.78125 -0.4375q0.234375 1.671875 1.296875 2.5625q1.078125 0.890625 3.0 0.890625q1.9375 0 2.875 -0.78125q0.9375 -0.796875 0.9375 -1.859375q0 -0.953125 -0.828125 -1.5q-0.578125 -0.375 -2.875 -0.953125q-3.09375 -0.78125 -4.296875 -1.34375q-1.1875 -0.578125 -1.8125 -1.578125q-0.609375 -1.015625 -0.609375 -2.234375q0 -1.109375 0.5 -2.046875q0.515625 -0.953125 1.390625 -1.578125q0.65625 -0.484375 1.78125 -0.8125q1.140625 -0.34375 2.4375 -0.34375q1.953125 0 3.421875 0.5625q1.484375 0.5625 2.1875 1.53125q0.703125 0.953125 0.96875 2.5625l-2.75 0.375q-0.1875 -1.28125 -1.09375 -2.0q-0.890625 -0.71875 -2.53125 -0.71875q-1.9375 0 -2.765625 0.640625q-0.828125 0.640625 -0.828125 1.5q0 0.546875 0.34375 0.984375q0.34375 0.453125 1.078125 0.75q0.421875 0.15625 2.484375 0.71875q2.984375 0.796875 4.15625 1.3125q1.1875 0.5 1.859375 1.46875q0.671875 0.96875 0.671875 2.40625q0 1.40625 -0.828125 2.65625q-0.8125 1.234375 -2.359375 1.921875q-1.546875 0.671875 -3.5 0.671875q-3.234375 0 -4.9375 -1.34375q-1.6875 -1.34375 -2.15625 -3.984375zm23.265625 2.4375l0.40625 2.484375q-1.1875 0.25 -2.125 0.25q-1.53125 0 -2.375 -0.484375q-0.84375 -0.484375 -1.1875 -1.265625q-0.34375 -0.796875 -0.34375 -3.328125l0 -9.546875l-2.0625 0l0 -2.1875l2.0625 0l0 -4.109375l2.796875 -1.6875l0 5.796875l2.828125 0l0 2.1875l-2.828125 0l0 9.703125q0 1.203125 0.140625 1.546875q0.15625 0.34375 0.484375 0.546875q0.34375 0.203125 0.96875 0.203125q0.46875 0 1.234375 -0.109375zm13.578125 0.46875q-1.5625 1.328125 -3.015625 1.875q-1.4375 0.546875 -3.09375 0.546875q-2.734375 0 -4.203125 -1.328125q-1.46875 -1.34375 -1.46875 -3.421875q0 -1.21875 0.546875 -2.21875q0.5625 -1.015625 1.453125 -1.625q0.90625 -0.609375 2.03125 -0.921875q0.828125 -0.21875 2.5 -0.421875q3.40625 -0.40625 5.015625 -0.96875q0.015625 -0.578125 0.015625 -0.734375q0 -1.71875 -0.796875 -2.421875q-1.078125 -0.953125 -3.203125 -0.953125q-1.984375 0 -2.9375 0.703125q-0.9375 0.6875 -1.390625 2.453125l-2.75 -0.375q0.375 -1.765625 1.234375 -2.84375q0.859375 -1.09375 2.484375 -1.671875q1.625 -0.59375 3.765625 -0.59375q2.125 0 3.453125 0.5q1.328125 0.5 1.953125 1.265625q0.625 0.75 0.875 1.90625q0.140625 0.71875 0.140625 2.59375l0 3.75q0 3.921875 0.171875 4.96875q0.1875 1.03125 0.71875 1.984375l-2.9375 0q-0.4375 -0.875 -0.5625 -2.046875zm-0.234375 -6.28125q-1.53125 0.625 -4.59375 1.0625q-1.734375 0.25 -2.453125 0.5625q-0.71875 0.3125 -1.109375 0.921875q-0.390625 0.59375 -0.390625 1.328125q0 1.125 0.84375 1.875q0.859375 0.75 2.5 0.75q1.625 0 2.890625 -0.703125q1.265625 -0.71875 1.859375 -1.953125q0.453125 -0.953125 0.453125 -2.8125l0 -1.03125zm6.6875 9.703125l2.734375 0.40625q0.171875 1.265625 0.953125 1.84375q1.046875 0.78125 2.859375 0.78125q1.953125 0 3.015625 -0.78125q1.0625 -0.78125 1.4375 -2.1875q0.21875 -0.859375 0.203125 -3.609375q-1.84375 2.171875 -4.59375 2.171875q-3.421875 0 -5.296875 -2.46875q-1.875 -2.46875 -1.875 -5.921875q0 -2.375 0.859375 -4.375q0.859375 -2.015625 2.484375 -3.109375q1.640625 -1.09375 3.84375 -1.09375q2.9375 0 4.84375 2.375l0 -2.0l2.59375 0l0 14.34375q0 3.875 -0.796875 5.484375q-0.78125 1.625 -2.5 2.5625q-1.703125 0.9375 -4.203125 0.9375q-2.96875 0 -4.796875 -1.34375q-1.828125 -1.328125 -1.765625 -4.015625zm2.328125 -9.96875q0 3.265625 1.296875 4.765625q1.296875 1.5 3.25 1.5q1.9375 0 3.25 -1.484375q1.3125 -1.5 1.3125 -4.6875q0 -3.046875 -1.359375 -4.59375q-1.34375 -1.546875 -3.25 -1.546875q-1.875 0 -3.1875 1.53125q-1.3125 1.515625 -1.3125 4.515625zm27.34375 3.25l2.90625 0.359375q-0.6875 2.546875 -2.546875 3.953125q-1.859375 1.40625 -4.75 1.40625q-3.640625 0 -5.78125 -2.234375q-2.125 -2.25 -2.125 -6.296875q0 -4.1875 2.15625 -6.5q2.15625 -2.3125 5.59375 -2.3125q3.328125 0 5.4375 2.265625q2.109375 2.265625 2.109375 6.375q0 0.25 -0.015625 0.75l-12.375 0q0.15625 2.734375 1.546875 4.1875q1.390625 1.453125 3.46875 1.453125q1.546875 0 2.640625 -0.8125q1.09375 -0.8125 1.734375 -2.59375zm-9.234375 -4.546875l9.265625 0q-0.1875 -2.09375 -1.0625 -3.140625q-1.34375 -1.625 -3.484375 -1.625q-1.9375 0 -3.265625 1.296875q-1.3125 1.296875 -1.453125 3.46875zm14.890625 -1.40625q0 -4.0625 0.828125 -6.53125q0.84375 -2.484375 2.484375 -3.828125q1.65625 -1.34375 4.15625 -1.34375q1.84375 0 3.234375 0.75q1.390625 0.734375 2.296875 2.140625q0.90625 1.390625 1.421875 3.40625q0.515625 2.0 0.515625 5.40625q0 4.03125 -0.828125 6.515625q-0.828125 2.46875 -2.484375 3.828125q-1.640625 1.34375 -4.15625 1.34375q-3.3125 0 -5.203125 -2.375q-2.265625 -2.859375 -2.265625 -9.3125zm2.890625 0q0 5.640625 1.3125 7.515625q1.328125 1.859375 3.265625 1.859375q1.9375 0 3.25 -1.875q1.328125 -1.875 1.328125 -7.5q0 -5.65625 -1.328125 -7.515625q-1.3125 -1.859375 -3.28125 -1.859375q-1.9375 0 -3.09375 1.640625q-1.453125 2.09375 -1.453125 7.734375zm17.53125 18.03125l-2.015625 0q4.671875 -7.5 4.671875 -15.015625q0 -2.9375 -0.671875 -5.828125q-0.53125 -2.34375 -1.484375 -4.5q-0.609375 -1.40625 -2.515625 -4.6875l2.015625 0q2.9375 3.921875 4.34375 7.875q1.203125 3.40625 1.203125 7.125q0 4.21875 -1.625 8.15625q-1.609375 3.9375 -3.921875 6.875z" fill-rule="nonzero"></path><path fill="#000000" fill-opacity="0.0" d="m295.8714 202.97769l337.63782 0l0 73.165344l-337.63782 0z" fill-rule="evenodd"></path><path fill="#000000" d="m307.51202 258.3308l0 -28.703125l3.203125 0l0 2.703125q1.125 -1.578125 2.546875 -2.375q1.4375 -0.796875 3.46875 -0.796875q2.65625 0 4.6875 1.375q2.03125 1.359375 3.0625 3.859375q1.03125 2.484375 1.03125 5.453125q0 3.1875 -1.140625 5.734375q-1.140625 2.546875 -3.328125 3.90625q-2.171875 1.359375 -4.5625 1.359375q-1.765625 0 -3.171875 -0.734375q-1.390625 -0.75 -2.28125 -1.890625l0 10.109375l-3.515625 0zm3.1875 -18.203125q0 4.0 1.609375 5.921875q1.625 1.90625 3.9375 1.90625q2.34375 0 4.0 -1.984375q1.671875 -1.984375 1.671875 -6.140625q0 -3.96875 -1.625 -5.9375q-1.625 -1.96875 -3.890625 -1.96875q-2.25 0 -3.984375 2.09375q-1.71875 2.09375 -1.71875 6.109375zm17.746094 -0.125q0 -5.765625 3.203125 -8.53125q2.671875 -2.3125 6.53125 -2.3125q4.265625 0 6.984375 2.8125q2.71875 2.796875 2.71875 7.734375q0 4.015625 -1.203125 6.3125q-1.203125 2.28125 -3.5 3.5625q-2.296875 1.265625 -5.0 1.265625q-4.359375 0 -7.046875 -2.796875q-2.6875 -2.796875 -2.6875 -8.046875zm3.609375 0q0 3.984375 1.734375 5.96875q1.75 1.984375 4.390625 1.984375q2.609375 0 4.34375 -1.984375q1.75 -2.0 1.75 -6.078125q0 -3.859375 -1.75 -5.828125q-1.75 -1.984375 -4.34375 -1.984375q-2.640625 0 -4.390625 1.96875q-1.734375 1.96875 -1.734375 5.953125zm33.402344 10.375l0 -2.625q-1.96875 3.09375 -5.796875 3.09375q-2.484375 0 -4.5625 -1.359375q-2.078125 -1.375 -3.21875 -3.828125q-1.140625 -2.453125 -1.140625 -5.640625q0 -3.09375 1.03125 -5.625q1.03125 -2.53125 3.09375 -3.875q2.078125 -1.359375 4.640625 -1.359375q1.875 0 3.328125 0.796875q1.46875 0.796875 2.390625 2.0625l0 -10.28125l3.5 0l0 28.640625l-3.265625 0zm-11.109375 -10.359375q0 3.984375 1.671875 5.96875q1.6875 1.96875 3.96875 1.96875q2.3125 0 3.921875 -1.875q1.609375 -1.890625 1.609375 -5.765625q0 -4.25 -1.640625 -6.234375q-1.640625 -2.0 -4.046875 -2.0q-2.34375 0 -3.921875 1.921875q-1.5625 1.90625 -1.5625 6.015625z" fill-rule="nonzero"></path><path fill="#000000" d="m401.32062 257.11206q-2.328125 -2.9375 -3.9375 -6.875q-1.609375 -3.9375 -1.609375 -8.15625q0 -3.71875 1.203125 -7.125q1.40625 -3.953125 4.34375 -7.875l2.015625 0q-1.890625 3.25 -2.5 4.640625q-0.953125 2.15625 -1.5 4.5q-0.671875 2.921875 -0.671875 5.875q0 7.515625 4.671875 15.015625l-2.015625 0zm4.15625 -11.6875l2.78125 -0.4375q0.234375 1.671875 1.296875 2.5625q1.078125 0.890625 3.0 0.890625q1.9375 0 2.875 -0.78125q0.9375 -0.796875 0.9375 -1.859375q0 -0.953125 -0.828125 -1.5q-0.578125 -0.375 -2.875 -0.953125q-3.09375 -0.78125 -4.296875 -1.34375q-1.1875 -0.578125 -1.8125 -1.578125q-0.609375 -1.015625 -0.609375 -2.234375q0 -1.109375 0.5 -2.046875q0.515625 -0.953125 1.390625 -1.578125q0.65625 -0.484375 1.78125 -0.8125q1.140625 -0.34375 2.4375 -0.34375q1.953125 0 3.421875 0.5625q1.484375 0.5625 2.1875 1.53125q0.703125 0.953125 0.96875 2.5625l-2.75 0.375q-0.1875 -1.28125 -1.09375 -2.0q-0.890625 -0.71875 -2.53125 -0.71875q-1.9375 0 -2.765625 0.640625q-0.828125 0.640625 -0.828125 1.5q0 0.546875 0.34375 0.984375q0.34375 0.453125 1.078125 0.75q0.421875 0.15625 2.484375 0.71875q2.984375 0.796875 4.15625 1.3125q1.1875 0.5 1.859375 1.46875q0.671875 0.96875 0.671875 2.40625q0 1.40625 -0.828125 2.65625q-0.8125 1.234375 -2.359375 1.921875q-1.546875 0.671875 -3.5 0.671875q-3.234375 0 -4.9375 -1.34375q-1.6875 -1.34375 -2.15625 -3.984375zm23.265625 2.4375l0.40625 2.484375q-1.1875 0.25 -2.125 0.25q-1.53125 0 -2.375 -0.484375q-0.84375 -0.484375 -1.1875 -1.265625q-0.34375 -0.796875 -0.34375 -3.328125l0 -9.546875l-2.0625 0l0 -2.1875l2.0625 0l0 -4.109375l2.796875 -1.6875l0 5.796875l2.828125 0l0 2.1875l-2.828125 0l0 9.703125q0 1.203125 0.140625 1.546875q0.15625 0.34375 0.484375 0.546875q0.34375 0.203125 0.96875 0.203125q0.46875 0 1.234375 -0.109375zm13.578125 0.46875q-1.5625 1.328125 -3.015625 1.875q-1.4375 0.546875 -3.09375 0.546875q-2.734375 0 -4.203125 -1.328125q-1.46875 -1.34375 -1.46875 -3.421875q0 -1.21875 0.546875 -2.21875q0.5625 -1.015625 1.453125 -1.625q0.90625 -0.609375 2.03125 -0.921875q0.828125 -0.21875 2.5 -0.421875q3.40625 -0.40625 5.015625 -0.96875q0.015625 -0.578125 0.015625 -0.734375q0 -1.71875 -0.796875 -2.421875q-1.078125 -0.953125 -3.203125 -0.953125q-1.984375 0 -2.9375 0.703125q-0.9375 0.6875 -1.390625 2.453125l-2.75 -0.375q0.375 -1.765625 1.234375 -2.84375q0.859375 -1.09375 2.484375 -1.671875q1.625 -0.59375 3.765625 -0.59375q2.125 0 3.453125 0.5q1.328125 0.5 1.953125 1.265625q0.625 0.75 0.875 1.90625q0.140625 0.71875 0.140625 2.59375l0 3.75q0 3.921875 0.171875 4.96875q0.1875 1.03125 0.71875 1.984375l-2.9375 0q-0.4375 -0.875 -0.5625 -2.046875zm-0.234375 -6.28125q-1.53125 0.625 -4.59375 1.0625q-1.734375 0.25 -2.453125 0.5625q-0.71875 0.3125 -1.109375 0.921875q-0.390625 0.59375 -0.390625 1.328125q0 1.125 0.84375 1.875q0.859375 0.75 2.5 0.75q1.625 0 2.890625 -0.703125q1.265625 -0.71875 1.859375 -1.953125q0.453125 -0.953125 0.453125 -2.8125l0 -1.03125zm6.6875 9.703125l2.734375 0.40625q0.171875 1.265625 0.953125 1.84375q1.046875 0.78125 2.859375 0.78125q1.953125 0 3.015625 -0.78125q1.0625 -0.78125 1.4375 -2.1875q0.21875 -0.859375 0.203125 -3.609375q-1.84375 2.171875 -4.59375 2.171875q-3.421875 0 -5.296875 -2.46875q-1.875 -2.46875 -1.875 -5.921875q0 -2.375 0.859375 -4.375q0.859375 -2.015625 2.484375 -3.109375q1.640625 -1.09375 3.84375 -1.09375q2.9375 0 4.84375 2.375l0 -2.0l2.59375 0l0 14.34375q0 3.875 -0.796875 5.484375q-0.78125 1.625 -2.5 2.5625q-1.703125 0.9375 -4.203125 0.9375q-2.96875 0 -4.796875 -1.34375q-1.828125 -1.328125 -1.765625 -4.015625zm2.328125 -9.96875q0 3.265625 1.296875 4.765625q1.296875 1.5 3.25 1.5q1.9375 0 3.25 -1.484375q1.3125 -1.5 1.3125 -4.6875q0 -3.046875 -1.359375 -4.59375q-1.34375 -1.546875 -3.25 -1.546875q-1.875 0 -3.1875 1.53125q-1.3125 1.515625 -1.3125 4.515625zm27.34375 3.25l2.90625 0.359375q-0.6875 2.546875 -2.546875 3.953125q-1.859375 1.40625 -4.75 1.40625q-3.640625 0 -5.78125 -2.234375q-2.125 -2.25 -2.125 -6.296875q0 -4.1875 2.15625 -6.5q2.15625 -2.3125 5.59375 -2.3125q3.328125 0 5.4375 2.265625q2.109375 2.265625 2.109375 6.375q0 0.25 -0.015625 0.75l-12.375 0q0.15625 2.734375 1.546875 4.1875q1.390625 1.453125 3.46875 1.453125q1.546875 0 2.640625 -0.8125q1.09375 -0.8125 1.734375 -2.59375zm-9.234375 -4.546875l9.265625 0q-0.1875 -2.09375 -1.0625 -3.140625q-1.34375 -1.625 -3.484375 -1.625q-1.9375 0 -3.265625 1.296875q-1.3125 1.296875 -1.453125 3.46875zm25.484375 9.890625l-2.8125 0l0 -17.921875q-1.015625 0.96875 -2.671875 1.9375q-1.640625 0.96875 -2.953125 1.453125l0 -2.71875q2.359375 -1.109375 4.125 -2.6875q1.765625 -1.578125 2.5 -3.0625l1.8125 0l0 23.0zm9.828125 6.734375l-2.015625 0q4.671875 -7.5 4.671875 -15.015625q0 -2.9375 -0.671875 -5.828125q-0.53125 -2.34375 -1.484375 -4.5q-0.609375 -1.40625 -2.515625 -4.6875l2.015625 0q2.9375 3.921875 4.34375 7.875q1.203125 3.40625 1.203125 7.125q0 4.21875 -1.625 8.15625q-1.609375 3.9375 -3.921875 6.875z" fill-rule="nonzero"></path><path fill="#000000" fill-opacity="0.0" d="m113.08137 120.10236l0 49.98162l64.10537 0" fill-rule="evenodd"></path><path stroke="#000000" stroke-width="4.0" stroke-linejoin="round" stroke-linecap="butt" d="m113.08137 120.10236l0 49.98162l40.10537 0" fill-rule="evenodd"></path><path fill="#000000" stroke="#000000" stroke-width="4.0" stroke-linecap="butt" d="m153.18674 176.69092l18.15239 -6.6069336l-18.15239 -6.6069183z" fill-rule="evenodd"></path><path fill="#000000" fill-opacity="0.0" d="m219.26247 194.59319l0 49.98163l64.10536 0" fill-rule="evenodd"></path><path stroke="#000000" stroke-width="4.0" stroke-linejoin="round" stroke-linecap="butt" d="m219.26247 194.59317l0 49.98163l40.105392 0" fill-rule="evenodd"></path><path fill="#000000" stroke="#000000" stroke-width="4.0" stroke-linecap="butt" d="m259.36786 251.18173l18.152374 -6.6069336l-18.152374 -6.6069183z" fill-rule="evenodd"></path><path fill="#000000" fill-opacity="0.0" d="m328.3071 269.0092l0 49.98163l64.10535 0" fill-rule="evenodd"></path><path stroke="#000000" stroke-width="4.0" stroke-linejoin="round" stroke-linecap="butt" d="m328.3071 269.0092l0 49.98163l40.105347 0" fill-rule="evenodd"></path><path fill="#000000" stroke="#000000" stroke-width="4.0" stroke-linecap="butt" d="m368.41245 325.59775l18.152374 -6.6069336l-18.152374 -6.6069336z" fill-rule="evenodd"></path><path fill="#000000" fill-opacity="0.0" d="m327.92914 309.2082l0 82.15982l64.10538 0" fill-rule="evenodd"></path><path stroke="#000000" stroke-width="4.0" stroke-linejoin="round" stroke-linecap="butt" d="m327.92914 309.2082l0 82.15979l40.105347 0" fill-rule="evenodd"></path><path fill="#000000" stroke="#000000" stroke-width="4.0" stroke-linecap="butt" d="m368.0345 397.9749l18.152405 -6.6069336l-18.152405 -6.6069336z" fill-rule="evenodd"></path><path fill="#000000" fill-opacity="0.0" d="m83.04724 54.855644l456.37793 0l0 89.32284l-456.37793 0z" fill-rule="evenodd"></path><path fill="#000000" d="m111.93787 92.09939q0 2.4375 -0.6875 4.359375q-0.671875 1.921875 -1.90625 3.265625q-1.234375 1.34375 -3.015625 2.0625q-1.78125 0.703125 -4.0 0.703125q-1.75 0 -3.5625 -0.328125q-1.8125 -0.34375 -3.59375 -1.0625l0 -26.4375l3.40625 0l0 7.59375l-0.15625 3.625q1.453125 -1.96875 3.125 -2.78125q1.671875 -0.8125 3.59375 -0.8125q1.671875 0 2.9375 0.703125q1.28125 0.703125 2.140625 1.984375q0.859375 1.28125 1.28125 3.09375q0.4375 1.796875 0.4375 4.03125zm-3.484375 0.15625q0 -1.546875 -0.234375 -2.828125q-0.21875 -1.296875 -0.703125 -2.203125q-0.484375 -0.921875 -1.25 -1.4375q-0.765625 -0.53125 -1.8125 -0.53125q-0.640625 0 -1.3125 0.21875q-0.65625 0.203125 -1.375 0.6875q-0.71875 0.46875 -1.515625 1.265625q-0.78125 0.78125 -1.671875 1.953125l0 9.515625q0.984375 0.390625 2.015625 0.625q1.046875 0.21875 1.984375 0.21875q1.171875 0 2.234375 -0.375q1.0625 -0.375 1.875 -1.234375q0.8125 -0.875 1.28125 -2.3125q0.484375 -1.4375 0.484375 -3.5625zm21.304688 10.0l-0.078125 -2.640625q-1.59375 1.578125 -3.25 2.296875q-1.640625 0.703125 -3.46875 0.703125q-1.671875 0 -2.875 -0.4375q-1.1875 -0.4375 -1.953125 -1.1875q-0.765625 -0.75 -1.140625 -1.765625q-0.359375 -1.015625 -0.359375 -2.203125q0 -2.953125 2.203125 -4.625q2.203125 -1.671875 6.5 -1.671875l4.0625 0l0 -1.71875q0 -1.734375 -1.125 -2.78125q-1.109375 -1.046875 -3.390625 -1.046875q-1.65625 0 -3.28125 0.375q-1.609375 0.375 -3.328125 1.0625l0 -3.078125q0.65625 -0.234375 1.4375 -0.453125q0.796875 -0.21875 1.671875 -0.390625q0.875 -0.1875 1.828125 -0.296875q0.96875 -0.109375 1.9375 -0.109375q1.78125 0 3.203125 0.390625q1.4375 0.390625 2.421875 1.203125q0.984375 0.796875 1.5 2.015625q0.53125 1.203125 0.53125 2.84375l0 13.515625l-3.046875 0zm-0.359375 -8.921875l-4.328125 0q-1.265625 0 -2.1875 0.25q-0.90625 0.25 -1.5 0.71875q-0.578125 0.46875 -0.875 1.125q-0.28125 0.65625 -0.28125 1.46875q0 0.578125 0.171875 1.09375q0.1875 0.515625 0.578125 0.921875q0.390625 0.390625 1.015625 0.625q0.625 0.234375 1.515625 0.234375q1.171875 0 2.6875 -0.703125q1.515625 -0.71875 3.203125 -2.265625l0 -3.46875zm25.289062 3.5625q0 1.046875 -0.359375 1.875q-0.34375 0.8125 -0.953125 1.453125q-0.609375 0.625 -1.40625 1.078125q-0.796875 0.4375 -1.703125 0.734375q-0.90625 0.296875 -1.875 0.4375q-0.953125 0.140625 -1.875 0.140625q-1.984375 0 -3.65625 -0.1875q-1.671875 -0.171875 -3.265625 -0.5625l0 -3.125q1.71875 0.484375 3.40625 0.75q1.703125 0.25 3.390625 0.25q2.4375 0 3.609375 -0.65625q1.171875 -0.671875 1.171875 -1.90625q0 -0.53125 -0.1875 -0.953125q-0.1875 -0.421875 -0.671875 -0.796875q-0.484375 -0.375 -1.515625 -0.78125q-1.03125 -0.421875 -2.796875 -0.953125q-1.328125 -0.390625 -2.453125 -0.875q-1.125 -0.5 -1.953125 -1.1875q-0.8125 -0.6875 -1.28125 -1.59375q-0.46875 -0.921875 -0.46875 -2.171875q0 -0.828125 0.375 -1.796875q0.390625 -0.984375 1.296875 -1.8125q0.921875 -0.84375 2.484375 -1.40625q1.5625 -0.5625 3.90625 -0.5625q1.15625 0 2.5625 0.140625q1.40625 0.125 2.921875 0.4375l0 3.015625q-1.59375 -0.390625 -3.03125 -0.5625q-1.4375 -0.1875 -2.484375 -0.1875q-1.28125 0 -2.15625 0.203125q-0.859375 0.1875 -1.40625 0.53125q-0.53125 0.328125 -0.765625 0.796875q-0.234375 0.453125 -0.234375 0.984375q0 0.53125 0.203125 0.96875q0.21875 0.421875 0.765625 0.828125q0.5625 0.390625 1.546875 0.796875q1.0 0.390625 2.609375 0.859375q1.734375 0.515625 2.921875 1.078125q1.203125 0.546875 1.9375 1.234375q0.75 0.671875 1.0625 1.53125q0.328125 0.859375 0.328125 1.953125zm22.226562 5.359375l-3.40625 0l0 -12.515625q0 -2.265625 -0.84375 -3.390625q-0.84375 -1.125 -2.4375 -1.125q-0.671875 0 -1.28125 0.1875q-0.59375 0.1875 -1.234375 0.640625q-0.640625 0.453125 -1.40625 1.234375q-0.765625 0.78125 -1.75 1.953125l0 13.015625l-3.40625 0l0 -27.59375l3.40625 0l0 7.984375l-0.125 3.078125q0.796875 -0.953125 1.5625 -1.609375q0.78125 -0.65625 1.546875 -1.0625q0.78125 -0.40625 1.578125 -0.578125q0.796875 -0.1875 1.65625 -0.1875q2.9375 0 4.53125 1.796875q1.609375 1.78125 1.609375 5.375l0 12.796875z" fill-rule="nonzero"></path><path fill="#000000" d="m231.48474 108.99001q-2.328125 -2.9375 -3.9375 -6.875q-1.609375 -3.9375 -1.609375 -8.15625q0 -3.71875 1.203125 -7.125q1.40625 -3.953125 4.34375 -7.875l2.015625 0q-1.890625 3.25 -2.5 4.640625q-0.953125 2.15625 -1.5 4.5q-0.671875 2.921875 -0.671875 5.875q0 7.515625 4.671875 15.015625l-2.015625 0zm5.296875 -26.40625l0 -3.234375l2.8125 0l0 3.234375l-2.8125 0zm0 19.671875l0 -16.59375l2.8125 0l0 16.59375l-2.8125 0zm7.09375 0l0 -16.59375l2.53125 0l0 2.359375q1.828125 -2.734375 5.28125 -2.734375q1.5 0 2.75 0.546875q1.265625 0.53125 1.890625 1.40625q0.625 0.875 0.875 2.078125q0.15625 0.78125 0.15625 2.734375l0 10.203125l-2.8125 0l0 -10.09375q0 -1.71875 -0.328125 -2.5625q-0.328125 -0.859375 -1.171875 -1.359375q-0.828125 -0.515625 -1.953125 -0.515625q-1.796875 0 -3.109375 1.140625q-1.296875 1.140625 -1.296875 4.328125l0 9.0625l-2.8125 0zm22.40625 0l-6.3125 -16.59375l2.96875 0l3.5625 9.9375q0.578125 1.609375 1.0625 3.34375q0.375 -1.3125 1.046875 -3.15625l3.6875 -10.125l2.890625 0l-6.28125 16.59375l-2.625 0zm10.34375 -8.296875q0 -4.609375 2.5625 -6.828125q2.140625 -1.84375 5.21875 -1.84375q3.421875 0 5.59375 2.25q2.171875 2.234375 2.171875 6.1875q0 3.203125 -0.96875 5.046875q-0.953125 1.828125 -2.796875 2.84375q-1.828125 1.015625 -4.0 1.015625q-3.484375 0 -5.640625 -2.234375q-2.140625 -2.234375 -2.140625 -6.4375zm2.890625 0q0 3.1875 1.390625 4.78125q1.390625 1.578125 3.5 1.578125q2.09375 0 3.484375 -1.59375q1.390625 -1.59375 1.390625 -4.859375q0 -3.078125 -1.40625 -4.65625q-1.390625 -1.59375 -3.46875 -1.59375q-2.109375 0 -3.5 1.578125q-1.390625 1.578125 -1.390625 4.765625zm15.96875 8.296875l0 -22.90625l2.8125 0l0 13.0625l6.65625 -6.75l3.640625 0l-6.34375 6.15625l6.984375 10.4375l-3.46875 0l-5.484375 -8.484375l-1.984375 1.90625l0 6.578125l-2.8125 0zm16.0 -19.671875l0 -3.234375l2.8125 0l0 3.234375l-2.8125 0zm0 19.671875l0 -16.59375l2.8125 0l0 16.59375l-2.8125 0zm7.09375 0l0 -16.59375l2.53125 0l0 2.359375q1.828125 -2.734375 5.28125 -2.734375q1.5 0 2.75 0.546875q1.265625 0.53125 1.890625 1.40625q0.625 0.875 0.875 2.078125q0.15625 0.78125 0.15625 2.734375l0 10.203125l-2.8125 0l0 -10.09375q0 -1.71875 -0.328125 -2.5625q-0.328125 -0.859375 -1.171875 -1.359375q-0.828125 -0.515625 -1.953125 -0.515625q-1.796875 0 -3.109375 1.140625q-1.296875 1.140625 -1.296875 4.328125l0 9.0625l-2.8125 0zm17.28125 1.375l2.734375 0.40625q0.171875 1.265625 0.953125 1.84375q1.046875 0.78125 2.859375 0.78125q1.953125 0 3.015625 -0.78125q1.0625 -0.78125 1.4375 -2.1875q0.21875 -0.859375 0.203125 -3.609375q-1.84375 2.171875 -4.59375 2.171875q-3.421875 0 -5.296875 -2.46875q-1.875 -2.46875 -1.875 -5.921875q0 -2.375 0.859375 -4.375q0.859375 -2.015625 2.484375 -3.109375q1.640625 -1.09375 3.84375 -1.09375q2.9375 0 4.84375 2.375l0 -2.0l2.59375 0l0 14.34375q0 3.875 -0.796875 5.484375q-0.78125 1.625 -2.5 2.5625q-1.703125 0.9375 -4.203125 0.9375q-2.96875 0 -4.796875 -1.34375q-1.828125 -1.328125 -1.765625 -4.015625zm2.328125 -9.96875q0 3.265625 1.296875 4.765625q1.296875 1.5 3.25 1.5q1.9375 0 3.25 -1.484375q1.3125 -1.5 1.3125 -4.6875q0 -3.046875 -1.359375 -4.59375q-1.34375 -1.546875 -3.25 -1.546875q-1.875 0 -3.1875 1.53125q-1.3125 1.515625 -1.3125 4.515625zm24.875 14.953125l0 -22.953125l2.5625 0l0 2.15625q0.90625 -1.265625 2.046875 -1.890625q1.140625 -0.640625 2.765625 -0.640625q2.125 0 3.75 1.09375q1.625 1.09375 2.453125 3.09375q0.828125 1.984375 0.828125 4.359375q0 2.546875 -0.921875 4.59375q-0.90625 2.03125 -2.65625 3.125q-1.734375 1.078125 -3.65625 1.078125q-1.40625 0 -2.53125 -0.59375q-1.109375 -0.59375 -1.828125 -1.5l0 8.078125l-2.8125 0zm2.546875 -14.5625q0 3.203125 1.296875 4.734375q1.296875 1.53125 3.140625 1.53125q1.875 0 3.203125 -1.578125q1.34375 -1.59375 1.34375 -4.921875q0 -3.171875 -1.3125 -4.75q-1.296875 -1.578125 -3.109375 -1.578125q-1.796875 0 -3.1875 1.6875q-1.375 1.671875 -1.375 4.875zm15.21875 8.203125l0 -16.59375l2.53125 0l0 2.515625q0.96875 -1.765625 1.78125 -2.328125q0.828125 -0.5625 1.8125 -0.5625q1.421875 0 2.890625 0.90625l-0.96875 2.609375q-1.03125 -0.609375 -2.0625 -0.609375q-0.921875 0 -1.65625 0.5625q-0.734375 0.546875 -1.046875 1.53125q-0.46875 1.5 -0.46875 3.28125l0 8.6875l-2.8125 0zm9.640625 -8.296875q0 -4.609375 2.5625 -6.828125q2.140625 -1.84375 5.21875 -1.84375q3.421875 0 5.59375 2.25q2.171875 2.234375 2.171875 6.1875q0 3.203125 -0.96875 5.046875q-0.953125 1.828125 -2.796875 2.84375q-1.828125 1.015625 -4.0 1.015625q-3.484375 0 -5.640625 -2.234375q-2.140625 -2.234375 -2.140625 -6.4375zm2.890625 0q0 3.1875 1.390625 4.78125q1.390625 1.578125 3.5 1.578125q2.09375 0 3.484375 -1.59375q1.390625 -1.59375 1.390625 -4.859375q0 -3.078125 -1.40625 -4.65625q-1.390625 -1.59375 -3.46875 -1.59375q-2.109375 0 -3.5 1.578125q-1.390625 1.578125 -1.390625 4.765625zm26.78125 2.21875l2.765625 0.359375q-0.453125 2.859375 -2.328125 4.484375q-1.859375 1.609375 -4.578125 1.609375q-3.40625 0 -5.484375 -2.21875q-2.0625 -2.234375 -2.0625 -6.390625q0 -2.6875 0.890625 -4.703125q0.890625 -2.015625 2.703125 -3.015625q1.828125 -1.015625 3.96875 -1.015625q2.703125 0 4.421875 1.375q1.71875 1.359375 2.203125 3.875l-2.734375 0.421875q-0.390625 -1.671875 -1.390625 -2.515625q-0.984375 -0.84375 -2.390625 -0.84375q-2.125 0 -3.453125 1.53125q-1.328125 1.515625 -1.328125 4.8125q0 3.34375 1.28125 4.859375q1.28125 1.515625 3.34375 1.515625q1.65625 0 2.765625 -1.015625q1.109375 -1.015625 1.40625 -3.125zm16.53125 0.734375l2.90625 0.359375q-0.6875 2.546875 -2.546875 3.953125q-1.859375 1.40625 -4.75 1.40625q-3.640625 0 -5.78125 -2.234375q-2.125 -2.25 -2.125 -6.296875q0 -4.1875 2.15625 -6.5q2.15625 -2.3125 5.59375 -2.3125q3.328125 0 5.4375 2.265625q2.109375 2.265625 2.109375 6.375q0 0.25 -0.015625 0.75l-12.375 0q0.15625 2.734375 1.546875 4.1875q1.390625 1.453125 3.46875 1.453125q1.546875 0 2.640625 -0.8125q1.09375 -0.8125 1.734375 -2.59375zm-9.234375 -4.546875l9.265625 0q-0.1875 -2.09375 -1.0625 -3.140625q-1.34375 -1.625 -3.484375 -1.625q-1.9375 0 -3.265625 1.296875q-1.3125 1.296875 -1.453125 3.46875zm14.546875 4.9375l2.78125 -0.4375q0.234375 1.671875 1.296875 2.5625q1.078125 0.890625 3.0 0.890625q1.9375 0 2.875 -0.78125q0.9375 -0.796875 0.9375 -1.859375q0 -0.953125 -0.828125 -1.5q-0.578125 -0.375 -2.875 -0.953125q-3.09375 -0.78125 -4.296875 -1.34375q-1.1875 -0.578125 -1.8125 -1.578125q-0.609375 -1.015625 -0.609375 -2.234375q0 -1.109375 0.5 -2.046875q0.515625 -0.953125 1.390625 -1.578125q0.65625 -0.484375 1.78125 -0.8125q1.140625 -0.34375 2.4375 -0.34375q1.953125 0 3.421875 0.5625q1.484375 0.5625 2.1875 1.53125q0.703125 0.953125 0.96875 2.5625l-2.75 0.375q-0.1875 -1.28125 -1.09375 -2.0q-0.890625 -0.71875 -2.53125 -0.71875q-1.9375 0 -2.765625 0.640625q-0.828125 0.640625 -0.828125 1.5q0 0.546875 0.34375 0.984375q0.34375 0.453125 1.078125 0.75q0.421875 0.15625 2.484375 0.71875q2.984375 0.796875 4.15625 1.3125q1.1875 0.5 1.859375 1.46875q0.671875 0.96875 0.671875 2.40625q0 1.40625 -0.828125 2.65625q-0.8125 1.234375 -2.359375 1.921875q-1.546875 0.671875 -3.5 0.671875q-3.234375 0 -4.9375 -1.34375q-1.6875 -1.34375 -2.15625 -3.984375zm16.0 0l2.78125 -0.4375q0.234375 1.671875 1.296875 2.5625q1.078125 0.890625 3.0 0.890625q1.9375 0 2.875 -0.78125q0.9375 -0.796875 0.9375 -1.859375q0 -0.953125 -0.828125 -1.5q-0.578125 -0.375 -2.875 -0.953125q-3.09375 -0.78125 -4.296875 -1.34375q-1.1875 -0.578125 -1.8125 -1.578125q-0.609375 -1.015625 -0.609375 -2.234375q0 -1.109375 0.5 -2.046875q0.515625 -0.953125 1.390625 -1.578125q0.65625 -0.484375 1.78125 -0.8125q1.140625 -0.34375 2.4375 -0.34375q1.953125 0 3.421875 0.5625q1.484375 0.5625 2.1875 1.53125q0.703125 0.953125 0.96875 2.5625l-2.75 0.375q-0.1875 -1.28125 -1.09375 -2.0q-0.890625 -0.71875 -2.53125 -0.71875q-1.9375 0 -2.765625 0.640625q-0.828125 0.640625 -0.828125 1.5q0 0.546875 0.34375 0.984375q0.34375 0.453125 1.078125 0.75q0.421875 0.15625 2.484375 0.71875q2.984375 0.796875 4.15625 1.3125q1.1875 0.5 1.859375 1.46875q0.671875 0.96875 0.671875 2.40625q0 1.40625 -0.828125 2.65625q-0.8125 1.234375 -2.359375 1.921875q-1.546875 0.671875 -3.5 0.671875q-3.234375 0 -4.9375 -1.34375q-1.6875 -1.34375 -2.15625 -3.984375zm18.96875 11.6875l-2.015625 0q4.671875 -7.5 4.671875 -15.015625q0 -2.9375 -0.671875 -5.828125q-0.53125 -2.34375 -1.484375 -4.5q-0.609375 -1.40625 -2.515625 -4.6875l2.015625 0q2.9375 3.921875 4.34375 7.875q1.203125 3.40625 1.203125 7.125q0 4.21875 -1.625 8.15625q-1.609375 3.9375 -3.921875 6.875z" fill-rule="nonzero"></path><path fill="#000000" fill-opacity="0.0" d="m411.1916 281.958l366.6142 0l0 73.165375l-366.6142 0z" fill-rule="evenodd"></path><path fill="#000000" d="m435.91034 329.358l-0.078125 -2.640625q-1.59375 1.578125 -3.25 2.296875q-1.640625 0.703125 -3.46875 0.703125q-1.671875 0 -2.875 -0.4375q-1.1875 -0.4375 -1.953125 -1.1875q-0.765625 -0.75 -1.140625 -1.765625q-0.359375 -1.015625 -0.359375 -2.203125q0 -2.953125 2.203125 -4.625q2.203125 -1.671875 6.5 -1.671875l4.0625 0l0 -1.71875q0 -1.734375 -1.125 -2.78125q-1.109375 -1.046875 -3.390625 -1.046875q-1.65625 0 -3.28125 0.375q-1.609375 0.375 -3.328125 1.0625l0 -3.078125q0.65625 -0.234375 1.4375 -0.453125q0.796875 -0.21875 1.671875 -0.390625q0.875 -0.1875 1.828125 -0.296875q0.96875 -0.109375 1.9375 -0.109375q1.78125 0 3.203125 0.390625q1.4375 0.390625 2.421875 1.203125q0.984375 0.796875 1.5 2.015625q0.53125 1.203125 0.53125 2.84375l0 13.515625l-3.046875 0zm-0.359375 -8.921875l-4.328125 0q-1.265625 0 -2.1875 0.25q-0.90625 0.25 -1.5 0.71875q-0.578125 0.46875 -0.875 1.125q-0.28125 0.65625 -0.28125 1.46875q0 0.578125 0.171875 1.09375q0.1875 0.515625 0.578125 0.921875q0.390625 0.390625 1.015625 0.625q0.625 0.234375 1.515625 0.234375q1.171875 0 2.6875 -0.703125q1.515625 -0.71875 3.203125 -2.265625l0 -3.46875zm26.523438 -1.234375q0 2.609375 -0.734375 4.5625q-0.734375 1.953125 -2.03125 3.25q-1.28125 1.28125 -3.046875 1.9375q-1.75 0.640625 -3.796875 0.640625q-0.9375 0 -1.875 -0.09375q-0.921875 -0.09375 -1.875 -0.34375l0 8.21875l-3.40625 0l0 -27.625l3.03125 0l0.21875 3.28125q1.453125 -2.015625 3.109375 -2.828125q1.671875 -0.8125 3.609375 -0.8125q1.671875 0 2.9375 0.703125q1.28125 0.703125 2.140625 1.984375q0.859375 1.28125 1.28125 3.09375q0.4375 1.796875 0.4375 4.03125zm-3.484375 0.15625q0 -1.546875 -0.234375 -2.828125q-0.21875 -1.296875 -0.703125 -2.203125q-0.484375 -0.921875 -1.25 -1.4375q-0.765625 -0.53125 -1.8125 -0.53125q-0.640625 0 -1.3125 0.21875q-0.65625 0.203125 -1.375 0.6875q-0.71875 0.46875 -1.515625 1.265625q-0.78125 0.78125 -1.671875 1.953125l0 9.515625q0.9375 0.390625 1.96875 0.625q1.03125 0.21875 2.03125 0.21875q2.75 0 4.3125 -1.859375q1.5625 -1.875 1.5625 -5.625zm25.476562 -0.15625q0 2.609375 -0.734375 4.5625q-0.734375 1.953125 -2.03125 3.25q-1.28125 1.28125 -3.046875 1.9375q-1.75 0.640625 -3.796875 0.640625q-0.9375 0 -1.875 -0.09375q-0.921875 -0.09375 -1.875 -0.34375l0 8.21875l-3.40625 0l0 -27.625l3.03125 0l0.21875 3.28125q1.453125 -2.015625 3.109375 -2.828125q1.671875 -0.8125 3.609375 -0.8125q1.671875 0 2.9375 0.703125q1.28125 0.703125 2.140625 1.984375q0.859375 1.28125 1.28125 3.09375q0.4375 1.796875 0.4375 4.03125zm-3.484375 0.15625q0 -1.546875 -0.234375 -2.828125q-0.21875 -1.296875 -0.703125 -2.203125q-0.484375 -0.921875 -1.25 -1.4375q-0.765625 -0.53125 -1.8125 -0.53125q-0.640625 0 -1.3125 0.21875q-0.65625 0.203125 -1.375 0.6875q-0.71875 0.46875 -1.515625 1.265625q-0.78125 0.78125 -1.671875 1.953125l0 9.515625q0.9375 0.390625 1.96875 0.625q1.03125 0.21875 2.03125 0.21875q2.75 0 4.3125 -1.859375q1.5625 -1.875 1.5625 -5.625zm25.054688 10.0l-16.03125 0l0 -3.171875l6.5625 0l0 -18.625l-6.109375 3.3125l-1.25 -2.890625l8.125 -4.265625l3.0 0l0 22.46875l5.703125 0l0 3.171875z" fill-rule="nonzero"></path><path fill="#000000" d="m537.6369 336.09238q-2.328125 -2.9375 -3.9375 -6.875q-1.609375 -3.9375 -1.609375 -8.15625q0 -3.71875 1.203125 -7.125q1.40625 -3.953125 4.34375 -7.875l2.015625 0q-1.890625 3.25 -2.5 4.640625q-0.953125 2.15625 -1.5 4.5q-0.671875 2.921875 -0.671875 5.875q0 7.515625 4.671875 15.015625l-2.015625 0zm4.15625 -11.6875l2.78125 -0.4375q0.234375 1.671875 1.296875 2.5625q1.078125 0.890625 3.0 0.890625q1.9375 0 2.875 -0.78125q0.9375 -0.796875 0.9375 -1.859375q0 -0.953125 -0.828125 -1.5q-0.578125 -0.375 -2.875 -0.953125q-3.09375 -0.78125 -4.296875 -1.34375q-1.1875 -0.578125 -1.8125 -1.578125q-0.609375 -1.015625 -0.609375 -2.234375q0 -1.109375 0.5 -2.046875q0.515625 -0.953125 1.390625 -1.578125q0.65625 -0.484375 1.78125 -0.8125q1.140625 -0.34375 2.4375 -0.34375q1.953125 0 3.421875 0.5625q1.484375 0.5625 2.1875 1.53125q0.703125 0.953125 0.96875 2.5625l-2.75 0.375q-0.1875 -1.28125 -1.09375 -2.0q-0.890625 -0.71875 -2.53125 -0.71875q-1.9375 0 -2.765625 0.640625q-0.828125 0.640625 -0.828125 1.5q0 0.546875 0.34375 0.984375q0.34375 0.453125 1.078125 0.75q0.421875 0.15625 2.484375 0.71875q2.984375 0.796875 4.15625 1.3125q1.1875 0.5 1.859375 1.46875q0.671875 0.96875 0.671875 2.40625q0 1.40625 -0.828125 2.65625q-0.8125 1.234375 -2.359375 1.921875q-1.546875 0.671875 -3.5 0.671875q-3.234375 0 -4.9375 -1.34375q-1.6875 -1.34375 -2.15625 -3.984375zm23.265625 2.4375l0.40625 2.484375q-1.1875 0.25 -2.125 0.25q-1.53125 0 -2.375 -0.484375q-0.84375 -0.484375 -1.1875 -1.265625q-0.34375 -0.796875 -0.34375 -3.328125l0 -9.546875l-2.0625 0l0 -2.1875l2.0625 0l0 -4.109375l2.796875 -1.6875l0 5.796875l2.828125 0l0 2.1875l-2.828125 0l0 9.703125q0 1.203125 0.140625 1.546875q0.15625 0.34375 0.484375 0.546875q0.34375 0.203125 0.96875 0.203125q0.46875 0 1.234375 -0.109375zm13.578125 0.46875q-1.5625 1.328125 -3.015625 1.875q-1.4375 0.546875 -3.09375 0.546875q-2.734375 0 -4.203125 -1.328125q-1.46875 -1.34375 -1.46875 -3.421875q0 -1.21875 0.546875 -2.21875q0.5625 -1.015625 1.453125 -1.625q0.90625 -0.609375 2.03125 -0.921875q0.828125 -0.21875 2.5 -0.421875q3.40625 -0.40625 5.015625 -0.96875q0.015625 -0.578125 0.015625 -0.734375q0 -1.71875 -0.796875 -2.421875q-1.078125 -0.953125 -3.203125 -0.953125q-1.984375 0 -2.9375 0.703125q-0.9375 0.6875 -1.390625 2.453125l-2.75 -0.375q0.375 -1.765625 1.234375 -2.84375q0.859375 -1.09375 2.484375 -1.671875q1.625 -0.59375 3.765625 -0.59375q2.125 0 3.453125 0.5q1.328125 0.5 1.953125 1.265625q0.625 0.75 0.875 1.90625q0.140625 0.71875 0.140625 2.59375l0 3.75q0 3.921875 0.171875 4.96875q0.1875 1.03125 0.71875 1.984375l-2.9375 0q-0.4375 -0.875 -0.5625 -2.046875zm-0.234375 -6.28125q-1.53125 0.625 -4.59375 1.0625q-1.734375 0.25 -2.453125 0.5625q-0.71875 0.3125 -1.109375 0.921875q-0.390625 0.59375 -0.390625 1.328125q0 1.125 0.84375 1.875q0.859375 0.75 2.5 0.75q1.625 0 2.890625 -0.703125q1.265625 -0.71875 1.859375 -1.953125q0.453125 -0.953125 0.453125 -2.8125l0 -1.03125zm6.6875 9.703125l2.734375 0.40625q0.171875 1.265625 0.953125 1.84375q1.046875 0.78125 2.859375 0.78125q1.953125 0 3.015625 -0.78125q1.0625 -0.78125 1.4375 -2.1875q0.21875 -0.859375 0.203125 -3.609375q-1.84375 2.171875 -4.59375 2.171875q-3.421875 0 -5.296875 -2.46875q-1.875 -2.46875 -1.875 -5.921875q0 -2.375 0.859375 -4.375q0.859375 -2.015625 2.484375 -3.109375q1.640625 -1.09375 3.84375 -1.09375q2.9375 0 4.84375 2.375l0 -2.0l2.59375 0l0 14.34375q0 3.875 -0.796875 5.484375q-0.78125 1.625 -2.5 2.5625q-1.703125 0.9375 -4.203125 0.9375q-2.96875 0 -4.796875 -1.34375q-1.828125 -1.328125 -1.765625 -4.015625zm2.328125 -9.96875q0 3.265625 1.296875 4.765625q1.296875 1.5 3.25 1.5q1.9375 0 3.25 -1.484375q1.3125 -1.5 1.3125 -4.6875q0 -3.046875 -1.359375 -4.59375q-1.34375 -1.546875 -3.25 -1.546875q-1.875 0 -3.1875 1.53125q-1.3125 1.515625 -1.3125 4.515625zm27.34375 3.25l2.90625 0.359375q-0.6875 2.546875 -2.546875 3.953125q-1.859375 1.40625 -4.75 1.40625q-3.640625 0 -5.78125 -2.234375q-2.125 -2.25 -2.125 -6.296875q0 -4.1875 2.15625 -6.5q2.15625 -2.3125 5.59375 -2.3125q3.328125 0 5.4375 2.265625q2.109375 2.265625 2.109375 6.375q0 0.25 -0.015625 0.75l-12.375 0q0.15625 2.734375 1.546875 4.1875q1.390625 1.453125 3.46875 1.453125q1.546875 0 2.640625 -0.8125q1.09375 -0.8125 1.734375 -2.59375zm-9.234375 -4.546875l9.265625 0q-0.1875 -2.09375 -1.0625 -3.140625q-1.34375 -1.625 -3.484375 -1.625q-1.9375 0 -3.265625 1.296875q-1.3125 1.296875 -1.453125 3.46875zm29.671875 7.1875l0 2.703125l-15.140625 0q-0.03125 -1.015625 0.328125 -1.953125q0.578125 -1.546875 1.84375 -3.046875q1.28125 -1.5 3.6875 -3.46875q3.734375 -3.0625 5.046875 -4.84375q1.3125 -1.796875 1.3125 -3.390625q0 -1.671875 -1.203125 -2.8125q-1.1875 -1.15625 -3.109375 -1.15625q-2.03125 0 -3.25 1.21875q-1.21875 1.21875 -1.234375 3.375l-2.890625 -0.296875q0.296875 -3.234375 2.234375 -4.921875q1.9375 -1.703125 5.203125 -1.703125q3.296875 0 5.21875 1.828125q1.921875 1.828125 1.921875 4.53125q0 1.375 -0.5625 2.703125q-0.5625 1.328125 -1.875 2.796875q-1.296875 1.46875 -4.328125 4.03125q-2.53125 2.125 -3.25 2.890625q-0.71875 0.75 -1.1875 1.515625l11.234375 0zm5.640625 9.4375l-2.015625 0q4.671875 -7.5 4.671875 -15.015625q0 -2.9375 -0.671875 -5.828125q-0.53125 -2.34375 -1.484375 -4.5q-0.609375 -1.40625 -2.515625 -4.6875l2.015625 0q2.9375 3.921875 4.34375 7.875q1.203125 3.40625 1.203125 7.125q0 4.21875 -1.625 8.15625q-1.609375 3.9375 -3.921875 6.875z" fill-rule="nonzero"></path><path fill="#000000" fill-opacity="0.0" d="m411.1916 353.958l337.63782 0l0 73.165375l-337.63782 0z" fill-rule="evenodd"></path><path fill="#000000" d="m435.91034 401.358l-0.078125 -2.640625q-1.59375 1.578125 -3.25 2.296875q-1.640625 0.703125 -3.46875 0.703125q-1.671875 0 -2.875 -0.4375q-1.1875 -0.4375 -1.953125 -1.1875q-0.765625 -0.75 -1.140625 -1.765625q-0.359375 -1.015625 -0.359375 -2.203125q0 -2.953125 2.203125 -4.625q2.203125 -1.671875 6.5 -1.671875l4.0625 0l0 -1.71875q0 -1.734375 -1.125 -2.78125q-1.109375 -1.046875 -3.390625 -1.046875q-1.65625 0 -3.28125 0.375q-1.609375 0.375 -3.328125 1.0625l0 -3.078125q0.65625 -0.234375 1.4375 -0.453125q0.796875 -0.21875 1.671875 -0.390625q0.875 -0.1875 1.828125 -0.296875q0.96875 -0.109375 1.9375 -0.109375q1.78125 0 3.203125 0.390625q1.4375 0.390625 2.421875 1.203125q0.984375 0.796875 1.5 2.015625q0.53125 1.203125 0.53125 2.84375l0 13.515625l-3.046875 0zm-0.359375 -8.921875l-4.328125 0q-1.265625 0 -2.1875 0.25q-0.90625 0.25 -1.5 0.71875q-0.578125 0.46875 -0.875 1.125q-0.28125 0.65625 -0.28125 1.46875q0 0.578125 0.171875 1.09375q0.1875 0.515625 0.578125 0.921875q0.390625 0.390625 1.015625 0.625q0.625 0.234375 1.515625 0.234375q1.171875 0 2.6875 -0.703125q1.515625 -0.71875 3.203125 -2.265625l0 -3.46875zm26.523438 -1.234375q0 2.609375 -0.734375 4.5625q-0.734375 1.953125 -2.03125 3.25q-1.28125 1.28125 -3.046875 1.9375q-1.75 0.640625 -3.796875 0.640625q-0.9375 0 -1.875 -0.09375q-0.921875 -0.09375 -1.875 -0.34375l0 8.21875l-3.40625 0l0 -27.625l3.03125 0l0.21875 3.28125q1.453125 -2.015625 3.109375 -2.828125q1.671875 -0.8125 3.609375 -0.8125q1.671875 0 2.9375 0.703125q1.28125 0.703125 2.140625 1.984375q0.859375 1.28125 1.28125 3.09375q0.4375 1.796875 0.4375 4.03125zm-3.484375 0.15625q0 -1.546875 -0.234375 -2.828125q-0.21875 -1.296875 -0.703125 -2.203125q-0.484375 -0.921875 -1.25 -1.4375q-0.765625 -0.53125 -1.8125 -0.53125q-0.640625 0 -1.3125 0.21875q-0.65625 0.203125 -1.375 0.6875q-0.71875 0.46875 -1.515625 1.265625q-0.78125 0.78125 -1.671875 1.953125l0 9.515625q0.9375 0.390625 1.96875 0.625q1.03125 0.21875 2.03125 0.21875q2.75 0 4.3125 -1.859375q1.5625 -1.875 1.5625 -5.625zm25.476562 -0.15625q0 2.609375 -0.734375 4.5625q-0.734375 1.953125 -2.03125 3.25q-1.28125 1.28125 -3.046875 1.9375q-1.75 0.640625 -3.796875 0.640625q-0.9375 0 -1.875 -0.09375q-0.921875 -0.09375 -1.875 -0.34375l0 8.21875l-3.40625 0l0 -27.625l3.03125 0l0.21875 3.28125q1.453125 -2.015625 3.109375 -2.828125q1.671875 -0.8125 3.609375 -0.8125q1.671875 0 2.9375 0.703125q1.28125 0.703125 2.140625 1.984375q0.859375 1.28125 1.28125 3.09375q0.4375 1.796875 0.4375 4.03125zm-3.484375 0.15625q0 -1.546875 -0.234375 -2.828125q-0.21875 -1.296875 -0.703125 -2.203125q-0.484375 -0.921875 -1.25 -1.4375q-0.765625 -0.53125 -1.8125 -0.53125q-0.640625 0 -1.3125 0.21875q-0.65625 0.203125 -1.375 0.6875q-0.71875 0.46875 -1.515625 1.265625q-0.78125 0.78125 -1.671875 1.953125l0 9.515625q0.9375 0.390625 1.96875 0.625q1.03125 0.21875 2.03125 0.21875q2.75 0 4.3125 -1.859375q1.5625 -1.875 1.5625 -5.625zm25.273438 10.0l-16.8125 0l0 -3.046875l6.59375 -6.5625q1.625 -1.609375 2.640625 -2.78125q1.015625 -1.171875 1.578125 -2.125q0.578125 -0.96875 0.765625 -1.828125q0.203125 -0.859375 0.203125 -1.859375q0 -0.9375 -0.265625 -1.78125q-0.25 -0.859375 -0.78125 -1.5q-0.515625 -0.640625 -1.359375 -1.015625q-0.84375 -0.375 -2.015625 -0.375q-1.625 0 -2.953125 0.734375q-1.328125 0.71875 -2.4375 1.859375l-1.875 -2.234375q1.453125 -1.53125 3.328125 -2.4375q1.890625 -0.921875 4.390625 -0.921875q1.703125 0 3.09375 0.515625q1.390625 0.5 2.40625 1.453125q1.015625 0.953125 1.578125 2.34375q0.5625 1.390625 0.5625 3.125q0 1.46875 -0.390625 2.71875q-0.390625 1.25 -1.1875 2.484375q-0.796875 1.234375 -2.0 2.5625q-1.1875 1.328125 -2.828125 2.921875l-4.640625 4.5l12.40625 0l0 3.25z" fill-rule="nonzero"></path><path fill="#000000" d="m537.6369 408.09238q-2.328125 -2.9375 -3.9375 -6.875q-1.609375 -3.9375 -1.609375 -8.15625q0 -3.71875 1.203125 -7.125q1.40625 -3.953125 4.34375 -7.875l2.015625 0q-1.890625 3.25 -2.5 4.640625q-0.953125 2.15625 -1.5 4.5q-0.671875 2.921875 -0.671875 5.875q0 7.515625 4.671875 15.015625l-2.015625 0zm4.15625 -11.6875l2.78125 -0.4375q0.234375 1.671875 1.296875 2.5625q1.078125 0.890625 3.0 0.890625q1.9375 0 2.875 -0.78125q0.9375 -0.796875 0.9375 -1.859375q0 -0.953125 -0.828125 -1.5q-0.578125 -0.375 -2.875 -0.953125q-3.09375 -0.78125 -4.296875 -1.34375q-1.1875 -0.578125 -1.8125 -1.578125q-0.609375 -1.015625 -0.609375 -2.234375q0 -1.109375 0.5 -2.046875q0.515625 -0.953125 1.390625 -1.578125q0.65625 -0.484375 1.78125 -0.8125q1.140625 -0.34375 2.4375 -0.34375q1.953125 0 3.421875 0.5625q1.484375 0.5625 2.1875 1.53125q0.703125 0.953125 0.96875 2.5625l-2.75 0.375q-0.1875 -1.28125 -1.09375 -2.0q-0.890625 -0.71875 -2.53125 -0.71875q-1.9375 0 -2.765625 0.640625q-0.828125 0.640625 -0.828125 1.5q0 0.546875 0.34375 0.984375q0.34375 0.453125 1.078125 0.75q0.421875 0.15625 2.484375 0.71875q2.984375 0.796875 4.15625 1.3125q1.1875 0.5 1.859375 1.46875q0.671875 0.96875 0.671875 2.40625q0 1.40625 -0.828125 2.65625q-0.8125 1.234375 -2.359375 1.921875q-1.546875 0.671875 -3.5 0.671875q-3.234375 0 -4.9375 -1.34375q-1.6875 -1.34375 -2.15625 -3.984375zm23.265625 2.4375l0.40625 2.484375q-1.1875 0.25 -2.125 0.25q-1.53125 0 -2.375 -0.484375q-0.84375 -0.484375 -1.1875 -1.265625q-0.34375 -0.796875 -0.34375 -3.328125l0 -9.546875l-2.0625 0l0 -2.1875l2.0625 0l0 -4.109375l2.796875 -1.6875l0 5.796875l2.828125 0l0 2.1875l-2.828125 0l0 9.703125q0 1.203125 0.140625 1.546875q0.15625 0.34375 0.484375 0.546875q0.34375 0.203125 0.96875 0.203125q0.46875 0 1.234375 -0.109375zm13.578125 0.46875q-1.5625 1.328125 -3.015625 1.875q-1.4375 0.546875 -3.09375 0.546875q-2.734375 0 -4.203125 -1.328125q-1.46875 -1.34375 -1.46875 -3.421875q0 -1.21875 0.546875 -2.21875q0.5625 -1.015625 1.453125 -1.625q0.90625 -0.609375 2.03125 -0.921875q0.828125 -0.21875 2.5 -0.421875q3.40625 -0.40625 5.015625 -0.96875q0.015625 -0.578125 0.015625 -0.734375q0 -1.71875 -0.796875 -2.421875q-1.078125 -0.953125 -3.203125 -0.953125q-1.984375 0 -2.9375 0.703125q-0.9375 0.6875 -1.390625 2.453125l-2.75 -0.375q0.375 -1.765625 1.234375 -2.84375q0.859375 -1.09375 2.484375 -1.671875q1.625 -0.59375 3.765625 -0.59375q2.125 0 3.453125 0.5q1.328125 0.5 1.953125 1.265625q0.625 0.75 0.875 1.90625q0.140625 0.71875 0.140625 2.59375l0 3.75q0 3.921875 0.171875 4.96875q0.1875 1.03125 0.71875 1.984375l-2.9375 0q-0.4375 -0.875 -0.5625 -2.046875zm-0.234375 -6.28125q-1.53125 0.625 -4.59375 1.0625q-1.734375 0.25 -2.453125 0.5625q-0.71875 0.3125 -1.109375 0.921875q-0.390625 0.59375 -0.390625 1.328125q0 1.125 0.84375 1.875q0.859375 0.75 2.5 0.75q1.625 0 2.890625 -0.703125q1.265625 -0.71875 1.859375 -1.953125q0.453125 -0.953125 0.453125 -2.8125l0 -1.03125zm6.6875 9.703125l2.734375 0.40625q0.171875 1.265625 0.953125 1.84375q1.046875 0.78125 2.859375 0.78125q1.953125 0 3.015625 -0.78125q1.0625 -0.78125 1.4375 -2.1875q0.21875 -0.859375 0.203125 -3.609375q-1.84375 2.171875 -4.59375 2.171875q-3.421875 0 -5.296875 -2.46875q-1.875 -2.46875 -1.875 -5.921875q0 -2.375 0.859375 -4.375q0.859375 -2.015625 2.484375 -3.109375q1.640625 -1.09375 3.84375 -1.09375q2.9375 0 4.84375 2.375l0 -2.0l2.59375 0l0 14.34375q0 3.875 -0.796875 5.484375q-0.78125 1.625 -2.5 2.5625q-1.703125 0.9375 -4.203125 0.9375q-2.96875 0 -4.796875 -1.34375q-1.828125 -1.328125 -1.765625 -4.015625zm2.328125 -9.96875q0 3.265625 1.296875 4.765625q1.296875 1.5 3.25 1.5q1.9375 0 3.25 -1.484375q1.3125 -1.5 1.3125 -4.6875q0 -3.046875 -1.359375 -4.59375q-1.34375 -1.546875 -3.25 -1.546875q-1.875 0 -3.1875 1.53125q-1.3125 1.515625 -1.3125 4.515625zm27.34375 3.25l2.90625 0.359375q-0.6875 2.546875 -2.546875 3.953125q-1.859375 1.40625 -4.75 1.40625q-3.640625 0 -5.78125 -2.234375q-2.125 -2.25 -2.125 -6.296875q0 -4.1875 2.15625 -6.5q2.15625 -2.3125 5.59375 -2.3125q3.328125 0 5.4375 2.265625q2.109375 2.265625 2.109375 6.375q0 0.25 -0.015625 0.75l-12.375 0q0.15625 2.734375 1.546875 4.1875q1.390625 1.453125 3.46875 1.453125q1.546875 0 2.640625 -0.8125q1.09375 -0.8125 1.734375 -2.59375zm-9.234375 -4.546875l9.265625 0q-0.1875 -2.09375 -1.0625 -3.140625q-1.34375 -1.625 -3.484375 -1.625q-1.9375 0 -3.265625 1.296875q-1.3125 1.296875 -1.453125 3.46875zm29.671875 7.1875l0 2.703125l-15.140625 0q-0.03125 -1.015625 0.328125 -1.953125q0.578125 -1.546875 1.84375 -3.046875q1.28125 -1.5 3.6875 -3.46875q3.734375 -3.0625 5.046875 -4.84375q1.3125 -1.796875 1.3125 -3.390625q0 -1.671875 -1.203125 -2.8125q-1.1875 -1.15625 -3.109375 -1.15625q-2.03125 0 -3.25 1.21875q-1.21875 1.21875 -1.234375 3.375l-2.890625 -0.296875q0.296875 -3.234375 2.234375 -4.921875q1.9375 -1.703125 5.203125 -1.703125q3.296875 0 5.21875 1.828125q1.921875 1.828125 1.921875 4.53125q0 1.375 -0.5625 2.703125q-0.5625 1.328125 -1.875 2.796875q-1.296875 1.46875 -4.328125 4.03125q-2.53125 2.125 -3.25 2.890625q-0.71875 0.75 -1.1875 1.515625l11.234375 0zm5.640625 9.4375l-2.015625 0q4.671875 -7.5 4.671875 -15.015625q0 -2.9375 -0.671875 -5.828125q-0.53125 -2.34375 -1.484375 -4.5q-0.609375 -1.40625 -2.515625 -4.6875l2.015625 0q2.9375 3.921875 4.34375 7.875q1.203125 3.40625 1.203125 7.125q0 4.21875 -1.625 8.15625q-1.609375 3.9375 -3.921875 6.875z" fill-rule="nonzero"></path><path fill="#000000" fill-opacity="0.0" d="m548.29395 225.20079l224.94489 0l0 22.582672l-224.94489 0z" fill-rule="evenodd"></path><path fill="#cfe2f3" d="m540.3686 272.76642c4.947693 0 8.958618 -4.010956 8.958618 -8.958679l-8.958618 0c2.473877 0 4.479309 -2.0054626 4.479309 -4.4793396c0 -2.4738464 -2.0054321 -4.4793243 -4.479309 -4.4793243l8.958618 0l0 -116.462585l0 0c0 -4.9477386 4.0109253 -8.958664 8.958679 -8.958664l152.96497 0c4.947693 0 8.958618 4.0109253 8.958618 8.958664c0 4.9477234 -4.0109253 8.958649 -8.958618 8.958649l-8.958679 0l0 116.4626l0 0c0 4.9477234 -4.0109253 8.958679 -8.958679 8.958679zm26.875977 -134.37993l0 0c0 4.9477234 -4.0109253 8.958649 -8.958679 8.958649c-2.473877 0 -4.479309 -2.0054626 -4.479309 -4.4793243c0 -2.4738617 2.0054321 -4.4793243 4.479309 -4.4793243z" fill-rule="evenodd"></path><path fill="#a5b4c2" d="m567.24457 138.38649l0 0c0 4.9477234 -4.0109253 8.958649 -8.958679 8.958649c-2.473877 0 -4.479309 -2.0054626 -4.479309 -4.4793243c0 -2.4738617 2.0054321 -4.4793243 4.479309 -4.4793243zm-17.917358 125.42125c0 4.9477234 -4.0109253 8.958679 -8.958618 8.958679c-4.947754 0 -8.958679 -4.010956 -8.958679 -8.958679c0 -4.9477234 4.0109253 -8.958664 8.958679 -8.958664l0 0c2.473877 0 4.479309 2.005478 4.479309 4.4793243c0 2.473877 -2.0054321 4.4793396 -4.479309 4.4793396z" fill-rule="evenodd"></path><path fill="#000000" fill-opacity="0.0" d="m549.3272 254.84908l0 -116.462585l0 0c0 -4.9477386 4.0109253 -8.958664 8.958679 -8.958664l152.96497 0c4.947693 0 8.958618 4.0109253 8.958618 8.958664c0 4.9477234 -4.0109253 8.958649 -8.958618 8.958649l-8.958679 0l0 116.4626l0 0c0 4.9477234 -4.0109253 8.958679 -8.958679 8.958679l-152.9649 0c-4.947754 0 -8.958679 -4.010956 -8.958679 -8.958679c0 -4.9477234 4.0109253 -8.958664 8.958679 -8.958664zm8.958679 -125.42125l0 0c4.947754 0 8.958679 4.0109253 8.958679 8.958664c0 4.9477234 -4.0109253 8.958649 -8.958679 8.958649c-2.473877 0 -4.479309 -2.0054626 -4.479309 -4.4793243c0 -2.4738617 2.0054321 -4.4793243 4.479309 -4.4793243l8.958679 0m135.0476 8.958649l-144.00629 0m-17.917297 107.50394l0 0c2.473877 0 4.479309 2.005478 4.479309 4.4793243c0 2.473877 -2.0054321 4.4793396 -4.479309 4.4793396l8.958618 0m-8.958618 8.958679c4.947693 0 8.958618 -4.010956 8.958618 -8.958679l0 -8.958664" fill-rule="evenodd"></path><path stroke="#000000" stroke-width="1.0" stroke-linejoin="round" stroke-linecap="butt" d="m549.3272 254.84908l0 -116.462585l0 0c0 -4.9477386 4.0109253 -8.958664 8.958679 -8.958664l152.96497 0c4.947693 0 8.958618 4.0109253 8.958618 8.958664c0 4.9477234 -4.0109253 8.958649 -8.958618 8.958649l-8.958679 0l0 116.4626l0 0c0 4.9477234 -4.0109253 8.958679 -8.958679 8.958679l-152.9649 0c-4.947754 0 -8.958679 -4.010956 -8.958679 -8.958679c0 -4.9477234 4.0109253 -8.958664 8.958679 -8.958664zm8.958679 -125.42125l0 0c4.947754 0 8.958679 4.0109253 8.958679 8.958664c0 4.9477234 -4.0109253 8.958649 -8.958679 8.958649c-2.473877 0 -4.479309 -2.0054626 -4.479309 -4.4793243c0 -2.4738617 2.0054321 -4.4793243 4.479309 -4.4793243l8.958679 0m135.0476 8.958649l-144.00629 0m-17.917297 107.50394l0 0c2.473877 0 4.479309 2.005478 4.479309 4.4793243c0 2.473877 -2.0054321 4.4793396 -4.479309 4.4793396l8.958618 0m-8.958618 8.958679c4.947693 0 8.958618 -4.010956 8.958618 -8.958679l0 -8.958664" fill-rule="evenodd"></path><path fill="#000000" fill-opacity="0.0" d="m580.169 158.97638l91.28137 0l0 38.23622l-91.28137 0z" fill-rule="evenodd"></path><path fill="#000000" d="m606.6378 183.95448l0 -1.25q-0.453125 0.671875 -1.1875 1.0625q-0.734375 0.375 -1.5625 0.375q-0.828125 0 -1.5 -0.359375q-0.65625 -0.375 -0.953125 -1.03125q-0.296875 -0.671875 -0.296875 -1.84375l0 -5.25l2.1875 0l0 3.8125q0 1.75 0.125 2.140625q0.125 0.390625 0.4375 0.625q0.328125 0.234375 0.8125 0.234375q0.5625 0 1.0 -0.3125q0.453125 -0.3125 0.609375 -0.765625q0.171875 -0.453125 0.171875 -2.234375l0 -3.5l2.203125 0l0 8.296875l-2.046875 0zm4.3203125 0l0 -11.453125l2.1875 0l0 11.453125l-2.1875 0zm4.4453125 -9.421875l0 -2.03125l2.1875 0l0 2.03125l-2.1875 0zm0 9.421875l0 -8.296875l2.1875 0l0 8.296875l-2.1875 0zm4.2734375 -8.296875l2.03125 0l0 1.125q1.078125 -1.3125 2.578125 -1.3125q0.796875 0 1.375 0.328125q0.59375 0.328125 0.96875 0.984375q0.546875 -0.65625 1.171875 -0.984375q0.640625 -0.328125 1.359375 -0.328125q0.921875 0 1.546875 0.375q0.640625 0.359375 0.953125 1.078125q0.21875 0.53125 0.21875 1.71875l0 5.3125l-2.1875 0l0 -4.75q0 -1.234375 -0.234375 -1.59375q-0.296875 -0.46875 -0.9375 -0.46875q-0.453125 0 -0.859375 0.28125q-0.40625 0.28125 -0.59375 0.828125q-0.171875 0.546875 -0.171875 1.71875l0 3.984375l-2.203125 0l0 -4.546875q0 -1.21875 -0.125 -1.5625q-0.109375 -0.359375 -0.359375 -0.53125q-0.234375 -0.171875 -0.65625 -0.171875q-0.515625 0 -0.921875 0.28125q-0.40625 0.265625 -0.578125 0.78125q-0.171875 0.515625 -0.171875 1.71875l0 4.03125l-2.203125 0l0 -8.296875zm14.3984375 -1.125l0 -2.03125l2.1875 0l0 2.03125l-2.1875 0zm0 9.421875l0 -8.296875l2.1875 0l0 8.296875l-2.1875 0zm8.2421875 -8.296875l0 1.75l-1.5 0l0 3.34375q0 1.015625 0.046875 1.1875q0.046875 0.15625 0.1875 0.265625q0.15625 0.109375 0.375 0.109375q0.3125 0 0.890625 -0.203125l0.1875 1.703125q-0.765625 0.328125 -1.734375 0.328125q-0.59375 0 -1.078125 -0.203125q-0.46875 -0.203125 -0.703125 -0.515625q-0.21875 -0.3125 -0.296875 -0.859375q-0.078125 -0.375 -0.078125 -1.546875l0 -3.609375l-1.0 0l0 -1.75l1.0 0l0 -1.65625l2.203125 -1.28125l0 2.9375l1.5 0zm0.75 5.921875l2.203125 -0.328125q0.140625 0.640625 0.5625 0.96875q0.4375 0.328125 1.21875 0.328125q0.84375 0 1.28125 -0.3125q0.28125 -0.21875 0.28125 -0.578125q0 -0.25 -0.15625 -0.421875q-0.15625 -0.15625 -0.734375 -0.28125q-2.65625 -0.59375 -3.359375 -1.078125q-0.984375 -0.671875 -0.984375 -1.859375q0 -1.078125 0.84375 -1.8125q0.859375 -0.734375 2.640625 -0.734375q1.703125 0 2.53125 0.5625q0.828125 0.546875 1.140625 1.625l-2.0625 0.390625q-0.140625 -0.484375 -0.515625 -0.734375q-0.359375 -0.265625 -1.046875 -0.265625q-0.875 0 -1.25 0.234375q-0.25 0.171875 -0.25 0.453125q0 0.234375 0.21875 0.390625q0.296875 0.21875 2.046875 0.625q1.765625 0.390625 2.453125 0.96875q0.6875 0.59375 0.6875 1.640625q0 1.140625 -0.953125 1.96875q-0.953125 0.8125 -2.8125 0.8125q-1.703125 0 -2.6875 -0.6875q-0.984375 -0.6875 -1.296875 -1.875z" fill-rule="nonzero"></path><path fill="#000000" fill-opacity="0.0" d="m566.68335 206.75328l126.56848 0l0 54.61418l-126.56848 0z" fill-rule="evenodd"></path><path fill="#000000" d="m576.0427 221.941q0 -1.578125 0.890625 -2.34375q0.734375 -0.625 1.796875 -0.625q1.171875 0 1.90625 0.765625q0.75 0.765625 0.75 2.125q0 1.109375 -0.328125 1.75q-0.328125 0.625 -0.96875 0.96875q-0.625 0.34375 -1.359375 0.34375q-1.203125 0 -1.953125 -0.765625q-0.734375 -0.765625 -0.734375 -2.21875zm1.0 0q0 1.109375 0.46875 1.65625q0.484375 0.53125 1.21875 0.53125q0.71875 0 1.1875 -0.546875q0.484375 -0.546875 0.484375 -1.671875q0 -1.046875 -0.484375 -1.59375q-0.484375 -0.546875 -1.1875 -0.546875q-0.734375 0 -1.21875 0.546875q-0.46875 0.53125 -0.46875 1.625zm5.2858276 5.046875l0 -7.890625l0.890625 0l0 0.734375q0.3125 -0.421875 0.703125 -0.640625q0.390625 -0.21875 0.953125 -0.21875q0.71875 0 1.28125 0.375q0.5625 0.375 0.84375 1.0625q0.28125 0.671875 0.28125 1.5q0 0.875 -0.3125 1.578125q-0.3125 0.6875 -0.921875 1.0625q-0.59375 0.375 -1.25 0.375q-0.484375 0 -0.875 -0.203125q-0.375 -0.203125 -0.625 -0.515625l0 2.78125l-0.96875 0zm0.875 -5.0q0 1.09375 0.453125 1.625q0.453125 0.515625 1.078125 0.515625q0.640625 0 1.09375 -0.53125q0.46875 -0.546875 0.46875 -1.703125q0 -1.078125 -0.453125 -1.625q-0.4375 -0.546875 -1.0625 -0.546875q-0.625 0 -1.109375 0.578125q-0.46875 0.578125 -0.46875 1.6875zm8.957764 0.96875l1.0 0.125q-0.234375 0.875 -0.875 1.359375q-0.640625 0.484375 -1.625 0.484375q-1.25 0 -1.984375 -0.765625q-0.734375 -0.765625 -0.734375 -2.15625q0 -1.453125 0.734375 -2.234375q0.75 -0.796875 1.921875 -0.796875q1.15625 0 1.875 0.78125q0.71875 0.765625 0.71875 2.1875q0 0.078125 0 0.25l-4.25 0q0.046875 0.9375 0.515625 1.4375q0.484375 0.5 1.203125 0.5q0.53125 0 0.90625 -0.265625q0.375 -0.28125 0.59375 -0.90625zm-3.171875 -1.5625l3.1875 0q-0.0625 -0.71875 -0.359375 -1.078125q-0.46875 -0.546875 -1.203125 -0.546875q-0.671875 0 -1.125 0.453125q-0.453125 0.4375 -0.5 1.171875zm5.1921387 3.40625l0 -5.703125l0.875 0l0 0.8125q0.625 -0.9375 1.8125 -0.9375q0.515625 0 0.953125 0.1875q0.4375 0.171875 0.640625 0.484375q0.21875 0.296875 0.3125 0.703125q0.046875 0.28125 0.046875 0.953125l0 3.5l-0.96875 0l0 -3.46875q0 -0.59375 -0.109375 -0.875q-0.109375 -0.296875 -0.40625 -0.46875q-0.28125 -0.1875 -0.671875 -0.1875q-0.609375 0 -1.0625 0.390625q-0.453125 0.390625 -0.453125 1.5l0 3.109375l-0.96875 0zm9.121521 0l0 -4.953125l-0.84375 0l0 -0.75l0.84375 0l0 -0.609375q0 -0.578125 0.109375 -0.859375q0.140625 -0.375 0.484375 -0.609375q0.359375 -0.234375 0.984375 -0.234375q0.40625 0 0.90625 0.109375l-0.140625 0.84375q-0.3125 -0.0625 -0.578125 -0.0625q-0.4375 0 -0.625 0.1875q-0.171875 0.1875 -0.171875 0.703125l0 0.53125l1.109375 0l0 0.75l-1.109375 0l0 4.953125l-0.96875 0zm2.7418823 -6.765625l0 -1.109375l0.96875 0l0 1.109375l-0.96875 0zm0 6.765625l0 -5.703125l0.96875 0l0 5.703125l-0.96875 0zm2.3362427 0l0 -7.875l0.96875 0l0 7.875l-0.96875 0zm6.2893677 -1.84375l1.0 0.125q-0.234375 0.875 -0.875 1.359375q-0.640625 0.484375 -1.625 0.484375q-1.25 0 -1.984375 -0.765625q-0.734375 -0.765625 -0.734375 -2.15625q0 -1.453125 0.734375 -2.234375q0.75 -0.796875 1.921875 -0.796875q1.15625 0 1.875 0.78125q0.71875 0.765625 0.71875 2.1875q0 0.078125 0 0.25l-4.25 0q0.046875 0.9375 0.515625 1.4375q0.484375 0.5 1.203125 0.5q0.53125 0 0.90625 -0.265625q0.375 -0.28125 0.59375 -0.90625zm-3.171875 -1.5625l3.1875 0q-0.0625 -0.71875 -0.359375 -1.078125q-0.46875 -0.546875 -1.203125 -0.546875q-0.671875 0 -1.125 0.453125q-0.453125 0.4375 -0.5 1.171875zm4.8170776 1.703125l0.953125 -0.15625q0.078125 0.578125 0.4375 0.890625q0.375 0.296875 1.03125 0.296875q0.671875 0 0.984375 -0.265625q0.328125 -0.265625 0.328125 -0.640625q0 -0.328125 -0.28125 -0.515625q-0.203125 -0.125 -0.984375 -0.328125q-1.0625 -0.265625 -1.484375 -0.453125q-0.40625 -0.203125 -0.625 -0.546875q-0.203125 -0.34375 -0.203125 -0.765625q0 -0.390625 0.171875 -0.703125q0.171875 -0.328125 0.484375 -0.546875q0.21875 -0.171875 0.609375 -0.28125q0.390625 -0.109375 0.828125 -0.109375q0.671875 0 1.171875 0.1875q0.515625 0.1875 0.75 0.53125q0.25 0.328125 0.34375 0.875l-0.9375 0.125q-0.078125 -0.4375 -0.390625 -0.671875q-0.296875 -0.25 -0.859375 -0.25q-0.671875 0 -0.953125 0.21875q-0.28125 0.21875 -0.28125 0.515625q0 0.1875 0.109375 0.328125q0.125 0.15625 0.375 0.265625q0.140625 0.046875 0.859375 0.25q1.015625 0.265625 1.421875 0.4375q0.40625 0.171875 0.640625 0.515625q0.234375 0.328125 0.234375 0.828125q0 0.484375 -0.28125 0.90625q-0.28125 0.421875 -0.8125 0.65625q-0.53125 0.234375 -1.203125 0.234375q-1.109375 0 -1.703125 -0.453125q-0.578125 -0.46875 -0.734375 -1.375zm13.757568 -2.921875l-5.203125 0l0 -0.90625l5.203125 0l0 0.90625zm0 2.390625l-5.203125 0l0 -0.90625l5.203125 0l0 0.90625zm7.464966 2.234375l-0.96875 0l0 -6.15625q-0.34375 0.328125 -0.90625 0.671875q-0.5625 0.328125 -1.015625 0.484375l0 -0.9375q0.8125 -0.375 1.40625 -0.90625q0.609375 -0.546875 0.859375 -1.0625l0.625 0l0 7.90625zm2.2858887 -3.890625q0 -1.390625 0.28125 -2.234375q0.296875 -0.859375 0.859375 -1.3125q0.578125 -0.46875 1.4375 -0.46875q0.625 0 1.09375 0.265625q0.484375 0.25 0.796875 0.734375q0.3125 0.46875 0.484375 1.171875q0.1875 0.6875 0.1875 1.84375q0 1.390625 -0.296875 2.25q-0.28125 0.84375 -0.84375 1.3125q-0.5625 0.46875 -1.421875 0.46875q-1.140625 0 -1.796875 -0.828125q-0.78125 -0.984375 -0.78125 -3.203125zm1.0 0q0 1.953125 0.453125 2.59375q0.453125 0.640625 1.125 0.640625q0.65625 0 1.109375 -0.640625q0.453125 -0.65625 0.453125 -2.59375q0 -1.9375 -0.453125 -2.578125q-0.453125 -0.640625 -1.125 -0.640625q-0.671875 0 -1.0625 0.5625q-0.5 0.71875 -0.5 2.65625zm4.9264526 0q0 -1.390625 0.28125 -2.234375q0.296875 -0.859375 0.859375 -1.3125q0.578125 -0.46875 1.4375 -0.46875q0.625 0 1.09375 0.265625q0.484375 0.25 0.796875 0.734375q0.3125 0.46875 0.484375 1.171875q0.1875 0.6875 0.1875 1.84375q0 1.390625 -0.296875 2.25q-0.28125 0.84375 -0.84375 1.3125q-0.5625 0.46875 -1.421875 0.46875q-1.140625 0 -1.796875 -0.828125q-0.78125 -0.984375 -0.78125 -3.203125zm1.0 0q0 1.953125 0.453125 2.59375q0.453125 0.640625 1.125 0.640625q0.65625 0 1.109375 -0.640625q0.453125 -0.65625 0.453125 -2.59375q0 -1.9375 -0.453125 -2.578125q-0.453125 -0.640625 -1.125 -0.640625q-0.671875 0 -1.0625 0.5625q-0.5 0.71875 -0.5 2.65625zm4.9265137 0q0 -1.390625 0.28125 -2.234375q0.296875 -0.859375 0.859375 -1.3125q0.578125 -0.46875 1.4375 -0.46875q0.625 0 1.09375 0.265625q0.484375 0.25 0.796875 0.734375q0.3125 0.46875 0.484375 1.171875q0.1875 0.6875 0.1875 1.84375q0 1.390625 -0.296875 2.25q-0.28125 0.84375 -0.84375 1.3125q-0.5625 0.46875 -1.421875 0.46875q-1.140625 0 -1.796875 -0.828125q-0.78125 -0.984375 -0.78125 -3.203125zm1.0 0q0 1.953125 0.453125 2.59375q0.453125 0.640625 1.125 0.640625q0.65625 0 1.109375 -0.640625q0.453125 -0.65625 0.453125 -2.59375q0 -1.9375 -0.453125 -2.578125q-0.453125 -0.640625 -1.125 -0.640625q-0.671875 0 -1.0625 0.5625q-0.5 0.71875 -0.5 2.65625z" fill-rule="nonzero"></path><path fill="#000000" d="m576.0271 236.09724l0.953125 -0.15625q0.078125 0.578125 0.4375 0.890625q0.375 0.296875 1.03125 0.296875q0.671875 0 0.984375 -0.265625q0.328125 -0.265625 0.328125 -0.640625q0 -0.328125 -0.28125 -0.515625q-0.203125 -0.125 -0.984375 -0.328125q-1.0625 -0.265625 -1.484375 -0.453125q-0.40625 -0.203125 -0.625 -0.546875q-0.203125 -0.34375 -0.203125 -0.765625q0 -0.390625 0.171875 -0.703125q0.171875 -0.328125 0.484375 -0.546875q0.21875 -0.171875 0.609375 -0.28125q0.390625 -0.109375 0.828125 -0.109375q0.671875 0 1.171875 0.1875q0.515625 0.1875 0.75 0.53125q0.25 0.328125 0.34375 0.875l-0.9375 0.125q-0.078125 -0.4375 -0.390625 -0.671875q-0.296875 -0.25 -0.859375 -0.25q-0.671875 0 -0.953125 0.21875q-0.28125 0.21875 -0.28125 0.515625q0 0.1875 0.109375 0.328125q0.125 0.15625 0.375 0.265625q0.140625 0.046875 0.859375 0.25q1.015625 0.265625 1.421875 0.4375q0.40625 0.171875 0.640625 0.515625q0.234375 0.328125 0.234375 0.828125q0 0.484375 -0.28125 0.90625q-0.28125 0.421875 -0.8125 0.65625q-0.53125 0.234375 -1.203125 0.234375q-1.109375 0 -1.703125 -0.453125q-0.578125 -0.46875 -0.734375 -1.375zm7.828125 0.84375l0.125 0.84375q-0.40625 0.09375 -0.71875 0.09375q-0.53125 0 -0.828125 -0.171875q-0.28125 -0.171875 -0.40625 -0.4375q-0.109375 -0.265625 -0.109375 -1.140625l0 -3.28125l-0.71875 0l0 -0.75l0.71875 0l0 -1.40625l0.953125 -0.59375l0 2.0l0.984375 0l0 0.75l-0.984375 0l0 3.34375q0 0.40625 0.046875 0.53125q0.0625 0.109375 0.171875 0.1875q0.125 0.0625 0.328125 0.0625q0.171875 0 0.4375 -0.03125zm4.5700073 0.15625q-0.546875 0.453125 -1.046875 0.640625q-0.484375 0.1875 -1.0625 0.1875q-0.9375 0 -1.453125 -0.453125q-0.5 -0.46875 -0.5 -1.171875q0 -0.421875 0.1875 -0.765625q0.203125 -0.34375 0.5 -0.546875q0.3125 -0.21875 0.703125 -0.328125q0.28125 -0.078125 0.859375 -0.140625q1.171875 -0.140625 1.71875 -0.34375q0.015625 -0.1875 0.015625 -0.25q0 -0.59375 -0.28125 -0.828125q-0.359375 -0.328125 -1.09375 -0.328125q-0.6875 0 -1.015625 0.234375q-0.3125 0.234375 -0.46875 0.84375l-0.953125 -0.125q0.125 -0.609375 0.421875 -0.984375q0.296875 -0.375 0.859375 -0.5625q0.5625 -0.203125 1.296875 -0.203125q0.734375 0 1.1875 0.171875q0.453125 0.171875 0.65625 0.4375q0.21875 0.25 0.3125 0.640625q0.046875 0.25 0.046875 0.90625l0 1.28125q0 1.34375 0.0625 1.703125q0.0625 0.359375 0.25 0.6875l-1.015625 0q-0.15625 -0.296875 -0.1875 -0.703125zm-0.09375 -2.15625q-0.515625 0.21875 -1.578125 0.359375q-0.59375 0.09375 -0.84375 0.203125q-0.234375 0.09375 -0.375 0.3125q-0.140625 0.203125 -0.140625 0.453125q0 0.390625 0.296875 0.65625q0.296875 0.25 0.859375 0.25q0.5625 0 0.984375 -0.25q0.4375 -0.25 0.65625 -0.671875q0.140625 -0.328125 0.140625 -0.96875l0 -0.34375zm6.0202637 0.765625l0.9375 0.125q-0.140625 0.984375 -0.796875 1.546875q-0.640625 0.546875 -1.5625 0.546875q-1.171875 0 -1.890625 -0.765625q-0.703125 -0.765625 -0.703125 -2.1875q0 -0.921875 0.296875 -1.609375q0.3125 -0.703125 0.9375 -1.046875q0.625 -0.34375 1.359375 -0.34375q0.921875 0 1.515625 0.46875q0.59375 0.46875 0.765625 1.328125l-0.953125 0.140625q-0.125 -0.5625 -0.46875 -0.84375q-0.34375 -0.296875 -0.828125 -0.296875q-0.71875 0 -1.1875 0.53125q-0.453125 0.515625 -0.453125 1.640625q0 1.15625 0.4375 1.671875q0.4375 0.515625 1.15625 0.515625q0.5625 0 0.9375 -0.34375q0.390625 -0.34375 0.5 -1.078125zm1.609375 2.09375l0 -7.875l0.96875 0l0 4.484375l2.28125 -2.3125l1.25 0l-2.171875 2.109375l2.390625 3.59375l-1.1875 0l-1.890625 -2.921875l-0.671875 0.65625l0 2.265625l-0.96875 0zm7.8981323 -1.703125l0.953125 -0.15625q0.078125 0.578125 0.4375 0.890625q0.375 0.296875 1.03125 0.296875q0.671875 0 0.984375 -0.265625q0.328125 -0.265625 0.328125 -0.640625q0 -0.328125 -0.28125 -0.515625q-0.203125 -0.125 -0.984375 -0.328125q-1.0625 -0.265625 -1.484375 -0.453125q-0.40625 -0.203125 -0.625 -0.546875q-0.203125 -0.34375 -0.203125 -0.765625q0 -0.390625 0.171875 -0.703125q0.171875 -0.328125 0.484375 -0.546875q0.21875 -0.171875 0.609375 -0.28125q0.390625 -0.109375 0.828125 -0.109375q0.671875 0 1.171875 0.1875q0.515625 0.1875 0.75 0.53125q0.25 0.328125 0.34375 0.875l-0.9375 0.125q-0.078125 -0.4375 -0.390625 -0.671875q-0.296875 -0.25 -0.859375 -0.25q-0.671875 0 -0.953125 0.21875q-0.28125 0.21875 -0.28125 0.515625q0 0.1875 0.109375 0.328125q0.125 0.15625 0.375 0.265625q0.140625 0.046875 0.859375 0.25q1.015625 0.265625 1.421875 0.4375q0.40625 0.171875 0.640625 0.515625q0.234375 0.328125 0.234375 0.828125q0 0.484375 -0.28125 0.90625q-0.28125 0.421875 -0.8125 0.65625q-0.53125 0.234375 -1.203125 0.234375q-1.109375 0 -1.703125 -0.453125q-0.578125 -0.46875 -0.734375 -1.375zm5.71875 -5.0625l0 -1.109375l0.96875 0l0 1.109375l-0.96875 0zm0 6.765625l0 -5.703125l0.96875 0l0 5.703125l-0.96875 0zm1.8518677 0l0 -0.78125l3.625 -4.171875q-0.609375 0.03125 -1.09375 0.03125l-2.3125 0l0 -0.78125l4.65625 0l0 0.640625l-3.09375 3.625l-0.59375 0.65625q0.65625 -0.046875 1.21875 -0.046875l2.640625 0l0 0.828125l-5.046875 0zm9.734375 -1.84375l1.0 0.125q-0.234375 0.875 -0.875 1.359375q-0.640625 0.484375 -1.625 0.484375q-1.25 0 -1.984375 -0.765625q-0.734375 -0.765625 -0.734375 -2.15625q0 -1.453125 0.734375 -2.234375q0.75 -0.796875 1.921875 -0.796875q1.15625 0 1.875 0.78125q0.71875 0.765625 0.71875 2.1875q0 0.078125 0 0.25l-4.25 0q0.046875 0.9375 0.515625 1.4375q0.484375 0.5 1.203125 0.5q0.53125 0 0.90625 -0.265625q0.375 -0.28125 0.59375 -0.90625zm-3.171875 -1.5625l3.1875 0q-0.0625 -0.71875 -0.359375 -1.078125q-0.46875 -0.546875 -1.203125 -0.546875q-0.671875 0 -1.125 0.453125q-0.453125 0.4375 -0.5 1.171875zm13.246521 -1.21875l-5.203125 0l0 -0.90625l5.203125 0l0 0.90625zm0 2.390625l-5.203125 0l0 -0.90625l5.203125 0l0 0.90625zm5.308716 -2.03125q-0.59375 -0.21875 -0.890625 -0.625q-0.28125 -0.421875 -0.28125 -0.984375q0 -0.859375 0.609375 -1.4375q0.625 -0.59375 1.65625 -0.59375q1.03125 0 1.65625 0.609375q0.625 0.59375 0.625 1.453125q0 0.546875 -0.296875 0.953125q-0.28125 0.40625 -0.859375 0.625q0.71875 0.234375 1.09375 0.765625q0.390625 0.515625 0.390625 1.25q0 1.015625 -0.71875 1.703125q-0.71875 0.6875 -1.875 0.6875q-1.171875 0 -1.890625 -0.6875q-0.703125 -0.703125 -0.703125 -1.734375q0 -0.765625 0.375 -1.28125q0.390625 -0.515625 1.109375 -0.703125zm-0.1875 -1.640625q0 0.5625 0.359375 0.921875q0.359375 0.34375 0.9375 0.34375q0.5625 0 0.90625 -0.34375q0.359375 -0.359375 0.359375 -0.875q0 -0.53125 -0.375 -0.890625q-0.359375 -0.359375 -0.90625 -0.359375q-0.546875 0 -0.921875 0.359375q-0.359375 0.34375 -0.359375 0.84375zm-0.3125 3.640625q0 0.40625 0.1875 0.796875q0.203125 0.390625 0.59375 0.609375q0.390625 0.203125 0.828125 0.203125q0.703125 0 1.140625 -0.4375q0.453125 -0.453125 0.453125 -1.140625q0 -0.703125 -0.46875 -1.15625q-0.453125 -0.453125 -1.15625 -0.453125q-0.671875 0 -1.125 0.453125q-0.453125 0.4375 -0.453125 1.125zm8.582764 2.265625l-0.96875 0l0 -6.15625q-0.34375 0.328125 -0.90625 0.671875q-0.5625 0.328125 -1.015625 0.484375l0 -0.9375q0.8125 -0.375 1.40625 -0.90625q0.609375 -0.546875 0.859375 -1.0625l0.625 0l0 7.90625zm2.4420776 -1.828125l0.921875 -0.078125q0.125 0.65625 0.453125 0.953125q0.328125 0.296875 0.859375 0.296875q0.4375 0 0.765625 -0.203125q0.34375 -0.203125 0.5625 -0.546875q0.21875 -0.34375 0.359375 -0.921875q0.140625 -0.578125 0.140625 -1.1875q0 -0.0625 0 -0.1875q-0.296875 0.453125 -0.796875 0.75q-0.5 0.28125 -1.09375 0.28125q-0.96875 0 -1.65625 -0.703125q-0.671875 -0.71875 -0.671875 -1.875q0 -1.203125 0.703125 -1.921875q0.71875 -0.734375 1.78125 -0.734375q0.765625 0 1.390625 0.421875q0.640625 0.40625 0.96875 1.171875q0.34375 0.765625 0.34375 2.21875q0 1.5 -0.328125 2.40625q-0.328125 0.890625 -0.984375 1.359375q-0.640625 0.46875 -1.515625 0.46875q-0.921875 0 -1.515625 -0.515625q-0.578125 -0.515625 -0.6875 -1.453125zm3.953125 -3.46875q0 -0.828125 -0.453125 -1.3125q-0.4375 -0.5 -1.0625 -0.5q-0.640625 0 -1.125 0.53125q-0.46875 0.53125 -0.46875 1.359375q0 0.75 0.453125 1.21875q0.453125 0.46875 1.125 0.46875q0.671875 0 1.09375 -0.46875q0.4375 -0.46875 0.4375 -1.296875zm6.8952637 4.375l0 0.921875l-5.203125 0q0 -0.34375 0.125 -0.671875q0.1875 -0.53125 0.625 -1.046875q0.4375 -0.515625 1.265625 -1.1875q1.28125 -1.0625 1.734375 -1.671875q0.453125 -0.609375 0.453125 -1.15625q0 -0.578125 -0.40625 -0.96875q-0.40625 -0.40625 -1.078125 -0.40625q-0.6875 0 -1.109375 0.421875q-0.421875 0.421875 -0.421875 1.15625l-1.0 -0.09375q0.109375 -1.109375 0.765625 -1.6875q0.671875 -0.59375 1.796875 -0.59375q1.125 0 1.78125 0.625q0.671875 0.625 0.671875 1.5625q0 0.46875 -0.203125 0.9375q-0.1875 0.453125 -0.640625 0.953125q-0.4375 0.5 -1.484375 1.390625q-0.875 0.71875 -1.125 0.984375q-0.234375 0.265625 -0.40625 0.53125l3.859375 0z" fill-rule="nonzero"></path><path fill="#000000" d="m576.68335 250.80037l0 -1.09375l1.09375 0l0 1.09375l-1.09375 0zm2.9606323 0l0 -1.09375l1.09375 0l0 1.09375l-1.09375 0zm2.9606323 0l0 -1.09375l1.09375 0l0 1.09375l-1.09375 0z" fill-rule="nonzero"></path><path fill="#000000" fill-opacity="0.0" d="m777.8058 423.8609l78.897644 0l0 16.59842l-78.897644 0z" fill-rule="evenodd"></path><path fill="#999999" d="m795.09015 434.49136l1.125 0.140625q-0.171875 1.171875 -0.9375 1.828125q-0.765625 0.65625 -1.859375 0.65625q-1.390625 0 -2.234375 -0.90625q-0.828125 -0.90625 -0.828125 -2.59375q0 -1.09375 0.359375 -1.90625q0.359375 -0.828125 1.09375 -1.234375q0.734375 -0.40625 1.609375 -0.40625q1.09375 0 1.796875 0.5625q0.703125 0.546875 0.890625 1.5625l-1.109375 0.171875q-0.15625 -0.671875 -0.5625 -1.015625q-0.390625 -0.34375 -0.96875 -0.34375q-0.859375 0 -1.40625 0.625q-0.53125 0.609375 -0.53125 1.953125q0 1.359375 0.515625 1.984375q0.515625 0.609375 1.359375 0.609375q0.671875 0 1.125 -0.40625q0.453125 -0.421875 0.5625 -1.28125zm1.8515625 -0.90625q0 -1.875 1.03125 -2.765625q0.875 -0.75 2.125 -0.75q1.390625 0 2.265625 0.90625q0.890625 0.90625 0.890625 2.515625q0 1.296875 -0.390625 2.046875q-0.390625 0.75 -1.140625 1.171875q-0.75 0.40625 -1.625 0.40625q-1.421875 0 -2.296875 -0.90625q-0.859375 -0.90625 -0.859375 -2.625zm1.171875 0q0 1.296875 0.5625 1.953125q0.5625 0.640625 1.421875 0.640625q0.84375 0 1.40625 -0.640625q0.578125 -0.65625 0.578125 -1.984375q0 -1.25 -0.578125 -1.890625q-0.5625 -0.65625 -1.40625 -0.65625q-0.859375 0 -1.421875 0.640625q-0.5625 0.640625 -0.5625 1.9375zm6.6624756 3.375l0 -6.734375l1.03125 0l0 0.953125q0.734375 -1.109375 2.140625 -1.109375q0.609375 0 1.109375 0.21875q0.515625 0.21875 0.765625 0.578125q0.265625 0.34375 0.359375 0.84375q0.0625 0.3125 0.0625 1.109375l0 4.140625l-1.140625 0l0 -4.09375q0 -0.703125 -0.140625 -1.046875q-0.125 -0.34375 -0.46875 -0.546875q-0.328125 -0.21875 -0.78125 -0.21875q-0.734375 0 -1.265625 0.46875q-0.53125 0.453125 -0.53125 1.75l0 3.6875l-1.140625 0zm9.912476 -1.015625l0.15625 1.0q-0.484375 0.109375 -0.859375 0.109375q-0.625 0 -0.96875 -0.203125q-0.34375 -0.203125 -0.484375 -0.515625q-0.140625 -0.328125 -0.140625 -1.34375l0 -3.890625l-0.828125 0l0 -0.875l0.828125 0l0 -1.671875l1.140625 -0.6875l0 2.359375l1.15625 0l0 0.875l-1.15625 0l0 3.953125q0 0.484375 0.0625 0.625q0.0625 0.140625 0.1875 0.21875q0.140625 0.078125 0.390625 0.078125q0.203125 0 0.515625 -0.03125zm5.593628 0.1875q-0.625 0.53125 -1.21875 0.765625q-0.578125 0.21875 -1.25 0.21875q-1.125 0 -1.71875 -0.546875q-0.59375 -0.546875 -0.59375 -1.390625q0 -0.484375 0.21875 -0.890625q0.234375 -0.421875 0.59375 -0.671875q0.375 -0.25 0.828125 -0.375q0.328125 -0.078125 1.015625 -0.171875q1.375 -0.15625 2.03125 -0.390625q0.015625 -0.234375 0.015625 -0.296875q0 -0.703125 -0.328125 -0.984375q-0.4375 -0.390625 -1.296875 -0.390625q-0.8125 0 -1.203125 0.28125q-0.375 0.28125 -0.5625 1.0l-1.109375 -0.140625q0.140625 -0.71875 0.484375 -1.15625q0.359375 -0.453125 1.015625 -0.6875q0.671875 -0.234375 1.53125 -0.234375q0.875 0 1.40625 0.203125q0.546875 0.203125 0.796875 0.515625q0.25 0.296875 0.359375 0.765625q0.046875 0.296875 0.046875 1.0625l0 1.515625q0 1.59375 0.078125 2.015625q0.078125 0.421875 0.28125 0.8125l-1.1875 0q-0.171875 -0.359375 -0.234375 -0.828125zm-0.09375 -2.5625q-0.625 0.265625 -1.859375 0.4375q-0.703125 0.109375 -1.0 0.234375q-0.296875 0.125 -0.453125 0.375q-0.15625 0.234375 -0.15625 0.53125q0 0.453125 0.34375 0.765625q0.34375 0.296875 1.015625 0.296875q0.65625 0 1.171875 -0.28125q0.515625 -0.296875 0.765625 -0.796875q0.171875 -0.375 0.171875 -1.140625l0 -0.421875zm3.1156006 -4.59375l0 -1.328125l1.140625 0l0 1.328125l-1.140625 0zm0 7.984375l0 -6.734375l1.140625 0l0 6.734375l-1.140625 0zm2.9610596 0l0 -6.734375l1.03125 0l0 0.953125q0.734375 -1.109375 2.140625 -1.109375q0.609375 0 1.109375 0.21875q0.515625 0.21875 0.765625 0.578125q0.265625 0.34375 0.359375 0.84375q0.0625 0.3125 0.0625 1.109375l0 4.140625l-1.140625 0l0 -4.09375q0 -0.703125 -0.140625 -1.046875q-0.125 -0.34375 -0.46875 -0.546875q-0.328125 -0.21875 -0.78125 -0.21875q-0.734375 0 -1.265625 0.46875q-0.53125 0.453125 -0.53125 1.75l0 3.6875l-1.140625 0zm12.021851 -2.171875l1.1875 0.140625q-0.28125 1.046875 -1.046875 1.625q-0.75 0.5625 -1.921875 0.5625q-1.484375 0 -2.359375 -0.90625q-0.859375 -0.921875 -0.859375 -2.5625q0 -1.703125 0.875 -2.640625q0.890625 -0.9375 2.28125 -0.9375q1.359375 0 2.203125 0.921875q0.859375 0.921875 0.859375 2.578125q0 0.109375 0 0.3125l-5.03125 0q0.0625 1.109375 0.625 1.703125q0.5625 0.59375 1.40625 0.59375q0.640625 0 1.078125 -0.328125q0.453125 -0.34375 0.703125 -1.0625zm-3.75 -1.84375l3.765625 0q-0.078125 -0.859375 -0.4375 -1.28125q-0.546875 -0.65625 -1.40625 -0.65625q-0.796875 0 -1.328125 0.53125q-0.53125 0.515625 -0.59375 1.40625zm6.5374756 4.015625l0 -6.734375l1.03125 0l0 1.015625q0.390625 -0.71875 0.71875 -0.9375q0.34375 -0.234375 0.734375 -0.234375q0.578125 0 1.171875 0.359375l-0.390625 1.0625q-0.421875 -0.25 -0.828125 -0.25q-0.375 0 -0.6875 0.234375q-0.296875 0.21875 -0.421875 0.625q-0.1875 0.609375 -0.1875 1.328125l0 3.53125l-1.140625 0z" fill-rule="nonzero"></path></g></svg>

