<?xml version="1.0" encoding="utf-8"?>
<!-- Generator: Adobe Illustrator 17.0.0, SVG Export Plug-In . SVG Version: 6.00 Build 0)  -->
<!DOCTYPE svg PUBLIC "-//W3C//DTD SVG 1.1//EN" "http://www.w3.org/Graphics/SVG/1.1/DTD/svg11.dtd">
<svg version="1.1" id="Layer_1" xmlns="http://www.w3.org/2000/svg" xmlns:xlink="http://www.w3.org/1999/xlink" x="0px" y="0px"
	 width="423.305px" height="94.068px" viewBox="0 0 423.305 94.068" enable-background="new 0 0 423.305 94.068"
	 xml:space="preserve">
<g>
	<path d="M160.047,89.956l-19.74-34.607h-14.743v34.607h-10.495V7.996h25.737c16.617,0,28.611,5.998,28.611,22.989
		c0,12.744-7.246,20.365-18.366,23.239l20.865,35.731L160.047,89.956L160.047,89.956z M125.563,46.852h13.743
		c12.744,0,19.741-5.247,19.741-15.867c0-10.744-6.997-14.617-19.741-14.617h-13.743V46.852z"/>
	<path d="M198.846,27.737c14.867,0,28.111,11.619,28.111,31.984c0,20.115-13.244,31.733-28.111,31.733
		c-14.868,0-28.111-11.618-28.111-31.733C170.735,39.356,183.978,27.737,198.846,27.737z M198.846,82.96
		c10.495,0,17.491-9.37,17.491-23.238c0-13.993-6.997-23.488-17.491-23.488c-10.37,0-17.492,9.495-17.492,23.488
		C181.355,73.589,188.476,82.96,198.846,82.96z"/>
	<path d="M260.388,27.737c7.996,0,13.619,3.373,17.741,7.246l-5.123,6.622c-3.623-3.123-7.371-5.372-12.244-5.372
		c-10.995,0-18.991,9.495-18.991,23.488c0,13.868,7.621,23.238,18.741,23.238c5.748,0,10.62-2.874,14.243-6.122l4.623,6.746
		c-5.498,4.873-12.494,7.871-19.741,7.871c-16.117,0-28.486-11.618-28.486-31.733C231.153,39.356,244.771,27.737,260.388,27.737z"/>
	<path d="M285.849,1h10.12v60.221h0.375l25.862-31.984h11.37l-20.365,24.362l23.113,36.357H325.08l-17.742-29.235l-11.369,13.243
		v15.992h-10.12L285.849,1L285.849,1z"/>
	<path d="M360.335,27.737c15.492,0,24.238,11.119,24.238,28.486c0,2.123-0.125,4.122-0.375,5.622h-40.979
		c0.749,13.118,8.621,21.364,20.24,21.364c5.748,0,10.62-1.874,15.118-4.748l3.623,6.747c-5.247,3.373-11.744,6.246-19.99,6.246
		c-16.242,0-29.11-11.868-29.11-31.733S346.467,27.737,360.335,27.737z M375.578,55.098c0-12.369-5.497-19.24-14.993-19.24
		c-8.496,0-16.242,6.996-17.492,19.24H375.578z"/>
	<path d="M393.695,37.606h-8.996v-7.745l9.496-0.625l1.249-16.992h8.62v16.992h16.367v8.37h-16.367V71.34
		c0,7.496,2.374,11.744,9.37,11.744c2.125,0,4.873-0.874,6.872-1.624l1.999,7.746c-3.374,1.124-7.496,2.248-11.244,2.248
		c-12.994,0-17.366-8.245-17.366-20.239V37.606z"/>
</g>
<g>
	<path fill="#53A3DA" d="M57.329,90.298c0,0,1.943-9.385,10.066-20.65c5.646-3.262,11.308-7.259,16.104-12.054
		c4.434-21.988-2.297-45.579-2.297-45.579s-23.591-6.73-45.578-2.296c-4.797,4.798-8.792,10.46-12.054,16.104
		C12.303,33.945,2.919,35.888,2.919,35.888s7.505,5.153,11.126,11c-1.542,4.448-2.267,7.314-2.267,7.314
		c0.587,2.745,2.324,5.947,4.721,9.178c-1.655,1.312-3.595,2.677-5.703,3.818c-0.252,0.139-0.51,0.272-0.767,0.402
		c1.809,5.967,9.799,13.482,15.619,15.507c0.118-0.233,0.241-0.463,0.366-0.692c1.174-2.165,2.583-4.154,3.927-5.839
		c3.261,2.366,6.448,4.129,9.074,4.861c0,0,2.869-0.724,7.316-2.266C52.176,82.792,57.329,90.298,57.329,90.298z M40.745,70.424
		c-3.347-1.45-7.792-5.02-10.822-8.052c-4.097-4.097-6.317-7.587-7.169-9.759c1.439-4.905,6.967-21.849,17.584-33.24
		c12.804-2.174,26.217,0.163,32.055,1.45c1.286,5.836,3.626,19.252,1.45,32.055C62.522,63.439,45.823,68.931,40.745,70.424z"/>
	<circle fill="#F1606D" cx="51.972" cy="41.246" r="8.769"/>
</g>
</svg>
