<?xml version="1.0" encoding="utf-8"?>
<!-- Generator: Adobe Illustrator 17.0.0, SVG Export Plug-In . SVG Version: 6.00 Build 0)  -->
<!DOCTYPE svg PUBLIC "-//W3C//DTD SVG 1.1//EN" "http://www.w3.org/Graphics/SVG/1.1/DTD/svg11.dtd">
<svg version="1.1" id="Layer_1" xmlns="http://www.w3.org/2000/svg" xmlns:xlink="http://www.w3.org/1999/xlink" x="0px" y="0px"
	 width="423.5px" height="95px" viewBox="-2.307 -2.273 423.5 95" enable-background="new -2.307 -2.273 423.5 95"
	 xml:space="preserve">
<g>
	<path fill="#010101" d="M157.128,88.956l-19.74-34.607h-14.743v34.607H112.15V6.996h25.737c16.617,0,28.611,5.998,28.611,22.989
		c0,12.744-7.246,20.365-18.366,23.239l20.865,35.731L157.128,88.956L157.128,88.956z M122.644,45.852h13.743
		c12.744,0,19.741-5.247,19.741-15.867c0-10.744-6.997-14.617-19.741-14.617h-13.743V45.852z"/>
	<path fill="#010101" d="M195.927,26.737c14.867,0,28.111,11.619,28.111,31.984c0,20.115-13.244,31.733-28.111,31.733
		c-14.868,0-28.111-11.618-28.111-31.733C167.816,38.356,181.059,26.737,195.927,26.737z M195.927,81.96
		c10.495,0,17.491-9.37,17.491-23.238c0-13.993-6.997-23.488-17.491-23.488c-10.37,0-17.492,9.495-17.492,23.488
		C178.436,72.589,185.557,81.96,195.927,81.96z"/>
	<path fill="#010101" d="M257.469,26.737c7.996,0,13.619,3.373,17.741,7.246l-5.123,6.622c-3.623-3.123-7.371-5.372-12.244-5.372
		c-10.995,0-18.991,9.495-18.991,23.488c0,13.868,7.621,23.238,18.741,23.238c5.748,0,10.62-2.874,14.243-6.122l4.623,6.746
		c-5.498,4.873-12.494,7.871-19.741,7.871c-16.117,0-28.486-11.618-28.486-31.733C228.234,38.356,241.852,26.737,257.469,26.737z"/>
	<path fill="#010101" d="M282.93,0h10.12v60.221h0.375l25.862-31.984h11.37l-20.365,24.362l23.113,36.357h-11.244l-17.742-29.235
		L293.05,72.964v15.992h-10.12V0z"/>
	<path fill="#010101" d="M357.416,26.737c15.492,0,24.238,11.119,24.238,28.486c0,2.123-0.125,4.122-0.375,5.622H340.3
		c0.749,13.118,8.621,21.364,20.24,21.364c5.748,0,10.62-1.874,15.118-4.748l3.623,6.747c-5.247,3.373-11.744,6.246-19.99,6.246
		c-16.242,0-29.11-11.868-29.11-31.733S343.548,26.737,357.416,26.737z M372.659,54.098c0-12.369-5.497-19.24-14.993-19.24
		c-8.496,0-16.242,6.996-17.492,19.24H372.659z"/>
	<path fill="#010101" d="M390.776,36.606h-8.996v-7.745l9.496-0.625l1.249-16.992h8.62v16.992h16.367v8.37h-16.367V70.34
		c0,7.496,2.374,11.744,9.37,11.744c2.125,0,4.873-0.874,6.872-1.624l1.999,7.746c-3.374,1.124-7.496,2.248-11.244,2.248
		c-12.994,0-17.366-8.245-17.366-20.239V36.606z"/>
</g>
<g>
	<path fill="#020202" d="M54.41,89.843c0,0,1.943-9.385,10.066-20.65c5.646-3.262,11.308-7.259,16.104-12.054
		c4.434-21.988-2.297-45.579-2.297-45.579S54.692,4.83,32.705,9.264c-4.797,4.798-8.792,10.46-12.054,16.104
		C9.383,33.49,0,35.433,0,35.433s7.505,5.153,11.126,11c-1.542,4.448-2.267,7.314-2.267,7.314c0.587,2.745,2.324,5.947,4.721,9.178
		c-1.655,1.312-3.595,2.677-5.703,3.818c-0.252,0.139-0.51,0.272-0.767,0.402c1.809,5.967,9.799,13.482,15.619,15.507
		c0.118-0.233,0.241-0.463,0.366-0.692c1.174-2.165,2.583-4.154,3.927-5.839c3.261,2.366,6.448,4.129,9.074,4.861
		c0,0,2.869-0.724,7.316-2.266C49.257,82.337,54.41,89.843,54.41,89.843z M37.825,69.969c-3.347-1.45-7.792-5.02-10.822-8.052
		c-4.097-4.097-6.317-7.587-7.169-9.759c1.439-4.905,6.967-21.849,17.584-33.24c12.804-2.174,26.217,0.163,32.055,1.45
		c1.286,5.836,3.626,19.252,1.45,32.055C59.603,62.984,42.904,68.476,37.825,69.969z"/>
	<circle fill="#020202" cx="49.053" cy="40.791" r="8.769"/>
</g>
</svg>
