<?xml version="1.0" standalone="yes"?>

<svg version="1.1" viewBox="0.0 0.0 980.7952755905512 443.6509186351706" fill="none" stroke="none" stroke-linecap="square" stroke-miterlimit="10" xmlns="http://www.w3.org/2000/svg" xmlns:xlink="http://www.w3.org/1999/xlink"><clipPath id="p.0"><path d="m0 0l980.7953 0l0 443.6509l-980.7953 0l0 -443.6509z" clip-rule="nonzero"></path></clipPath><g clip-path="url(#p.0)"><path fill="#000000" fill-opacity="0.0" d="m0 0l980.7953 0l0 443.6509l-980.7953 0z" fill-rule="evenodd"></path><path fill="#000000" fill-opacity="0.0" d="m339.4987 279.2105l0 0c0 -14.777161 11.979279 -26.75644 26.75644 -26.75644l556.06195 0c7.0961914 0 13.901855 2.8189697 18.919617 7.836792c5.0178223 5.0177917 7.836792 11.823395 7.836792 18.919647l0 107.02255c0 14.777161 -11.979248 26.75644 -26.756409 26.75644l-556.06195 0c-14.777161 0 -26.75644 -11.979279 -26.75644 -26.75644z" fill-rule="evenodd"></path><path stroke="#999999" stroke-width="4.0" stroke-linejoin="round" stroke-linecap="butt" stroke-dasharray="16.0,12.0" d="m339.4987 279.2105l0 0c0 -14.777161 11.979279 -26.75644 26.75644 -26.75644l556.06195 0c7.0961914 0 13.901855 2.8189697 18.919617 7.836792c5.0178223 5.0177917 7.836792 11.823395 7.836792 18.919647l0 107.02255c0 14.777161 -11.979248 26.75644 -26.756409 26.75644l-556.06195 0c-14.777161 0 -26.75644 -11.979279 -26.75644 -26.75644z" fill-rule="evenodd"></path><path fill="#000000" fill-opacity="0.0" d="m125.57743 96.20473l432.37796 0l0 73.16536l-432.37796 0z" fill-rule="evenodd"></path><path fill="#000000" d="m138.4993 123.99535l3.109375 0l0.09375 3.609375q1.75 -2.09375 3.4375 -3.03125q1.6875 -0.9375 3.40625 -0.9375q3.046875 0 4.609375 1.984375q1.578125 1.96875 1.46875 5.8593674l-3.4375 0q0.046875 -2.578125 -0.765625 -3.7343674q-0.796875 -1.171875 -2.359375 -1.171875q-0.6875 0 -1.390625 0.25q-0.6875 0.234375 -1.421875 0.78125q-0.734375 0.5312424 -1.5625 1.3749924q-0.8125 0.828125 -1.75 2.03125l0 12.59375l-3.4375 0l0 -19.609367zm38.835938 19.609367l-4.671875 0l-9.140625 -10.515625l0 10.515625l-3.390625 0l0 -27.593742l3.390625 0l0 16.953117l8.8125 -8.968742l4.484375 0l-9.1875 9.046867l9.703125 10.5625zm20.148438 -0.28125q-1.140625 0.296875 -2.375 0.421875q-1.234375 0.140625 -2.5 0.140625q-3.6875 0 -5.515625 -1.671875q-1.8125 -1.671875 -1.8125 -5.140625l0 -10.234367l-5.484375 0l0 -2.84375l5.484375 0l0 -5.390625l3.40625 -0.875l0 6.265625l8.796875 0l0 2.84375l-8.796875 0l0 9.968742q0 2.109375 1.109375 3.15625q1.125 1.046875 3.3125 1.046875q0.9375 0 2.046875 -0.140625q1.125 -0.15625 2.328125 -0.46875l0 2.921875z" fill-rule="nonzero"></path><path fill="#000000" fill-opacity="0.0" d="m352.00262 252.45274l337.63782 0l0 73.16536l-337.63782 0z" fill-rule="evenodd"></path><path fill="#000000" d="m362.237 293.66525l3.46875 -0.546875q0.296875 2.078125 1.625 3.203125q1.34375 1.109375 3.75 1.109375q2.421875 0 3.59375 -0.984375q1.171875 -0.984375 1.171875 -2.3125q0 -1.203125 -1.03125 -1.875q-0.71875 -0.46875 -3.59375 -1.203125q-3.875 -0.96875 -5.375 -1.671875q-1.484375 -0.71875 -2.265625 -1.984375q-0.765625 -1.265625 -0.765625 -2.78125q0 -1.390625 0.640625 -2.5625q0.640625 -1.1875 1.734375 -1.96875q0.8125 -0.609375 2.21875 -1.03125q1.421875 -0.421875 3.046875 -0.421875q2.4375 0 4.28125 0.703125q1.859375 0.703125 2.734375 1.90625q0.875 1.203125 1.203125 3.21875l-3.4375 0.46875q-0.234375 -1.609375 -1.359375 -2.5q-1.109375 -0.90625 -3.171875 -0.90625q-2.421875 0 -3.453125 0.8125q-1.03125 0.796875 -1.03125 1.875q0 0.671875 0.421875 1.21875q0.4375 0.578125 1.359375 0.9375q0.515625 0.203125 3.09375 0.90625q3.734375 1.0 5.203125 1.640625q1.484375 0.625 2.3125 1.84375q0.84375 1.203125 0.84375 3.0q0 1.75 -1.03125 3.3125q-1.015625 1.546875 -2.953125 2.40625q-1.921875 0.84375 -4.375 0.84375q-4.03125 0 -6.15625 -1.671875q-2.125 -1.6875 -2.703125 -4.984375zm21.25 14.171875l-0.390625 -3.296875q1.15625 0.3125 2.015625 0.3125q1.171875 0 1.875 -0.390625q0.703125 -0.390625 1.140625 -1.09375q0.34375 -0.53125 1.078125 -2.609375q0.09375 -0.296875 0.3125 -0.859375l-7.875 -20.796875l3.796875 0l4.3125 12.015625q0.84375 2.28125 1.5 4.8125q0.609375 -2.421875 1.453125 -4.734375l4.4375 -12.09375l3.515625 0l-7.890625 21.109375q-1.28125 3.40625 -1.984375 4.703125q-0.9375 1.734375 -2.15625 2.546875q-1.203125 0.8125 -2.875 0.8125q-1.015625 0 -2.265625 -0.4375zm18.75 -14.171875l3.46875 -0.546875q0.296875 2.078125 1.625 3.203125q1.34375 1.109375 3.75 1.109375q2.421875 0 3.59375 -0.984375q1.171875 -0.984375 1.171875 -2.3125q0 -1.203125 -1.03125 -1.875q-0.71875 -0.46875 -3.59375 -1.203125q-3.875 -0.96875 -5.375 -1.671875q-1.484375 -0.71875 -2.265625 -1.984375q-0.765625 -1.265625 -0.765625 -2.78125q0 -1.390625 0.640625 -2.5625q0.640625 -1.1875 1.734375 -1.96875q0.8125 -0.609375 2.21875 -1.03125q1.421875 -0.421875 3.046875 -0.421875q2.4375 0 4.28125 0.703125q1.859375 0.703125 2.734375 1.90625q0.875 1.203125 1.203125 3.21875l-3.4375 0.46875q-0.234375 -1.609375 -1.359375 -2.5q-1.109375 -0.90625 -3.171875 -0.90625q-2.421875 0 -3.453125 0.8125q-1.03125 0.796875 -1.03125 1.875q0 0.671875 0.421875 1.21875q0.4375 0.578125 1.359375 0.9375q0.515625 0.203125 3.09375 0.90625q3.734375 1.0 5.203125 1.640625q1.484375 0.625 2.3125 1.84375q0.84375 1.203125 0.84375 3.0q0 1.75 -1.03125 3.3125q-1.015625 1.546875 -2.953125 2.40625q-1.921875 0.84375 -4.375 0.84375q-4.03125 0 -6.15625 -1.671875q-2.125 -1.6875 -2.703125 -4.984375zm29.078125 3.046875l0.515625 3.09375q-1.484375 0.328125 -2.65625 0.328125q-1.921875 0 -2.984375 -0.609375q-1.046875 -0.609375 -1.484375 -1.59375q-0.421875 -0.984375 -0.421875 -4.15625l0 -11.9375l-2.578125 0l0 -2.734375l2.578125 0l0 -5.125l3.5 -2.109375l0 7.234375l3.53125 0l0 2.734375l-3.53125 0l0 12.140625q0 1.5 0.1875 1.9375q0.1875 0.421875 0.59375 0.671875q0.421875 0.25 1.203125 0.25q0.59375 0 1.546875 -0.125zm17.644531 -3.546875l3.625 0.453125q-0.859375 3.1875 -3.1875 4.953125q-2.3125 1.75 -5.9375 1.75q-4.546875 0 -7.21875 -2.796875q-2.65625 -2.8125 -2.65625 -7.875q0 -5.234375 2.6875 -8.125q2.703125 -2.890625 7.0 -2.890625q4.15625 0 6.796875 2.84375q2.640625 2.828125 2.640625 7.96875q0 0.3125 -0.03125 0.9375l-15.46875 0q0.203125 3.40625 1.9375 5.234375q1.734375 1.8125 4.34375 1.8125q1.921875 0 3.28125 -1.015625q1.375 -1.015625 2.1875 -3.25zm-11.546875 -5.671875l11.578125 0q-0.234375 -2.625 -1.328125 -3.9375q-1.671875 -2.03125 -4.359375 -2.03125q-2.421875 0 -4.078125 1.625q-1.640625 1.625 -1.8125 4.34375zm19.589844 12.359375l0 -20.75l3.140625 0l0 2.921875q0.984375 -1.53125 2.59375 -2.453125q1.625 -0.9375 3.703125 -0.9375q2.296875 0 3.765625 0.96875q1.484375 0.953125 2.09375 2.671875q2.453125 -3.640625 6.40625 -3.640625q3.078125 0 4.734375 1.71875q1.671875 1.703125 1.671875 5.265625l0 14.234375l-3.5 0l0 -13.0625q0 -2.109375 -0.34375 -3.03125q-0.34375 -0.9375 -1.25 -1.5q-0.890625 -0.578125 -2.09375 -0.578125q-2.1875 0 -3.640625 1.46875q-1.4375 1.453125 -1.4375 4.65625l0 12.046875l-3.515625 0l0 -13.484375q0 -2.34375 -0.859375 -3.515625q-0.859375 -1.171875 -2.8125 -1.171875q-1.484375 0 -2.75 0.78125q-1.265625 0.78125 -1.828125 2.296875q-0.5625 1.5 -0.5625 4.328125l0 10.765625l-3.515625 0zm46.773438 0l0 -2.625q-1.96875 3.09375 -5.796875 3.09375q-2.484375 0 -4.5625 -1.359375q-2.078125 -1.375 -3.21875 -3.828125q-1.140625 -2.453125 -1.140625 -5.640625q0 -3.09375 1.03125 -5.625q1.03125 -2.53125 3.09375 -3.875q2.078125 -1.359375 4.640625 -1.359375q1.875 0 3.328125 0.796875q1.46875 0.796875 2.390625 2.0625l0 -10.28125l3.5 0l0 28.640625l-3.265625 0zm-11.109375 -10.359375q0 3.984375 1.671875 5.96875q1.6875 1.96875 3.96875 1.96875q2.3125 0 3.921875 -1.875q1.609375 -1.890625 1.609375 -5.765625q0 -4.25 -1.640625 -6.234375q-1.640625 -2.0 -4.046875 -2.0q-2.34375 0 -3.921875 1.921875q-1.5625 1.90625 -1.5625 6.015625z" fill-rule="nonzero"></path><path fill="#000000" fill-opacity="0.0" d="m49.209972 86.879265l0 49.98162l64.10538 0" fill-rule="evenodd"></path><path stroke="#000000" stroke-width="4.0" stroke-linejoin="round" stroke-linecap="butt" d="m49.209972 86.879265l0 49.98162l40.10538 0" fill-rule="evenodd"></path><path fill="#000000" stroke="#000000" stroke-width="4.0" stroke-linecap="butt" d="m89.31535 143.46782l18.15239 -6.6069336l-18.15239 -6.6069183z" fill-rule="evenodd"></path><path fill="#000000" fill-opacity="0.0" d="m155.39108 161.37009l0 49.98163l64.10536 0" fill-rule="evenodd"></path><path stroke="#000000" stroke-width="4.0" stroke-linejoin="round" stroke-linecap="butt" d="m155.39108 161.37007l0 49.98163l40.105377 0" fill-rule="evenodd"></path><path fill="#000000" stroke="#000000" stroke-width="4.0" stroke-linecap="butt" d="m195.49646 217.95863l18.15239 -6.6069336l-18.15239 -6.6069183z" fill-rule="evenodd"></path><path fill="#000000" fill-opacity="0.0" d="m384.43832 318.48425l0 49.98163l64.10538 0" fill-rule="evenodd"></path><path stroke="#000000" stroke-width="4.0" stroke-linejoin="round" stroke-linecap="butt" d="m384.43832 318.48425l0 49.98163l40.105347 0" fill-rule="evenodd"></path><path fill="#000000" stroke="#000000" stroke-width="4.0" stroke-linecap="butt" d="m424.54367 375.0728l18.152405 -6.6069336l-18.152405 -6.6069336z" fill-rule="evenodd"></path><path fill="#000000" fill-opacity="0.0" d="m19.175854 21.632545l525.2598 0l0 89.32284l-525.2598 0z" fill-rule="evenodd"></path><path fill="#000000" d="m46.832104 63.67317q0 1.0468788 -0.359375 1.8750038q-0.34375 0.8125 -0.953125 1.453125q-0.609375 0.625 -1.40625 1.078125q-0.796875 0.4375 -1.703125 0.734375q-0.90625 0.296875 -1.875 0.4375q-0.953125 0.140625 -1.875 0.140625q-1.984375 0 -3.65625 -0.1875q-1.671875 -0.171875 -3.265625 -0.5625l0 -3.125q1.71875 0.484375 3.40625 0.75q1.703125 0.25 3.390625 0.25q2.4375 0 3.609375 -0.65625q1.171875 -0.671875 1.171875 -1.9062538q0 -0.53125 -0.1875 -0.953125q-0.1875 -0.421875 -0.671875 -0.796875q-0.484375 -0.375 -1.515625 -0.78125q-1.03125 -0.421875 -2.796875 -0.953125q-1.328125 -0.390625 -2.453125 -0.875q-1.125 -0.5 -1.953125 -1.1875q-0.8125 -0.6875 -1.28125 -1.59375q-0.46875 -0.921875 -0.46875 -2.171875q0 -0.828125 0.375 -1.796875q0.390625 -0.984375 1.296875 -1.8125q0.921875 -0.84375 2.484375 -1.40625q1.5625 -0.5625 3.90625 -0.5625q1.15625 0 2.5625 0.140625q1.40625 0.125 2.921875 0.4375l0 3.015625q-1.59375 -0.390625 -3.03125 -0.5625q-1.4375 -0.1875 -2.484375 -0.1875q-1.28125 0 -2.15625 0.203125q-0.859375 0.1875 -1.40625 0.53125q-0.53125 0.328125 -0.765625 0.796875q-0.234375 0.453125 -0.234375 0.984375q0 0.53125 0.203125 0.96875q0.21875 0.421875 0.765625 0.828125q0.5625 0.390625 1.546875 0.796875q1.0 0.390625 2.609375 0.859375q1.734375 0.515625 2.921875 1.078125q1.203125 0.546875 1.9375 1.234375q0.75 0.671875 1.0625 1.53125q0.328125 0.859375 0.328125 1.953125zm23.898434 -14.25l-6.671875 17.531254q-1.0312462 2.6875 -2.1406212 4.609375q-1.109375 1.9375 -2.421875 3.171875q-1.296875 1.25 -2.859375 1.828125q-1.5625 0.59375 -3.5 0.59375q-0.5 0 -0.921875 -0.015625q-0.40625 -0.015625 -0.890625 -0.0625l0 -3.078125q0.421875 0.046875 0.921875 0.09375q0.515625 0.0625 1.09375 0.0625q0.9375 0 1.734375 -0.28125q0.8125 -0.265625 1.53125 -0.890625q0.734375 -0.609375 1.390625 -1.59375q0.671875 -0.96875 1.296875 -2.359375l-7.828125 -19.609379l3.859375 0l4.96875 12.96875l0.984375 3.0468788l1.140625 -3.1250038l4.593746 -12.890625l3.71875 0zm20.085938 14.25q0 1.0468788 -0.359375 1.8750038q-0.34375 0.8125 -0.953125 1.453125q-0.609375 0.625 -1.40625 1.078125q-0.796875 0.4375 -1.703125 0.734375q-0.90625 0.296875 -1.875 0.4375q-0.953125 0.140625 -1.875 0.140625q-1.984375 0 -3.65625 -0.1875q-1.671875 -0.171875 -3.265625 -0.5625l0 -3.125q1.71875 0.484375 3.40625 0.75q1.703125 0.25 3.390625 0.25q2.4375 0 3.609375 -0.65625q1.171875 -0.671875 1.171875 -1.9062538q0 -0.53125 -0.1875 -0.953125q-0.1875 -0.421875 -0.671875 -0.796875q-0.484375 -0.375 -1.515625 -0.78125q-1.03125 -0.421875 -2.796875 -0.953125q-1.328125 -0.390625 -2.453125 -0.875q-1.125 -0.5 -1.953125 -1.1875q-0.8125 -0.6875 -1.28125 -1.59375q-0.46875 -0.921875 -0.46875 -2.171875q0 -0.828125 0.375 -1.796875q0.390625 -0.984375 1.296875 -1.8125q0.921875 -0.84375 2.484375 -1.40625q1.5625 -0.5625 3.90625 -0.5625q1.15625 0 2.5625 0.140625q1.40625 0.125 2.921875 0.4375l0 3.015625q-1.59375 -0.390625 -3.03125 -0.5625q-1.4375 -0.1875 -2.484375 -0.1875q-1.28125 0 -2.15625 0.203125q-0.859375 0.1875 -1.40625 0.53125q-0.53125 0.328125 -0.765625 0.796875q-0.234375 0.453125 -0.234375 0.984375q0 0.53125 0.203125 0.96875q0.21875 0.421875 0.765625 0.828125q0.5625 0.390625 1.546875 0.796875q1.0 0.390625 2.609375 0.859375q1.734375 0.515625 2.921875 1.078125q1.203125 0.546875 1.9375 1.234375q0.75 0.671875 1.0625 1.53125q0.328125 0.859375 0.328125 1.953125zm22.257812 5.078129q-1.140625 0.296875 -2.375 0.421875q-1.234375 0.140625 -2.5 0.140625q-3.6875 0 -5.515625 -1.671875q-1.8125 -1.671875 -1.8125 -5.140629l0 -10.234375l-5.484375 0l0 -2.84375l5.484375 0l0 -5.390625l3.40625 -0.875l0 6.265625l8.796875 0l0 2.84375l-8.796875 0l0 9.96875q0 2.1093788 1.109375 3.1562538q1.125 1.046875 3.3125 1.046875q0.9375 0 2.046875 -0.140625q1.125 -0.15625 2.328125 -0.46875l0 2.921875zm22.75782 -10.562504q0 0.71875 -0.015625 1.21875q-0.015625 0.484375 -0.0625 0.90625l-13.765633 0q0 3.015625 1.671875 4.625004q1.6875 1.609375 4.8437576 1.609375q0.859375 0 1.71875 -0.0625q0.859375 -0.078125 1.65625 -0.1875q0.8125 -0.125 1.546875 -0.265625q0.734375 -0.140625 1.359375 -0.328125l0 2.796875q-1.390625 0.390625 -3.140625 0.640625q-1.75 0.25 -3.625 0.25q-2.5156326 0 -4.3437576 -0.6875q-1.8125 -0.6875 -2.96875 -1.984375q-1.15625 -1.296875 -1.71875 -3.1875038q-0.5625 -1.890625 -0.5625 -4.265625q0 -2.078125 0.59375 -3.921875q0.609375 -1.84375 1.75 -3.234375q1.140625 -1.40625 2.796875 -2.21875q1.65625 -0.828125 3.765625 -0.828125q2.0625076 0 3.6406326 0.65625q1.578125 0.640625 2.65625 1.828125q1.09375 1.171875 1.640625 2.859375q0.5625 1.6875 0.5625 3.78125zm-3.53125 -0.484375q0.0625 -1.3125 -0.25 -2.390625q-0.3125 -1.09375 -0.96875 -1.875q-0.65625 -0.78125 -1.640625 -1.21875q-0.96875 -0.4375 -2.2656326 -0.4375q-1.109375 0 -2.03125 0.4375q-0.90625 0.421875 -1.578125 1.203125q-0.65625 0.78125 -1.078125 1.875q-0.40625 1.09375 -0.5 2.40625l10.312508 0zm22.945312 11.328129l0 -14.078129q0 -0.921875 -0.078125 -1.5q-0.0625 -0.59375 -0.203125 -0.9375q-0.140625 -0.34375 -0.375 -0.46875q-0.21875 -0.140625 -0.546875 -0.140625q-0.390625 0 -0.734375 0.234375q-0.328125 0.234375 -0.71875 0.765625q-0.375 0.515625 -0.828125 1.390625q-0.453125 0.859375 -1.078125 2.140625l0 12.593754l-3.109375 0l0 -13.718754q0 -1.0625 -0.078125 -1.71875q-0.0625 -0.671875 -0.21875 -1.046875q-0.140625 -0.375 -0.375 -0.5q-0.234375 -0.140625 -0.5625 -0.140625q-0.34375 0 -0.65625 0.203125q-0.3125 0.1875 -0.703125 0.703125q-0.375 0.5 -0.84375 1.375q-0.46875 0.875 -1.109375 2.25l0 12.593754l-3.125 0l0 -19.609379l2.59375 0l0.15625 3.734375q0.5 -1.125 0.984375 -1.90625q0.484375 -0.78125 0.984375 -1.25q0.515625 -0.484375 1.078125 -0.703125q0.578125 -0.234375 1.28125 -0.234375q1.59375 0 2.40625 1.046875q0.828125 1.03125 0.828125 3.203125q0.46875 -1.015625 0.90625 -1.8125q0.453125 -0.796875 0.96875 -1.328125q0.515625 -0.53125 1.140625 -0.8125q0.625 -0.296875 1.453125 -0.296875q3.6875 0 3.6875 5.6875l0 14.281254l-3.125 0zm7.0078125 -9.390629q0 -2.5 0.6875 -4.4375q0.6875 -1.953125 1.9375 -3.28125q1.265625 -1.34375 3.03125 -2.03125q1.765625 -0.703125 3.9375 -0.703125q0.9375 0 1.84375 0.125q0.90625 0.109375 1.796875 0.359375l0 -8.234375l3.40625 0l0 27.593754l-3.046875 0l-0.109375 -3.71875q-1.421875 2.078125 -3.09375 3.078125q-1.65625 1.0 -3.59375 1.0q-1.671875 0 -2.953125 -0.703125q-1.28125 -0.71875 -2.140625 -1.984375q-0.84375 -1.28125 -1.28125 -3.0781288q-0.421875 -1.796875 -0.421875 -3.984375zm3.484375 -0.21875q0 3.546875 1.046875 5.296879q1.046875 1.75 2.953125 1.75q1.296875 0 2.71875 -1.140625q1.4375 -1.15625 3.03125 -3.4218788l0 -9.109375q-0.84375 -0.390625 -1.859375 -0.59375q-1.015625 -0.203125 -2.015625 -0.203125q-2.765625 0 -4.328125 1.796875q-1.546875 1.796875 -1.546875 5.625z" fill-rule="nonzero"></path><path fill="#000000" d="m233.58992 75.76692q-2.328125 -2.9375 -3.9375 -6.875q-1.609375 -3.9375 -1.609375 -8.156254q0 -3.71875 1.203125 -7.125q1.40625 -3.953125 4.34375 -7.875l2.015625 0q-1.890625 3.25 -2.5 4.640625q-0.953125 2.15625 -1.5 4.5q-0.671875 2.921875 -0.671875 5.875q0 7.515629 4.671875 15.015629l-2.015625 0zm5.28125 -6.734375l0 -22.906254l2.8125 0l0 8.21875q1.96875 -2.28125 4.96875 -2.28125q1.84375 0 3.203125 0.734375q1.359375 0.71875 1.9375 2.0q0.59375 1.28125 0.59375 3.71875l0 10.515629l-2.8125 0l0 -10.515629q0 -2.109375 -0.921875 -3.0625q-0.90625 -0.96875 -2.578125 -0.96875q-1.25 0 -2.359375 0.65625q-1.09375 0.640625 -1.5625 1.75q-0.46875 1.109375 -0.46875 3.0625l0 9.078129l-2.8125 0zm16.75 -8.296879q0 -4.609375 2.5624847 -6.828125q2.140625 -1.84375 5.21875 -1.84375q3.421875 0 5.59375 2.25q2.171875 2.234375 2.171875 6.1875q0 3.203125 -0.96875 5.046879q-0.953125 1.828125 -2.796875 2.84375q-1.828125 1.015625 -4.0 1.015625q-3.484375 0 -5.640625 -2.234375q-2.1406097 -2.234375 -2.1406097 -6.437504zm2.8906097 0q0 3.1875 1.390625 4.781254q1.390625 1.578125 3.5 1.578125q2.09375 0 3.484375 -1.59375q1.390625 -1.5937538 1.390625 -4.859379q0 -3.078125 -1.40625 -4.65625q-1.390625 -1.59375 -3.46875 -1.59375q-2.109375 0 -3.5 1.578125q-1.390625 1.578125 -1.390625 4.765625zm14.828125 3.3437538l2.78125 -0.4375038q0.234375 1.6718788 1.296875 2.5625038q1.078125 0.890625 3.0 0.890625q1.9375 0 2.875 -0.78125q0.9375 -0.796875 0.9375 -1.859375q0 -0.9531288 -0.828125 -1.5000038q-0.578125 -0.375 -2.875 -0.953125q-3.09375 -0.78125 -4.296875 -1.34375q-1.1875 -0.578125 -1.8125 -1.578125q-0.609375 -1.015625 -0.609375 -2.234375q0 -1.109375 0.5 -2.046875q0.515625 -0.953125 1.390625 -1.578125q0.65625 -0.484375 1.78125 -0.8125q1.140625 -0.34375 2.4375 -0.34375q1.953125 0 3.421875 0.5625q1.484375 0.5625 2.1875 1.53125q0.703125 0.953125 0.96875 2.5625l-2.75 0.375q-0.1875 -1.28125 -1.09375 -2.0q-0.890625 -0.71875 -2.53125 -0.71875q-1.9375 0 -2.765625 0.640625q-0.828125 0.640625 -0.828125 1.5q0 0.546875 0.34375 0.984375q0.34375 0.453125 1.078125 0.75q0.421875 0.15625 2.484375 0.71875q2.984375 0.796875 4.15625 1.3125q1.1875 0.5 1.859375 1.46875q0.671875 0.96875 0.671875 2.4062538q0 1.40625 -0.828125 2.65625q-0.8125 1.234375 -2.359375 1.921875q-1.546875 0.671875 -3.5 0.671875q-3.234375 0 -4.9375 -1.34375q-1.6875 -1.34375 -2.15625 -3.984375zm23.265625 2.4375l0.40625 2.484375q-1.1875 0.25 -2.125 0.25q-1.53125 0 -2.375 -0.484375q-0.84375 -0.484375 -1.1875 -1.265625q-0.34375 -0.796875 -0.34375 -3.328125l0 -9.546879l-2.0625 0l0 -2.1875l2.0625 0l0 -4.109375l2.796875 -1.6875l0 5.796875l2.828125 0l0 2.1875l-2.828125 0l0 9.703129q0 1.203125 0.140625 1.546875q0.15625 0.34375 0.484375 0.546875q0.34375 0.203125 0.96875 0.203125q0.46875 0 1.234375 -0.109375zm4.59375 9.25l-2.015625 0q4.671875 -7.5 4.671875 -15.015629q0 -2.9375 -0.671875 -5.828125q-0.53125 -2.34375 -1.484375 -4.5q-0.609375 -1.40625 -2.515625 -4.6875l2.015625 0q2.9375 3.921875 4.34375 7.875q1.203125 3.40625 1.203125 7.125q0 4.218754 -1.625 8.156254q-1.609375 3.9375 -3.921875 6.875z" fill-rule="nonzero"></path><path fill="#000000" fill-opacity="0.0" d="m467.32285 331.43307l366.61417 0l0 73.165375l-366.61417 0z" fill-rule="evenodd"></path><path fill="#ff0000" d="m492.0416 378.83307l-0.078125 -2.640625q-1.59375 1.578125 -3.25 2.296875q-1.640625 0.703125 -3.46875 0.703125q-1.671875 0 -2.875 -0.4375q-1.1875 -0.4375 -1.953125 -1.1875q-0.765625 -0.75 -1.140625 -1.765625q-0.359375 -1.015625 -0.359375 -2.203125q0 -2.953125 2.203125 -4.625q2.203125 -1.671875 6.5 -1.671875l4.0625 0l0 -1.71875q0 -1.734375 -1.125 -2.78125q-1.109375 -1.046875 -3.390625 -1.046875q-1.65625 0 -3.28125 0.375q-1.609375 0.375 -3.328125 1.0625l0 -3.078125q0.65625 -0.234375 1.4375 -0.453125q0.796875 -0.21875 1.671875 -0.390625q0.875 -0.1875 1.828125 -0.296875q0.96875 -0.109375 1.9375 -0.109375q1.78125 0 3.203125 0.390625q1.4375 0.390625 2.421875 1.203125q0.984375 0.796875 1.5 2.015625q0.53125 1.203125 0.53125 2.84375l0 13.515625l-3.046875 0zm-0.359375 -8.921875l-4.328125 0q-1.265625 0 -2.1875 0.25q-0.90625 0.25 -1.5 0.71875q-0.578125 0.46875 -0.875 1.125q-0.28125 0.65625 -0.28125 1.46875q0 0.578125 0.171875 1.09375q0.1875 0.515625 0.578125 0.921875q0.390625 0.390625 1.015625 0.625q0.625 0.234375 1.515625 0.234375q1.171875 0 2.6875 -0.703125q1.515625 -0.71875 3.203125 -2.265625l0 -3.46875zm26.523407 -1.234375q0 2.609375 -0.734375 4.5625q-0.734375 1.953125 -2.03125 3.25q-1.28125 1.28125 -3.046875 1.9375q-1.7499695 0.640625 -3.7968445 0.640625q-0.9375 0 -1.875 -0.09375q-0.921875 -0.09375 -1.875 -0.34375l0 8.21875l-3.40625 0l0 -27.625l3.03125 0l0.21875 3.28125q1.453125 -2.015625 3.109375 -2.828125q1.671875 -0.8125 3.609375 -0.8125q1.6718445 0 2.9374695 0.703125q1.28125 0.703125 2.140625 1.984375q0.859375 1.28125 1.28125 3.09375q0.4375 1.796875 0.4375 4.03125zm-3.484375 0.15625q0 -1.546875 -0.234375 -2.828125q-0.21875 -1.296875 -0.703125 -2.203125q-0.484375 -0.921875 -1.25 -1.4375q-0.7655945 -0.53125 -1.8124695 -0.53125q-0.640625 0 -1.3125 0.21875q-0.65625 0.203125 -1.375 0.6875q-0.71875 0.46875 -1.515625 1.265625q-0.78125 0.78125 -1.671875 1.953125l0 9.515625q0.9375 0.390625 1.96875 0.625q1.03125 0.21875 2.03125 0.21875q2.75 0 4.3124695 -1.859375q1.5625 -1.875 1.5625 -5.625zm25.476562 -0.15625q0 2.609375 -0.734375 4.5625q-0.734375 1.953125 -2.03125 3.25q-1.28125 1.28125 -3.046875 1.9375q-1.75 0.640625 -3.796875 0.640625q-0.9375 0 -1.875 -0.09375q-0.921875 -0.09375 -1.875 -0.34375l0 8.21875l-3.40625 0l0 -27.625l3.03125 0l0.21875 3.28125q1.453125 -2.015625 3.109375 -2.828125q1.671875 -0.8125 3.609375 -0.8125q1.671875 0 2.9375 0.703125q1.28125 0.703125 2.140625 1.984375q0.859375 1.28125 1.28125 3.09375q0.4375 1.796875 0.4375 4.03125zm-3.484375 0.15625q0 -1.546875 -0.234375 -2.828125q-0.21875 -1.296875 -0.703125 -2.203125q-0.484375 -0.921875 -1.25 -1.4375q-0.765625 -0.53125 -1.8125 -0.53125q-0.640625 0 -1.3125 0.21875q-0.65625 0.203125 -1.375 0.6875q-0.71875 0.46875 -1.515625 1.265625q-0.78125 0.78125 -1.671875 1.953125l0 9.515625q0.9375 0.390625 1.96875 0.625q1.03125 0.21875 2.03125 0.21875q2.75 0 4.3125 -1.859375q1.5625 -1.875 1.5625 -5.625zm15.3984375 -14.8125l-5.8125 0l0 -2.78125l9.25 0l0 24.765625l5.828125 0l0 2.828125l-15.71875 0l0 -2.828125l6.453125 0l0 -21.984375zm21.992188 8.015625l-5.8125 0l0 -2.8125l9.25 0l0 16.78125l5.828125 0l0 2.828125l-15.71875 0l0 -2.828125l6.453125 0l0 -13.96875zm1.1875 -11.03125q0.5625 0 1.046875 0.203125q0.5 0.203125 0.859375 0.578125q0.359375 0.359375 0.5625 0.84375q0.203125 0.484375 0.203125 1.046875q0 0.546875 -0.203125 1.03125q-0.203125 0.484375 -0.5625 0.859375q-0.359375 0.375 -0.859375 0.578125q-0.484375 0.203125 -1.046875 0.203125q-0.5625 0 -1.0625 -0.203125q-0.484375 -0.203125 -0.84375 -0.578125q-0.359375 -0.375 -0.5625 -0.859375q-0.203125 -0.484375 -0.203125 -1.03125q0 -0.5625 0.203125 -1.046875q0.203125 -0.484375 0.5625 -0.84375q0.359375 -0.375 0.84375 -0.578125q0.5 -0.203125 1.0625 -0.203125zm29.351562 27.109375q-1.328125 0.5 -2.734375 0.75q-1.390625 0.25 -2.875 0.25q-4.640625 0 -7.15625 -2.515625q-2.5 -2.53125 -2.5 -7.375q0 -2.328125 0.71875 -4.21875q0.71875 -1.890625 2.03125 -3.234375q1.3125 -1.359375 3.125 -2.09375q1.8125 -0.734375 4.0 -0.734375q1.53125 0 2.859375 0.21875q1.328125 0.21875 2.53125 0.703125l0 3.25q-1.265625 -0.671875 -2.59375 -0.96875q-1.3125 -0.3125 -2.71875 -0.3125q-1.3125 0 -2.46875 0.5q-1.15625 0.5 -2.046875 1.4375q-0.875 0.9375 -1.390625 2.296875q-0.5 1.34375 -0.5 3.03125q0 3.5625 1.71875 5.328125q1.734375 1.765625 4.8125 1.765625q1.375 0 2.671875 -0.3125q1.3125 -0.3125 2.515625 -0.9375l0 3.171875zm19.351562 0.71875l-0.078125 -2.640625q-1.59375 1.578125 -3.25 2.296875q-1.640625 0.703125 -3.46875 0.703125q-1.671875 0 -2.875 -0.4375q-1.1875 -0.4375 -1.953125 -1.1875q-0.765625 -0.75 -1.140625 -1.765625q-0.359375 -1.015625 -0.359375 -2.203125q0 -2.953125 2.203125 -4.625q2.203125 -1.671875 6.5 -1.671875l4.0625 0l0 -1.71875q0 -1.734375 -1.125 -2.78125q-1.109375 -1.046875 -3.390625 -1.046875q-1.65625 0 -3.28125 0.375q-1.609375 0.375 -3.328125 1.0625l0 -3.078125q0.65625 -0.234375 1.4375 -0.453125q0.796875 -0.21875 1.671875 -0.390625q0.875 -0.1875 1.828125 -0.296875q0.96875 -0.109375 1.9375 -0.109375q1.78125 0 3.203125 0.390625q1.4375 0.390625 2.421875 1.203125q0.984375 0.796875 1.5 2.015625q0.53125 1.203125 0.53125 2.84375l0 13.515625l-3.046875 0zm-0.359375 -8.921875l-4.328125 0q-1.265625 0 -2.1875 0.25q-0.90625 0.25 -1.5 0.71875q-0.578125 0.46875 -0.875 1.125q-0.28125 0.65625 -0.28125 1.46875q0 0.578125 0.171875 1.09375q0.1875 0.515625 0.578125 0.921875q0.390625 0.390625 1.015625 0.625q0.625 0.234375 1.515625 0.234375q1.171875 0 2.6875 -0.703125q1.515625 -0.71875 3.203125 -2.265625l0 -3.46875zm25.554688 8.640625q-1.140625 0.296875 -2.375 0.421875q-1.234375 0.140625 -2.5 0.140625q-3.6875 0 -5.515625 -1.671875q-1.8125 -1.671875 -1.8125 -5.140625l0 -10.234375l-5.484375 0l0 -2.84375l5.484375 0l0 -5.390625l3.40625 -0.875l0 6.265625l8.796875 0l0 2.84375l-8.796875 0l0 9.96875q0 2.109375 1.109375 3.15625q1.125 1.046875 3.3125 1.046875q0.9375 0 2.046875 -0.140625q1.125 -0.15625 2.328125 -0.46875l0 2.921875zm12.8828125 -16.515625l-5.8125 0l0 -2.8125l9.25 0l0 16.78125l5.828125 0l0 2.828125l-15.71875 0l0 -2.828125l6.453125 0l0 -13.96875zm1.1875 -11.03125q0.5625 0 1.046875 0.203125q0.5 0.203125 0.859375 0.578125q0.359375 0.359375 0.5625 0.84375q0.203125 0.484375 0.203125 1.046875q0 0.546875 -0.203125 1.03125q-0.203125 0.484375 -0.5625 0.859375q-0.359375 0.375 -0.859375 0.578125q-0.484375 0.203125 -1.046875 0.203125q-0.5625 0 -1.0625 -0.203125q-0.484375 -0.203125 -0.84375 -0.578125q-0.359375 -0.375 -0.5625 -0.859375q-0.203125 -0.484375 -0.203125 -1.03125q0 -0.5625 0.203125 -1.046875q0.203125 -0.484375 0.5625 -0.84375q0.359375 -0.375 0.84375 -0.578125q0.5 -0.203125 1.0625 -0.203125zm31.195312 17.859375q0 2.296875 -0.65625 4.203125q-0.640625 1.890625 -1.859375 3.25q-1.203125 1.359375 -2.9375 2.125q-1.734375 0.75 -3.953125 0.75q-2.109375 0 -3.78125 -0.65625q-1.65625 -0.65625 -2.828125 -1.921875q-1.15625 -1.28125 -1.78125 -3.15625q-0.609375 -1.875 -0.609375 -4.3125q0 -2.28125 0.640625 -4.171875q0.65625 -1.890625 1.859375 -3.234375q1.21875 -1.359375 2.953125 -2.109375q1.734375 -0.765625 3.9375 -0.765625q2.109375 0 3.78125 0.65625q1.671875 0.65625 2.828125 1.921875q1.171875 1.25 1.78125 3.125q0.625 1.875 0.625 4.296875zm-3.484375 0.15625q0 -1.8125 -0.40625 -3.171875q-0.390625 -1.359375 -1.140625 -2.265625q-0.734375 -0.90625 -1.796875 -1.359375q-1.0625 -0.46875 -2.375 -0.46875q-1.53125 0 -2.609375 0.609375q-1.078125 0.59375 -1.78125 1.59375q-0.6875 0.984375 -1.015625 2.3125q-0.3125 1.3125 -0.3125 2.75q0 1.828125 0.390625 3.203125q0.40625 1.359375 1.140625 2.265625q0.75 0.90625 1.796875 1.375q1.0625 0.453125 2.390625 0.453125q1.515625 0 2.59375 -0.59375q1.09375 -0.609375 1.78125 -1.59375q0.703125 -1.0 1.015625 -2.3125q0.328125 -1.328125 0.328125 -2.796875zm8.3984375 -9.796875l3.03125 0l0.140625 3.15625q0.859375 -1.015625 1.65625 -1.6875q0.796875 -0.671875 1.5625 -1.078125q0.78125 -0.40625 1.578125 -0.578125q0.796875 -0.171875 1.65625 -0.171875q3.03125 0 4.578125 1.796875q1.5625 1.78125 1.5625 5.375l0 12.796875l-3.40625 0l0 -12.515625q0 -2.3125 -0.859375 -3.40625q-0.859375 -1.109375 -2.546875 -1.109375q-0.625 0 -1.234375 0.1875q-0.59375 0.1875 -1.234375 0.640625q-0.640625 0.453125 -1.390625 1.234375q-0.75 0.78125 -1.6875 1.953125l0 13.015625l-3.40625 0l0 -19.609375z" fill-rule="nonzero"></path><path fill="#000000" fill-opacity="0.0" d="m486.97638 283.89108l224.94489 0l0 22.582672l-224.94489 0z" fill-rule="evenodd"></path><path fill="#000000" fill-opacity="0.0" d="m845.5092 412.9895l78.89758 0l0 16.59842l-78.89758 0z" fill-rule="evenodd"></path><path fill="#999999" d="m862.7936 423.61996l1.125 0.140625q-0.171875 1.171875 -0.9375 1.828125q-0.765625 0.65625 -1.859375 0.65625q-1.390625 0 -2.234375 -0.90625q-0.828125 -0.90625 -0.828125 -2.59375q0 -1.09375 0.359375 -1.90625q0.359375 -0.828125 1.09375 -1.234375q0.734375 -0.40625 1.609375 -0.40625q1.09375 0 1.796875 0.5625q0.703125 0.546875 0.890625 1.5625l-1.109375 0.171875q-0.15625 -0.671875 -0.5625 -1.015625q-0.390625 -0.34375 -0.96875 -0.34375q-0.859375 0 -1.40625 0.625q-0.53125 0.609375 -0.53125 1.953125q0 1.359375 0.515625 1.984375q0.515625 0.609375 1.359375 0.609375q0.671875 0 1.125 -0.40625q0.453125 -0.421875 0.5625 -1.28125zm1.8515625 -0.90625q0 -1.875 1.03125 -2.765625q0.875 -0.75 2.125 -0.75q1.390625 0 2.265625 0.90625q0.890625 0.90625 0.890625 2.515625q0 1.296875 -0.390625 2.046875q-0.390625 0.75 -1.140625 1.171875q-0.75 0.40625 -1.625 0.40625q-1.421875 0 -2.296875 -0.90625q-0.859375 -0.90625 -0.859375 -2.625zm1.171875 0q0 1.296875 0.5625 1.953125q0.5625 0.640625 1.421875 0.640625q0.84375 0 1.40625 -0.640625q0.578125 -0.65625 0.578125 -1.984375q0 -1.25 -0.578125 -1.890625q-0.5625 -0.65625 -1.40625 -0.65625q-0.859375 0 -1.421875 0.640625q-0.5625 0.640625 -0.5625 1.9375zm6.6624756 3.375l0 -6.734375l1.03125 0l0 0.953125q0.734375 -1.109375 2.140625 -1.109375q0.609375 0 1.109375 0.21875q0.515625 0.21875 0.765625 0.578125q0.265625 0.34375 0.359375 0.84375q0.0625 0.3125 0.0625 1.109375l0 4.140625l-1.140625 0l0 -4.09375q0 -0.703125 -0.140625 -1.046875q-0.125 -0.34375 -0.46875 -0.546875q-0.328125 -0.21875 -0.78125 -0.21875q-0.734375 0 -1.265625 0.46875q-0.53125 0.453125 -0.53125 1.75l0 3.6875l-1.140625 0zm9.912476 -1.015625l0.15625 1.0q-0.484375 0.109375 -0.859375 0.109375q-0.625 0 -0.96875 -0.203125q-0.34375 -0.203125 -0.484375 -0.515625q-0.140625 -0.328125 -0.140625 -1.34375l0 -3.890625l-0.828125 0l0 -0.875l0.828125 0l0 -1.671875l1.140625 -0.6875l0 2.359375l1.15625 0l0 0.875l-1.15625 0l0 3.953125q0 0.484375 0.0625 0.625q0.0625 0.140625 0.1875 0.21875q0.140625 0.078125 0.390625 0.078125q0.203125 0 0.515625 -0.03125zm5.593567 0.1875q-0.625 0.53125 -1.21875 0.765625q-0.578125 0.21875 -1.25 0.21875q-1.125 0 -1.71875 -0.546875q-0.59375 -0.546875 -0.59375 -1.390625q0 -0.484375 0.21875 -0.890625q0.234375 -0.421875 0.59375 -0.671875q0.375 -0.25 0.828125 -0.375q0.328125 -0.078125 1.015625 -0.171875q1.375 -0.15625 2.03125 -0.390625q0.015625 -0.234375 0.015625 -0.296875q0 -0.703125 -0.328125 -0.984375q-0.4375 -0.390625 -1.296875 -0.390625q-0.8125 0 -1.203125 0.28125q-0.375 0.28125 -0.5625 1.0l-1.109375 -0.140625q0.140625 -0.71875 0.484375 -1.15625q0.359375 -0.453125 1.015625 -0.6875q0.671875 -0.234375 1.53125 -0.234375q0.875 0 1.40625 0.203125q0.546875 0.203125 0.796875 0.515625q0.25 0.296875 0.359375 0.765625q0.046875 0.296875 0.046875 1.0625l0 1.515625q0 1.59375 0.078125 2.015625q0.078125 0.421875 0.28125 0.8125l-1.1875 0q-0.171875 -0.359375 -0.234375 -0.828125zm-0.09375 -2.5625q-0.625 0.265625 -1.859375 0.4375q-0.703125 0.109375 -1.0 0.234375q-0.296875 0.125 -0.453125 0.375q-0.15625 0.234375 -0.15625 0.53125q0 0.453125 0.34375 0.765625q0.34375 0.296875 1.015625 0.296875q0.65625 0 1.171875 -0.28125q0.515625 -0.296875 0.765625 -0.796875q0.171875 -0.375 0.171875 -1.140625l0 -0.421875zm3.1156006 -4.59375l0 -1.328125l1.140625 0l0 1.328125l-1.140625 0zm0 7.984375l0 -6.734375l1.140625 0l0 6.734375l-1.140625 0zm2.9611206 0l0 -6.734375l1.03125 0l0 0.953125q0.734375 -1.109375 2.140625 -1.109375q0.609375 0 1.109375 0.21875q0.515625 0.21875 0.765625 0.578125q0.265625 0.34375 0.359375 0.84375q0.0625 0.3125 0.0625 1.109375l0 4.140625l-1.140625 0l0 -4.09375q0 -0.703125 -0.140625 -1.046875q-0.125 -0.34375 -0.46875 -0.546875q-0.328125 -0.21875 -0.78125 -0.21875q-0.734375 0 -1.265625 0.46875q-0.53125 0.453125 -0.53125 1.75l0 3.6875l-1.140625 0zm12.021851 -2.171875l1.1875 0.140625q-0.28125 1.046875 -1.046875 1.625q-0.75 0.5625 -1.921875 0.5625q-1.484375 0 -2.359375 -0.90625q-0.859375 -0.921875 -0.859375 -2.5625q0 -1.703125 0.875 -2.640625q0.890625 -0.9375 2.28125 -0.9375q1.359375 0 2.203125 0.921875q0.859375 0.921875 0.859375 2.578125q0 0.109375 0 0.3125l-5.03125 0q0.0625 1.109375 0.625 1.703125q0.5625 0.59375 1.40625 0.59375q0.640625 0 1.078125 -0.328125q0.453125 -0.34375 0.703125 -1.0625zm-3.75 -1.84375l3.765625 0q-0.078125 -0.859375 -0.4375 -1.28125q-0.546875 -0.65625 -1.40625 -0.65625q-0.796875 0 -1.328125 0.53125q-0.53125 0.515625 -0.59375 1.40625zm6.5374756 4.015625l0 -6.734375l1.03125 0l0 1.015625q0.390625 -0.71875 0.71875 -0.9375q0.34375 -0.234375 0.734375 -0.234375q0.578125 0 1.171875 0.359375l-0.390625 1.0625q-0.421875 -0.25 -0.828125 -0.25q-0.375 0 -0.6875 0.234375q-0.296875 0.21875 -0.421875 0.625q-0.1875 0.609375 -0.1875 1.328125l0 3.53125l-1.140625 0z" fill-rule="nonzero"></path><path fill="#000000" fill-opacity="0.0" d="m234.5538 173.33597l432.37796 0l0 73.165344l-432.37796 0z" fill-rule="evenodd"></path><path fill="#000000" d="m262.21005 215.37659q0 1.046875 -0.359375 1.875q-0.34375 0.8125 -0.953125 1.453125q-0.609375 0.625 -1.40625 1.078125q-0.796875 0.4375 -1.703125 0.734375q-0.90625 0.296875 -1.875 0.4375q-0.953125 0.140625 -1.875 0.140625q-1.984375 0 -3.65625 -0.1875q-1.671875 -0.171875 -3.265625 -0.5625l0 -3.125q1.71875 0.484375 3.40625 0.75q1.703125 0.25 3.390625 0.25q2.4375 0 3.609375 -0.65625q1.171875 -0.671875 1.171875 -1.90625q0 -0.53125 -0.1875 -0.953125q-0.1875 -0.421875 -0.671875 -0.796875q-0.484375 -0.375 -1.515625 -0.78125q-1.03125 -0.421875 -2.796875 -0.953125q-1.328125 -0.390625 -2.453125 -0.875q-1.125 -0.5 -1.953125 -1.1875q-0.8125 -0.6875 -1.28125 -1.59375q-0.46875 -0.921875 -0.46875 -2.171875q0 -0.828125 0.375 -1.796875q0.390625 -0.984375 1.296875 -1.8125q0.921875 -0.84375 2.484375 -1.40625q1.5625 -0.5625 3.90625 -0.5625q1.15625 0 2.5625 0.140625q1.40625 0.125 2.921875 0.4375l0 3.015625q-1.59375 -0.390625 -3.03125 -0.5625q-1.4375 -0.1875 -2.484375 -0.1875q-1.28125 0 -2.15625 0.203125q-0.859375 0.1875 -1.40625 0.53125q-0.53125 0.328125 -0.765625 0.796875q-0.234375 0.453125 -0.234375 0.984375q0 0.53125 0.203125 0.96875q0.21875 0.421875 0.765625 0.828125q0.5625 0.390625 1.546875 0.796875q1.0 0.390625 2.609375 0.859375q1.734375 0.515625 2.921875 1.078125q1.203125 0.546875 1.9375 1.234375q0.75 0.671875 1.0625 1.53125q0.328125 0.859375 0.328125 1.953125zm23.898438 -14.25l-6.671875 17.53125q-1.03125 2.6875 -2.140625 4.609375q-1.109375 1.9375 -2.421875 3.171875q-1.296875 1.25 -2.859375 1.828125q-1.5625 0.59375 -3.5 0.59375q-0.5 0 -0.921875 -0.015625q-0.40625 -0.015625 -0.890625 -0.0625l0 -3.078125q0.421875 0.046875 0.921875 0.09375q0.515625 0.0625 1.09375 0.0625q0.9375 0 1.734375 -0.28125q0.8125 -0.265625 1.53125 -0.890625q0.734375 -0.609375 1.390625 -1.59375q0.671875 -0.96875 1.296875 -2.359375l-7.828125 -19.609375l3.859375 0l4.96875 12.96875l0.984375 3.046875l1.140625 -3.125l4.59375 -12.890625l3.71875 0zm20.085938 14.25q0 1.046875 -0.359375 1.875q-0.34375 0.8125 -0.953125 1.453125q-0.609375 0.625 -1.40625 1.078125q-0.796875 0.4375 -1.703125 0.734375q-0.90625 0.296875 -1.875 0.4375q-0.953125 0.140625 -1.875 0.140625q-1.984375 0 -3.65625 -0.1875q-1.671875 -0.171875 -3.265625 -0.5625l0 -3.125q1.71875 0.484375 3.40625 0.75q1.703125 0.25 3.390625 0.25q2.4375 0 3.609375 -0.65625q1.171875 -0.671875 1.171875 -1.90625q0 -0.53125 -0.1875 -0.953125q-0.1875 -0.421875 -0.671875 -0.796875q-0.484375 -0.375 -1.515625 -0.78125q-1.03125 -0.421875 -2.796875 -0.953125q-1.328125 -0.390625 -2.453125 -0.875q-1.125 -0.5 -1.953125 -1.1875q-0.8125 -0.6875 -1.28125 -1.59375q-0.46875 -0.921875 -0.46875 -2.171875q0 -0.828125 0.375 -1.796875q0.390625 -0.984375 1.296875 -1.8125q0.921875 -0.84375 2.484375 -1.40625q1.5625 -0.5625 3.90625 -0.5625q1.15625 0 2.5625 0.140625q1.40625 0.125 2.921875 0.4375l0 3.015625q-1.59375 -0.390625 -3.03125 -0.5625q-1.4375 -0.1875 -2.484375 -0.1875q-1.28125 0 -2.15625 0.203125q-0.859375 0.1875 -1.40625 0.53125q-0.53125 0.328125 -0.765625 0.796875q-0.234375 0.453125 -0.234375 0.984375q0 0.53125 0.203125 0.96875q0.21875 0.421875 0.765625 0.828125q0.5625 0.390625 1.546875 0.796875q1.0 0.390625 2.609375 0.859375q1.734375 0.515625 2.921875 1.078125q1.203125 0.546875 1.9375 1.234375q0.75 0.671875 1.0625 1.53125q0.328125 0.859375 0.328125 1.953125zm22.257812 5.078125q-1.140625 0.296875 -2.375 0.421875q-1.234375 0.140625 -2.5 0.140625q-3.6875 0 -5.515625 -1.671875q-1.8125 -1.671875 -1.8125 -5.140625l0 -10.234375l-5.484375 0l0 -2.84375l5.484375 0l0 -5.390625l3.40625 -0.875l0 6.265625l8.796875 0l0 2.84375l-8.796875 0l0 9.96875q0 2.109375 1.109375 3.15625q1.125 1.046875 3.3125 1.046875q0.9375 0 2.046875 -0.140625q1.125 -0.15625 2.328125 -0.46875l0 2.921875zm22.757812 -10.5625q0 0.71875 -0.015625 1.21875q-0.015625 0.484375 -0.0625 0.90625l-13.765625 0q0 3.015625 1.671875 4.625q1.6875 1.609375 4.84375 1.609375q0.859375 0 1.71875 -0.0625q0.859375 -0.078125 1.65625 -0.1875q0.8125 -0.125 1.546875 -0.265625q0.734375 -0.140625 1.359375 -0.328125l0 2.796875q-1.390625 0.390625 -3.140625 0.640625q-1.75 0.25 -3.625 0.25q-2.515625 0 -4.34375 -0.6875q-1.8125 -0.6875 -2.96875 -1.984375q-1.15625 -1.296875 -1.71875 -3.1875q-0.5625 -1.890625 -0.5625 -4.265625q0 -2.078125 0.59375 -3.921875q0.609375 -1.84375 1.75 -3.234375q1.140625 -1.40625 2.796875 -2.21875q1.65625 -0.828125 3.765625 -0.828125q2.0625 0 3.640625 0.65625q1.578125 0.640625 2.65625 1.828125q1.09375 1.171875 1.640625 2.859375q0.5625 1.6875 0.5625 3.78125zm-3.53125 -0.484375q0.0625 -1.3125 -0.25 -2.390625q-0.3125 -1.09375 -0.96875 -1.875q-0.65625 -0.78125 -1.640625 -1.21875q-0.96875 -0.4375 -2.265625 -0.4375q-1.109375 0 -2.03125 0.4375q-0.90625 0.421875 -1.578125 1.203125q-0.65625 0.78125 -1.078125 1.875q-0.40625 1.09375 -0.5 2.40625l10.3125 0zm22.945312 11.328125l0 -14.078125q0 -0.921875 -0.078125 -1.5q-0.0625 -0.59375 -0.203125 -0.9375q-0.140625 -0.34375 -0.375 -0.46875q-0.21875 -0.140625 -0.546875 -0.140625q-0.390625 0 -0.734375 0.234375q-0.328125 0.234375 -0.71875 0.765625q-0.375 0.515625 -0.828125 1.390625q-0.453125 0.859375 -1.078125 2.140625l0 12.59375l-3.109375 0l0 -13.71875q0 -1.0625 -0.078125 -1.71875q-0.0625 -0.671875 -0.21875 -1.046875q-0.140625 -0.375 -0.375 -0.5q-0.234375 -0.140625 -0.5625 -0.140625q-0.34375 0 -0.65625 0.203125q-0.3125 0.1875 -0.703125 0.703125q-0.375 0.5 -0.84375 1.375q-0.46875 0.875 -1.109375 2.25l0 12.59375l-3.125 0l0 -19.609375l2.59375 0l0.15625 3.734375q0.5 -1.125 0.984375 -1.90625q0.484375 -0.78125 0.984375 -1.25q0.515625 -0.484375 1.078125 -0.703125q0.578125 -0.234375 1.28125 -0.234375q1.59375 0 2.40625 1.046875q0.828125 1.03125 0.828125 3.203125q0.46875 -1.015625 0.90625 -1.8125q0.453125 -0.796875 0.96875 -1.328125q0.515625 -0.53125 1.140625 -0.8125q0.625 -0.296875 1.453125 -0.296875q3.6875 0 3.6875 5.6875l0 14.28125l-3.125 0zm7.0078125 -9.390625q0 -2.5 0.6875 -4.4375q0.6875 -1.953125 1.9375 -3.28125q1.265625 -1.34375 3.03125 -2.03125q1.765625 -0.703125 3.9375 -0.703125q0.9375 0 1.84375 0.125q0.90625 0.109375 1.796875 0.359375l0 -8.234375l3.40625 0l0 27.59375l-3.046875 0l-0.109375 -3.71875q-1.421875 2.078125 -3.09375 3.078125q-1.65625 1.0 -3.59375 1.0q-1.671875 0 -2.953125 -0.703125q-1.28125 -0.71875 -2.140625 -1.984375q-0.84375 -1.28125 -1.28125 -3.078125q-0.421875 -1.796875 -0.421875 -3.984375zm3.484375 -0.21875q0 3.546875 1.046875 5.296875q1.046875 1.75 2.953125 1.75q1.296875 0 2.71875 -1.140625q1.4375 -1.15625 3.03125 -3.421875l0 -9.109375q-0.84375 -0.390625 -1.859375 -0.59375q-1.015625 -0.203125 -2.015625 -0.203125q-2.765625 0 -4.328125 1.796875q-1.546875 1.796875 -1.546875 5.625zm33.226562 0.5625l-11.6875 0l0 -3.203125l11.6875 0l0 3.203125zm8.2734375 -10.5625l3.03125 0l0.140625 3.15625q0.859375 -1.015625 1.65625 -1.6875q0.796875 -0.671875 1.5625 -1.078125q0.78125 -0.40625 1.578125 -0.578125q0.796875 -0.171875 1.65625 -0.171875q3.03125 0 4.578125 1.796875q1.5625 1.78125 1.5625 5.375l0 12.796875l-3.40625 0l0 -12.515625q0 -2.3125 -0.859375 -3.40625q-0.859375 -1.109375 -2.546875 -1.109375q-0.625 0 -1.234375 0.1875q-0.59375 0.1875 -1.234375 0.640625q-0.640625 0.453125 -1.390625 1.234375q-0.75 0.78125 -1.6875 1.953125l0 13.015625l-3.40625 0l0 -19.609375zm37.523438 14.25q0 1.046875 -0.359375 1.875q-0.34375 0.8125 -0.953125 1.453125q-0.609375 0.625 -1.40625 1.078125q-0.796875 0.4375 -1.703125 0.734375q-0.90625 0.296875 -1.875 0.4375q-0.953125 0.140625 -1.875 0.140625q-1.984375 0 -3.65625 -0.1875q-1.671875 -0.171875 -3.265625 -0.5625l0 -3.125q1.71875 0.484375 3.40625 0.75q1.703125 0.25 3.390625 0.25q2.4375 0 3.609375 -0.65625q1.171875 -0.671875 1.171875 -1.90625q0 -0.53125 -0.1875 -0.953125q-0.1875 -0.421875 -0.671875 -0.796875q-0.484375 -0.375 -1.515625 -0.78125q-1.03125 -0.421875 -2.796875 -0.953125q-1.328125 -0.390625 -2.453125 -0.875q-1.125 -0.5 -1.953125 -1.1875q-0.8125 -0.6875 -1.28125 -1.59375q-0.46875 -0.921875 -0.46875 -2.171875q0 -0.828125 0.375 -1.796875q0.390625 -0.984375 1.296875 -1.8125q0.921875 -0.84375 2.484375 -1.40625q1.5625 -0.5625 3.90625 -0.5625q1.15625 0 2.5625 0.140625q1.40625 0.125 2.921875 0.4375l0 3.015625q-1.59375 -0.390625 -3.03125 -0.5625q-1.4375 -0.1875 -2.484375 -0.1875q-1.28125 0 -2.15625 0.203125q-0.859375 0.1875 -1.40625 0.53125q-0.53125 0.328125 -0.765625 0.796875q-0.234375 0.453125 -0.234375 0.984375q0 0.53125 0.203125 0.96875q0.21875 0.421875 0.765625 0.828125q0.5625 0.390625 1.546875 0.796875q1.0 0.390625 2.609375 0.859375q1.734375 0.515625 2.921875 1.078125q1.203125 0.546875 1.9375 1.234375q0.75 0.671875 1.0625 1.53125q0.328125 0.859375 0.328125 1.953125zm23.226562 -4.796875q0 2.609375 -0.734375 4.5625q-0.734375 1.953125 -2.03125 3.25q-1.28125 1.28125 -3.046875 1.9375q-1.75 0.640625 -3.796875 0.640625q-0.9375 0 -1.875 -0.09375q-0.921875 -0.09375 -1.875 -0.34375l0 8.21875l-3.40625 0l0 -27.625l3.03125 0l0.21875 3.28125q1.453125 -2.015625 3.109375 -2.828125q1.671875 -0.8125 3.609375 -0.8125q1.671875 0 2.9375 0.703125q1.28125 0.703125 2.140625 1.984375q0.859375 1.28125 1.28125 3.09375q0.4375 1.796875 0.4375 4.03125zm-3.484375 0.15625q0 -1.546875 -0.234375 -2.828125q-0.21875 -1.296875 -0.703125 -2.203125q-0.484375 -0.921875 -1.25 -1.4375q-0.765625 -0.53125 -1.8125 -0.53125q-0.640625 0 -1.3125 0.21875q-0.65625 0.203125 -1.375 0.6875q-0.71875 0.46875 -1.515625 1.265625q-0.78125 0.78125 -1.671875 1.953125l0 9.515625q0.9375 0.390625 1.96875 0.625q1.03125 0.21875 2.03125 0.21875q2.75 0 4.3125 -1.859375q1.5625 -1.875 1.5625 -5.625zm21.304688 10.0l-0.078125 -2.640625q-1.59375 1.578125 -3.25 2.296875q-1.640625 0.703125 -3.46875 0.703125q-1.671875 0 -2.875 -0.4375q-1.1875 -0.4375 -1.953125 -1.1875q-0.765625 -0.75 -1.140625 -1.765625q-0.359375 -1.015625 -0.359375 -2.203125q0 -2.953125 2.203125 -4.625q2.203125 -1.671875 6.5 -1.671875l4.0625 0l0 -1.71875q0 -1.734375 -1.125 -2.78125q-1.109375 -1.046875 -3.390625 -1.046875q-1.65625 0 -3.28125 0.375q-1.609375 0.375 -3.328125 1.0625l0 -3.078125q0.65625 -0.234375 1.4375 -0.453125q0.796875 -0.21875 1.671875 -0.390625q0.875 -0.1875 1.828125 -0.296875q0.96875 -0.109375 1.9375 -0.109375q1.78125 0 3.203125 0.390625q1.4375 0.390625 2.421875 1.203125q0.984375 0.796875 1.5 2.015625q0.53125 1.203125 0.53125 2.84375l0 13.515625l-3.046875 0zm-0.359375 -8.921875l-4.328125 0q-1.265625 0 -2.1875 0.25q-0.90625 0.25 -1.5 0.71875q-0.578125 0.46875 -0.875 1.125q-0.28125 0.65625 -0.28125 1.46875q0 0.578125 0.171875 1.09375q0.1875 0.515625 0.578125 0.921875q0.390625 0.390625 1.015625 0.625q0.625 0.234375 1.515625 0.234375q1.171875 0 2.6875 -0.703125q1.515625 -0.71875 3.203125 -2.265625l0 -3.46875zm27.929718 -10.6875l-2.859375 19.609375l-4.125 0l-2.828125 -8.203125l-0.5625 -2.0l-0.640625 2.109375l-2.71875 8.09375l-4.0000305 0l-2.84375 -19.609375l3.328125 0l1.6406555 13.3125l0.34375 2.96875l0.84375 -2.59375l2.859375 -8.8125l2.4375 0l3.0625 8.703125l0.875 2.59375l0.296875 -2.75l1.53125 -13.421875l3.359375 0zm3.8203125 0l3.03125 0l0.140625 3.15625q0.859375 -1.015625 1.65625 -1.6875q0.796875 -0.671875 1.5625 -1.078125q0.78125 -0.40625 1.578125 -0.578125q0.796875 -0.171875 1.65625 -0.171875q3.03125 0 4.578125 1.796875q1.5625 1.78125 1.5625 5.375l0 12.796875l-3.40625 0l0 -12.515625q0 -2.3125 -0.859375 -3.40625q-0.859375 -1.109375 -2.546875 -1.109375q-0.625 0 -1.234375 0.1875q-0.59375 0.1875 -1.234375 0.640625q-0.640625 0.453125 -1.390625 1.234375q-0.75 0.78125 -1.6875 1.953125l0 13.015625l-3.40625 0l0 -19.609375z" fill-rule="nonzero"></path><path fill="#000000" fill-opacity="0.0" d="m264.36746 238.50131l0 49.98163l64.10538 0" fill-rule="evenodd"></path><path stroke="#000000" stroke-width="4.0" stroke-linejoin="round" stroke-linecap="butt" d="m264.36746 238.50131l0 49.98163l40.105377 0" fill-rule="evenodd"></path><path fill="#000000" stroke="#000000" stroke-width="4.0" stroke-linecap="butt" d="m304.47284 295.08987l18.152374 -6.6069336l-18.152374 -6.6069336z" fill-rule="evenodd"></path><path fill="#000000" fill-opacity="0.0" d="m650.62994 331.43307l-114.86615 -34.80313" fill-rule="evenodd"></path><path stroke="#93c47d" stroke-width="1.0" stroke-linejoin="round" stroke-linecap="butt" d="m650.62994 331.43307l-109.12396 -33.063324" fill-rule="evenodd"></path><path fill="#93c47d" stroke="#93c47d" stroke-width="1.0" stroke-linecap="butt" d="m541.9849 296.78897l-4.8220825 0.26486206l3.8641968 2.8966675z" fill-rule="evenodd"></path><path fill="#000000" fill-opacity="0.0" d="m438.36484 271.32547l-69.5748 -40.472458" fill-rule="evenodd"></path><path stroke="#93c47d" stroke-width="1.0" stroke-linejoin="round" stroke-linecap="butt" d="m438.36484 271.32547l-64.38849 -37.45552" fill-rule="evenodd"></path><path fill="#93c47d" stroke="#93c47d" stroke-width="1.0" stroke-linecap="butt" d="m374.8069 232.44223l-4.7532043 -0.854126l3.0921326 3.7095947z" fill-rule="evenodd"></path><path fill="#000000" fill-opacity="0.0" d="m380.17847 189.10498l-201.13385 -110.04724" fill-rule="evenodd"></path><path stroke="#93c47d" stroke-width="1.0" stroke-linejoin="round" stroke-linecap="butt" d="m380.17847 189.10498l-195.8702 -107.16731" fill-rule="evenodd"></path><path fill="#93c47d" stroke="#93c47d" stroke-width="1.0" stroke-linecap="butt" d="m185.10109 80.48864l-4.773987 -0.7292023l3.1883545 3.6272507z" fill-rule="evenodd"></path><path fill="#000000" fill-opacity="0.0" d="m297.96063 110.68241l364.28345 0l0 42.488197l-364.28345 0z" fill-rule="evenodd"></path><path fill="#93c47d" d="m315.82 135.05554q0 0.5 -0.171875 0.890625q-0.15625 0.390625 -0.453125 0.6875q-0.28125 0.296875 -0.671875 0.515625q-0.375 0.21875 -0.8125 0.359375q-0.421875 0.125 -0.875 0.1875q-0.453125 0.078125 -0.890625 0.078125q-0.953125 0 -1.75 -0.09375q-0.78125 -0.078125 -1.546875 -0.265625l0 -1.484375q0.8125 0.234375 1.625 0.359375q0.8125 0.109375 1.609375 0.109375q1.15625 0 1.703125 -0.3125q0.5625 -0.3125 0.5625 -0.890625q0 -0.25 -0.09375 -0.453125q-0.078125 -0.203125 -0.3125 -0.375q-0.234375 -0.1875 -0.71875 -0.375q-0.484375 -0.203125 -1.328125 -0.453125q-0.640625 -0.1875 -1.171875 -0.421875q-0.53125 -0.234375 -0.921875 -0.5625q-0.390625 -0.328125 -0.609375 -0.765625q-0.21875 -0.4375 -0.21875 -1.03125q0 -0.390625 0.171875 -0.84375q0.1875 -0.46875 0.625 -0.859375q0.4375 -0.40625 1.171875 -0.671875q0.75 -0.265625 1.859375 -0.265625q0.546875 0 1.21875 0.0625q0.671875 0.0625 1.390625 0.203125l0 1.4375q-0.765625 -0.171875 -1.453125 -0.265625q-0.671875 -0.09375 -1.171875 -0.09375q-0.609375 0 -1.03125 0.09375q-0.40625 0.09375 -0.65625 0.265625q-0.25 0.15625 -0.375 0.375q-0.109375 0.21875 -0.109375 0.46875q0 0.25 0.09375 0.453125q0.109375 0.203125 0.375 0.390625q0.265625 0.1875 0.734375 0.390625q0.46875 0.1875 1.234375 0.40625q0.828125 0.234375 1.390625 0.5q0.5625 0.265625 0.90625 0.59375q0.359375 0.328125 0.515625 0.734375q0.15625 0.40625 0.15625 0.921875zm2.4135437 -1.921875q0 -1.1875 0.3125 -2.109375q0.328125 -0.921875 0.921875 -1.546875q0.609375 -0.640625 1.4375 -0.96875q0.84375 -0.328125 1.875 -0.328125q0.453125 0 0.875 0.0625q0.4375 0.046875 0.859375 0.171875l0 -3.9218826l1.625 0l0 13.109383l-1.453125 0l-0.0625 -1.765625q-0.671875 0.984375 -1.46875 1.46875q-0.78125 0.46875 -1.703125 0.46875q-0.796875 0 -1.40625 -0.328125q-0.59375 -0.34375 -1.0 -0.953125q-0.40625 -0.609375 -0.609375 -1.453125q-0.203125 -0.859375 -0.203125 -1.90625zm1.640625 -0.09375q0 1.6875 0.5 2.515625q0.5 0.828125 1.40625 0.828125q0.609375 0 1.296875 -0.546875q0.6875 -0.546875 1.4375 -1.625l0 -4.3125q-0.40625 -0.1875 -0.890625 -0.28125q-0.484375 -0.109375 -0.953125 -0.109375q-1.3125 0 -2.0625 0.859375q-0.734375 0.84375 -0.734375 2.671875zm18.054169 8.359375l-10.453125 0l0 -1.328125l10.453125 0l0 1.328125zm1.2885437 -13.109375l1.4375 0l0.0625 1.5q0.40625 -0.484375 0.78125 -0.796875q0.390625 -0.328125 0.75 -0.515625q0.375 -0.203125 0.75 -0.28125q0.390625 -0.078125 0.796875 -0.078125q1.4375 0 2.171875 0.859375q0.734375 0.84375 0.734375 2.546875l0 6.078125l-1.609375 0l0 -5.953125q0 -1.09375 -0.40625 -1.609375q-0.40625 -0.53125 -1.21875 -0.53125q-0.296875 0 -0.578125 0.09375q-0.28125 0.09375 -0.59375 0.3125q-0.296875 0.203125 -0.65625 0.578125q-0.359375 0.375 -0.8125 0.9375l0 6.171875l-1.609375 0l0 -9.3125zm18.366669 4.578125q0 1.09375 -0.3125 2.0q-0.296875 0.890625 -0.875 1.546875q-0.578125 0.640625 -1.40625 1.0q-0.828125 0.359375 -1.875 0.359375q-1.0 0 -1.796875 -0.3125q-0.78125 -0.3125 -1.34375 -0.90625q-0.546875 -0.609375 -0.84375 -1.5q-0.28125 -0.890625 -0.28125 -2.0625q0 -1.078125 0.296875 -1.96875q0.3125 -0.90625 0.875 -1.546875q0.578125 -0.640625 1.40625 -1.0q0.828125 -0.359375 1.875 -0.359375q1.0 0 1.796875 0.3125q0.796875 0.3125 1.34375 0.921875q0.5625 0.59375 0.84375 1.484375q0.296875 0.890625 0.296875 2.03125zm-1.65625 0.078125q0 -0.859375 -0.1875 -1.5q-0.1875 -0.65625 -0.546875 -1.078125q-0.34375 -0.4375 -0.859375 -0.65625q-0.5 -0.21875 -1.125 -0.21875q-0.71875 0 -1.234375 0.28125q-0.515625 0.28125 -0.84375 0.765625q-0.328125 0.46875 -0.484375 1.09375q-0.15625 0.625 -0.15625 1.3125q0 0.859375 0.1875 1.515625q0.203125 0.640625 0.546875 1.078125q0.359375 0.421875 0.859375 0.640625q0.5 0.21875 1.125 0.21875q0.734375 0 1.25 -0.28125q0.515625 -0.28125 0.84375 -0.75q0.328125 -0.46875 0.46875 -1.09375q0.15625 -0.640625 0.15625 -1.328125zm11.304169 4.53125q-0.546875 0.140625 -1.125 0.1875q-0.578125 0.0625 -1.1875 0.0625q-1.75 0 -2.625 -0.78125q-0.859375 -0.796875 -0.859375 -2.4375l0 -4.859375l-2.609375 0l0 -1.359375l2.609375 0l0 -2.5625076l1.625 -0.421875l0 2.9843826l4.171875 0l0 1.359375l-4.171875 0l0 4.71875q0 1.0 0.53125 1.5q0.53125 0.5 1.5625 0.5q0.453125 0 0.984375 -0.0625q0.53125 -0.078125 1.09375 -0.21875l0 1.390625zm5.9291687 -7.859375l-2.75 0l0 -1.328125l4.390625 0l0 7.96875l2.765625 0l0 1.34375l-7.46875 0l0 -1.34375l3.0625 0l0 -6.640625zm0.5625 -5.2343826q0.28125 0 0.5 0.09375q0.234375 0.09375 0.40625 0.28125q0.171875 0.171875 0.265625 0.40625q0.109375 0.21875 0.109375 0.484375q0 0.265625 -0.109375 0.5q-0.09375 0.234375 -0.265625 0.40625q-0.171875 0.171875 -0.40625 0.28125q-0.21875 0.09375 -0.5 0.09375q-0.265625 0 -0.5 -0.09375q-0.234375 -0.109375 -0.40625 -0.28125q-0.171875 -0.171875 -0.265625 -0.40625q-0.09375 -0.234375 -0.09375 -0.5q0 -0.265625 0.09375 -0.484375q0.09375 -0.234375 0.265625 -0.40625q0.171875 -0.1875 0.40625 -0.28125q0.234375 -0.09375 0.5 -0.09375zm14.788544 1.609375q-1.265625 -0.265625 -2.1875 -0.265625q-2.1875 0 -2.1875 2.2812576l0 1.640625l4.09375 0l0 1.34375l-4.09375 0l0 6.609375l-1.640625 0l0 -6.609375l-2.984375 0l0 -1.34375l2.984375 0l0 -1.546875q0 -3.7187576 3.875 -3.7187576q0.96875 0 2.140625 0.21875l0 1.390625zm-9.75 2.2968826l0 0zm20.022919 0l-3.171875 8.328125q-0.484375 1.265625 -1.015625 2.1875q-0.515625 0.921875 -1.140625 1.5q-0.625 0.59375 -1.375 0.875q-0.734375 0.28125 -1.65625 0.28125q-0.234375 0 -0.4375 -0.015625q-0.1875 0 -0.421875 -0.015625l0 -1.46875q0.203125 0.03125 0.4375 0.046875q0.25 0.03125 0.515625 0.03125q0.453125 0 0.828125 -0.140625q0.390625 -0.125 0.734375 -0.421875q0.34375 -0.28125 0.65625 -0.75q0.3125 -0.46875 0.609375 -1.125l-3.71875 -9.3125l1.84375 0l2.359375 6.15625l0.46875 1.453125l0.53125 -1.484375l2.1875 -6.125l1.765625 0z" fill-rule="nonzero"></path><path fill="#000000" fill-opacity="0.0" d="m422.74014 214.5853l487.43307 0l0 42.48819l-487.43307 0z" fill-rule="evenodd"></path><path fill="#93c47d" d="m440.59952 238.95842q0 0.5 -0.171875 0.890625q-0.15625 0.390625 -0.453125 0.6875q-0.28125 0.296875 -0.671875 0.515625q-0.375 0.21875 -0.8125 0.359375q-0.421875 0.125 -0.875 0.1875q-0.453125 0.078125 -0.890625 0.078125q-0.953125 0 -1.75 -0.09375q-0.78125 -0.078125 -1.546875 -0.265625l0 -1.484375q0.8125 0.234375 1.625 0.359375q0.8125 0.109375 1.609375 0.109375q1.15625 0 1.703125 -0.3125q0.5625 -0.3125 0.5625 -0.890625q0 -0.25 -0.09375 -0.453125q-0.078125 -0.203125 -0.3125 -0.375q-0.234375 -0.1875 -0.71875 -0.375q-0.484375 -0.203125 -1.328125 -0.453125q-0.640625 -0.1875 -1.171875 -0.421875q-0.53125 -0.234375 -0.921875 -0.5625q-0.390625 -0.328125 -0.609375 -0.765625q-0.21875 -0.4375 -0.21875 -1.03125q0 -0.390625 0.171875 -0.84375q0.1875 -0.46875 0.625 -0.859375q0.4375 -0.40625 1.171875 -0.671875q0.75 -0.265625 1.859375 -0.265625q0.546875 0 1.21875 0.0625q0.671875 0.0625 1.390625 0.203125l0 1.4375q-0.765625 -0.171875 -1.453125 -0.265625q-0.671875 -0.09375 -1.171875 -0.09375q-0.609375 0 -1.03125 0.09375q-0.40625 0.09375 -0.65625 0.265625q-0.25 0.15625 -0.375 0.375q-0.109375 0.21875 -0.109375 0.46875q0 0.25 0.09375 0.453125q0.109375 0.203125 0.375 0.390625q0.265625 0.1875 0.734375 0.390625q0.46875 0.1875 1.234375 0.40625q0.828125 0.234375 1.390625 0.5q0.5625 0.265625 0.90625 0.59375q0.359375 0.328125 0.515625 0.734375q0.15625 0.40625 0.15625 0.921875zm2.4135437 -1.921875q0 -1.1875 0.3125 -2.109375q0.328125 -0.921875 0.921875 -1.546875q0.609375 -0.640625 1.4375 -0.96875q0.84375 -0.328125 1.875 -0.328125q0.453125 0 0.875 0.0625q0.4375 0.046875 0.859375 0.171875l0 -3.921875l1.625 0l0 13.109375l-1.453125 0l-0.0625 -1.765625q-0.671875 0.984375 -1.46875 1.46875q-0.78125 0.46875 -1.703125 0.46875q-0.796875 0 -1.40625 -0.328125q-0.59375 -0.34375 -1.0 -0.953125q-0.40625 -0.609375 -0.609375 -1.453125q-0.203125 -0.859375 -0.203125 -1.90625zm1.640625 -0.09375q0 1.6875 0.5 2.515625q0.5 0.828125 1.40625 0.828125q0.609375 0 1.296875 -0.546875q0.6875 -0.546875 1.4375 -1.625l0 -4.3125q-0.40625 -0.1875 -0.890625 -0.28125q-0.484375 -0.109375 -0.953125 -0.109375q-1.3125 0 -2.0625 0.859375q-0.734375 0.84375 -0.734375 2.671875zm18.054169 8.359375l-10.453125 0l0 -1.328125l10.453125 0l0 1.328125zm1.2885437 -13.109375l1.4375 0l0.0625 1.5q0.40625 -0.484375 0.78125 -0.796875q0.390625 -0.328125 0.75 -0.515625q0.375 -0.203125 0.75 -0.28125q0.390625 -0.078125 0.796875 -0.078125q1.4375 0 2.171875 0.859375q0.734375 0.84375 0.734375 2.546875l0 6.078125l-1.609375 0l0 -5.953125q0 -1.09375 -0.40625 -1.609375q-0.40625 -0.53125 -1.21875 -0.53125q-0.296875 0 -0.578125 0.09375q-0.28125 0.09375 -0.59375 0.3125q-0.296875 0.203125 -0.65625 0.578125q-0.359375 0.375 -0.8125 0.9375l0 6.171875l-1.609375 0l0 -9.3125zm18.366669 4.578125q0 1.09375 -0.3125 2.0q-0.296875 0.890625 -0.875 1.546875q-0.578125 0.640625 -1.40625 1.0q-0.828125 0.359375 -1.875 0.359375q-1.0 0 -1.796875 -0.3125q-0.78125 -0.3125 -1.34375 -0.90625q-0.546875 -0.609375 -0.84375 -1.5q-0.28125 -0.890625 -0.28125 -2.0625q0 -1.078125 0.296875 -1.96875q0.3125 -0.90625 0.875 -1.546875q0.578125 -0.640625 1.40625 -1.0q0.828125 -0.359375 1.875 -0.359375q1.0 0 1.796875 0.3125q0.796875 0.3125 1.34375 0.921875q0.5625 0.59375 0.84375 1.484375q0.296875 0.890625 0.296875 2.03125zm-1.65625 0.078125q0 -0.859375 -0.1875 -1.5q-0.1875 -0.65625 -0.546875 -1.078125q-0.34375 -0.4375 -0.859375 -0.65625q-0.5 -0.21875 -1.125 -0.21875q-0.71875 0 -1.234375 0.28125q-0.515625 0.28125 -0.84375 0.765625q-0.328125 0.46875 -0.484375 1.09375q-0.15625 0.625 -0.15625 1.3125q0 0.859375 0.1875 1.515625q0.203125 0.640625 0.546875 1.078125q0.359375 0.421875 0.859375 0.640625q0.5 0.21875 1.125 0.21875q0.734375 0 1.25 -0.28125q0.515625 -0.28125 0.84375 -0.75q0.328125 -0.46875 0.46875 -1.09375q0.15625 -0.640625 0.15625 -1.328125zm11.304169 4.53125q-0.546875 0.140625 -1.125 0.1875q-0.578125 0.0625 -1.1875 0.0625q-1.75 0 -2.625 -0.78125q-0.859375 -0.796875 -0.859375 -2.4375l0 -4.859375l-2.609375 0l0 -1.359375l2.609375 0l0 -2.5625l1.625 -0.421875l0 2.984375l4.171875 0l0 1.359375l-4.171875 0l0 4.71875q0 1.0 0.53125 1.5q0.53125 0.5 1.5625 0.5q0.453125 0 0.984375 -0.0625q0.53125 -0.078125 1.09375 -0.21875l0 1.390625zm5.9291687 -7.859375l-2.75 0l0 -1.328125l4.390625 0l0 7.96875l2.765625 0l0 1.34375l-7.46875 0l0 -1.34375l3.0625 0l0 -6.640625zm0.5625 -5.234375q0.28125 0 0.5 0.09375q0.234375 0.09375 0.40625 0.28125q0.171875 0.171875 0.265625 0.40625q0.109375 0.21875 0.109375 0.484375q0 0.265625 -0.109375 0.5q-0.09375 0.234375 -0.265625 0.40625q-0.171875 0.171875 -0.40625 0.28125q-0.21875 0.09375 -0.5 0.09375q-0.265625 0 -0.5 -0.09375q-0.234375 -0.109375 -0.40625 -0.28125q-0.171875 -0.171875 -0.265625 -0.40625q-0.09375 -0.234375 -0.09375 -0.5q0 -0.265625 0.09375 -0.484375q0.09375 -0.234375 0.265625 -0.40625q0.171875 -0.1875 0.40625 -0.28125q0.234375 -0.09375 0.5 -0.09375zm14.788544 1.609375q-1.265625 -0.265625 -2.1875 -0.265625q-2.1875 0 -2.1875 2.28125l0 1.640625l4.09375 0l0 1.34375l-4.09375 0l0 6.609375l-1.640625 0l0 -6.609375l-2.984375 0l0 -1.34375l2.984375 0l0 -1.546875q0 -3.71875 3.875 -3.71875q0.96875 0 2.140625 0.21875l0 1.390625zm-9.75 2.296875l0 0zm20.02295 0l-3.171875 8.328125q-0.484375 1.265625 -1.015625 2.1875q-0.515625 0.921875 -1.140625 1.5q-0.625 0.59375 -1.375 0.875q-0.734375 0.28125 -1.65625 0.28125q-0.234375 0 -0.4375 -0.015625q-0.1875 0 -0.421875 -0.015625l0 -1.46875q0.203125 0.03125 0.4375 0.046875q0.25 0.03125 0.515625 0.03125q0.453125 0 0.828125 -0.140625q0.390625 -0.125 0.734375 -0.421875q0.34375 -0.28125 0.65625 -0.75q0.3125 -0.46875 0.609375 -1.125l-3.71875 -9.3125l1.84375 0l2.359375 6.15625l0.46875 1.453125l0.53125 -1.484375l2.1875 -6.125l1.765625 0zm17.811462 13.203125q-4.28125 -3.953125 -4.28125 -8.75q0 -1.125 0.21875 -2.234375q0.234375 -1.125 0.734375 -2.25q0.515625 -1.125 1.34375 -2.234375q0.828125 -1.125 2.015625 -2.234375l0.9375 0.953125q-3.59375 3.546875 -3.59375 7.875q0 2.15625 0.90625 4.140625q0.90625 1.984375 2.6875 3.75l-0.96875 0.984375zm13.304138 -13.203125l-1.34375 9.3125l-1.96875 0l-1.34375 -3.890625l-0.265625 -0.953125l-0.3125 1.0l-1.28125 3.84375l-1.90625 0l-1.34375 -9.3125l1.578125 0l0.78125 6.328125l0.15625 1.40625l0.40625 -1.234375l1.359375 -4.1875l1.15625 0l1.453125 4.140625l0.421875 1.21875l0.140625 -1.296875l0.71875 -6.375l1.59375 0zm9.116699 9.3125l-1.609375 0l0 -5.953125q0 -1.0625 -0.40625 -1.59375q-0.40625 -0.546875 -1.15625 -0.546875q-0.328125 0 -0.609375 0.09375q-0.28125 0.09375 -0.59375 0.3125q-0.296875 0.203125 -0.65625 0.578125q-0.359375 0.375 -0.84375 0.9375l0 6.171875l-1.609375 0l0 -13.109375l1.609375 0l0 3.796875l-0.046875 1.46875q0.375 -0.453125 0.734375 -0.765625q0.375 -0.3125 0.734375 -0.5q0.375 -0.203125 0.75 -0.28125q0.390625 -0.09375 0.796875 -0.09375q1.390625 0 2.140625 0.859375q0.765625 0.84375 0.765625 2.546875l0 6.078125zm10.647888 -5.15625q0 0.34375 -0.015625 0.578125q-0.015625 0.234375 -0.03125 0.4375l-6.53125 0q0 1.4375 0.796875 2.203125q0.796875 0.765625 2.296875 0.765625q0.40625 0 0.8125 -0.03125q0.40625 -0.046875 0.78125 -0.09375q0.390625 -0.0625 0.734375 -0.125q0.34375 -0.078125 0.640625 -0.15625l0 1.328125q-0.65625 0.1875 -1.484375 0.296875q-0.828125 0.125 -1.71875 0.125q-1.203125 0 -2.0625 -0.328125q-0.859375 -0.328125 -1.421875 -0.9375q-0.546875 -0.625 -0.8125 -1.515625q-0.265625 -0.890625 -0.265625 -2.03125q0 -0.984375 0.28125 -1.859375q0.296875 -0.875 0.828125 -1.53125q0.546875 -0.671875 1.328125 -1.0625q0.796875 -0.390625 1.796875 -0.390625q0.984375 0 1.734375 0.3125q0.75 0.296875 1.265625 0.859375q0.515625 0.5625 0.78125 1.375q0.265625 0.796875 0.265625 1.78125zm-1.6875 -0.21875q0.03125 -0.625 -0.125 -1.140625q-0.140625 -0.515625 -0.453125 -0.890625q-0.3125 -0.375 -0.78125 -0.578125q-0.453125 -0.203125 -1.078125 -0.203125q-0.515625 0 -0.953125 0.203125q-0.4375 0.203125 -0.765625 0.578125q-0.3125 0.359375 -0.5 0.890625q-0.1875 0.515625 -0.234375 1.140625l4.890625 0zm4.069824 -3.9375l1.4375 0l0.0625 1.5q0.40625 -0.484375 0.78125 -0.796875q0.390625 -0.328125 0.75 -0.515625q0.375 -0.203125 0.75 -0.28125q0.390625 -0.078125 0.796875 -0.078125q1.4375 0 2.171875 0.859375q0.734375 0.84375 0.734375 2.546875l0 6.078125l-1.609375 0l0 -5.953125q0 -1.09375 -0.40625 -1.609375q-0.40625 -0.53125 -1.21875 -0.53125q-0.296875 0 -0.578125 0.09375q-0.28125 0.09375 -0.59375 0.3125q-0.296875 0.203125 -0.65625 0.578125q-0.359375 0.375 -0.8125 0.9375l0 6.171875l-1.609375 0l0 -9.3125zm20.889587 0l1.484375 0l0.046875 1.71875q0.828125 -1.0 1.625 -1.4375q0.796875 -0.453125 1.625 -0.453125q1.4375 0 2.1875 0.9375q0.75 0.9375 0.6875 2.78125l-1.625 0q0.015625 -1.21875 -0.375 -1.765625q-0.375 -0.5625 -1.109375 -0.5625q-0.328125 0 -0.65625 0.125q-0.328125 0.109375 -0.6875 0.375q-0.34375 0.25 -0.734375 0.65625q-0.390625 0.390625 -0.828125 0.953125l0 5.984375l-1.640625 0l0 -9.3125zm17.757263 4.15625q0 0.34375 -0.015625 0.578125q-0.015625 0.234375 -0.03125 0.4375l-6.53125 0q0 1.4375 0.796875 2.203125q0.796875 0.765625 2.296875 0.765625q0.40625 0 0.8125 -0.03125q0.40625 -0.046875 0.78125 -0.09375q0.390625 -0.0625 0.734375 -0.125q0.34375 -0.078125 0.640625 -0.15625l0 1.328125q-0.65625 0.1875 -1.484375 0.296875q-0.828125 0.125 -1.71875 0.125q-1.203125 0 -2.0625 -0.328125q-0.859375 -0.328125 -1.421875 -0.9375q-0.546875 -0.625 -0.8125 -1.515625q-0.265625 -0.890625 -0.265625 -2.03125q0 -0.984375 0.28125 -1.859375q0.296875 -0.875 0.828125 -1.53125q0.546875 -0.671875 1.328125 -1.0625q0.796875 -0.390625 1.796875 -0.390625q0.984375 0 1.734375 0.3125q0.75 0.296875 1.265625 0.859375q0.515625 0.5625 0.78125 1.375q0.265625 0.796875 0.265625 1.78125zm-1.6875 -0.21875q0.03125 -0.625 -0.125 -1.140625q-0.140625 -0.515625 -0.453125 -0.890625q-0.3125 -0.375 -0.78125 -0.578125q-0.453125 -0.203125 -1.078125 -0.203125q-0.515625 0 -0.953125 0.203125q-0.4375 0.203125 -0.765625 0.578125q-0.3125 0.359375 -0.5 0.890625q-0.1875 0.515625 -0.234375 1.140625l4.890625 0zm10.054199 5.375l-0.03125 -1.25q-0.765625 0.75 -1.546875 1.09375q-0.78125 0.328125 -1.65625 0.328125q-0.796875 0 -1.359375 -0.203125q-0.5625 -0.203125 -0.9375 -0.5625q-0.359375 -0.359375 -0.53125 -0.84375q-0.171875 -0.484375 -0.171875 -1.046875q0 -1.40625 1.046875 -2.1875q1.046875 -0.796875 3.078125 -0.796875l1.9375 0l0 -0.828125q0 -0.8125 -0.53125 -1.3125q-0.53125 -0.5 -1.609375 -0.5q-0.796875 0 -1.5625 0.1875q-0.765625 0.171875 -1.578125 0.484375l0 -1.453125q0.296875 -0.109375 0.671875 -0.21875q0.390625 -0.109375 0.796875 -0.1875q0.421875 -0.078125 0.875 -0.125q0.453125 -0.0625 0.921875 -0.0625q0.84375 0 1.515625 0.1875q0.6875 0.1875 1.15625 0.578125q0.46875 0.375 0.71875 0.953125q0.25 0.5625 0.25 1.34375l0 6.421875l-1.453125 0zm-0.171875 -4.234375l-2.0625 0q-0.59375 0 -1.03125 0.125q-0.4375 0.109375 -0.71875 0.34375q-0.28125 0.21875 -0.421875 0.53125q-0.125 0.296875 -0.125 0.6875q0 0.28125 0.078125 0.53125q0.09375 0.234375 0.28125 0.421875q0.1875 0.1875 0.484375 0.3125q0.296875 0.109375 0.71875 0.109375q0.5625 0 1.28125 -0.34375q0.71875 -0.34375 1.515625 -1.078125l0 -1.640625zm11.679138 3.890625q-0.625 0.234375 -1.296875 0.34375q-0.65625 0.125 -1.359375 0.125q-2.21875 0 -3.40625 -1.1875q-1.1875 -1.203125 -1.1875 -3.5q0 -1.109375 0.34375 -2.0q0.34375 -0.90625 0.953125 -1.546875q0.625 -0.640625 1.484375 -0.984375q0.875 -0.34375 1.90625 -0.34375q0.734375 0 1.359375 0.109375q0.625 0.09375 1.203125 0.3125l0 1.546875q-0.59375 -0.3125 -1.234375 -0.453125q-0.625 -0.15625 -1.28125 -0.15625q-0.625 0 -1.1875 0.25q-0.546875 0.234375 -0.96875 0.6875q-0.40625 0.4375 -0.65625 1.078125q-0.234375 0.640625 -0.234375 1.4375q0 1.6875 0.8125 2.53125q0.828125 0.84375 2.28125 0.84375q0.65625 0 1.265625 -0.140625q0.625 -0.15625 1.203125 -0.453125l0 1.5zm10.507324 0.34375l-1.609375 0l0 -5.953125q0 -1.0625 -0.40625 -1.59375q-0.40625 -0.546875 -1.15625 -0.546875q-0.328125 0 -0.609375 0.09375q-0.28125 0.09375 -0.59375 0.3125q-0.296875 0.203125 -0.65625 0.578125q-0.359375 0.375 -0.84375 0.9375l0 6.171875l-1.609375 0l0 -13.109375l1.609375 0l0 3.796875l-0.046875 1.46875q0.375 -0.453125 0.734375 -0.765625q0.375 -0.3125 0.734375 -0.5q0.375 -0.203125 0.75 -0.28125q0.390625 -0.09375 0.796875 -0.09375q1.390625 0 2.140625 0.859375q0.765625 0.84375 0.765625 2.546875l0 6.078125zm5.944763 -7.984375l-2.75 0l0 -1.328125l4.390625 0l0 7.96875l2.765625 0l0 1.34375l-7.46875 0l0 -1.34375l3.0625 0l0 -6.640625zm0.5625 -5.234375q0.28125 0 0.5 0.09375q0.234375 0.09375 0.40625 0.28125q0.171875 0.171875 0.265625 0.40625q0.109375 0.21875 0.109375 0.484375q0 0.265625 -0.109375 0.5q-0.09375 0.234375 -0.265625 0.40625q-0.171875 0.171875 -0.40625 0.28125q-0.21875 0.09375 -0.5 0.09375q-0.265625 0 -0.5 -0.09375q-0.234375 -0.109375 -0.40625 -0.28125q-0.171875 -0.171875 -0.265625 -0.40625q-0.09375 -0.234375 -0.09375 -0.5q0 -0.265625 0.09375 -0.484375q0.09375 -0.234375 0.265625 -0.40625q0.171875 -0.1875 0.40625 -0.28125q0.234375 -0.09375 0.5 -0.09375zm6.522949 3.90625l1.4375 0l0.0625 1.5q0.40625 -0.484375 0.78125 -0.796875q0.390625 -0.328125 0.75 -0.515625q0.375 -0.203125 0.75 -0.28125q0.390625 -0.078125 0.796875 -0.078125q1.4375 0 2.171875 0.859375q0.734375 0.84375 0.734375 2.546875l0 6.078125l-1.609375 0l0 -5.953125q0 -1.09375 -0.40625 -1.609375q-0.40625 -0.53125 -1.21875 -0.53125q-0.296875 0 -0.578125 0.09375q-0.28125 0.09375 -0.59375 0.3125q-0.296875 0.203125 -0.65625 0.578125q-0.359375 0.375 -0.8125 0.9375l0 6.171875l-1.609375 0l0 -9.3125zm16.960388 1.3125q0.265625 0.328125 0.40625 0.765625q0.140625 0.421875 0.140625 0.921875q0 0.734375 -0.265625 1.328125q-0.265625 0.59375 -0.75 1.03125q-0.46875 0.421875 -1.140625 0.65625q-0.671875 0.234375 -1.484375 0.234375q-0.578125 0 -1.09375 -0.125q-0.515625 -0.125 -0.8125 -0.3125q-0.171875 0.265625 -0.296875 0.5q-0.109375 0.21875 -0.109375 0.515625q0 0.34375 0.328125 0.578125q0.34375 0.234375 0.90625 0.25l2.4375 0.09375q0.703125 0.015625 1.28125 0.1875q0.59375 0.15625 1.015625 0.453125q0.421875 0.296875 0.65625 0.734375q0.25 0.421875 0.25 1.0q0 0.625 -0.28125 1.171875q-0.265625 0.5625 -0.828125 0.984375q-0.5625 0.421875 -1.421875 0.671875q-0.859375 0.25 -2.046875 0.25q-1.140625 0 -1.9375 -0.1875q-0.78125 -0.171875 -1.296875 -0.5q-0.5 -0.3125 -0.734375 -0.75q-0.234375 -0.4375 -0.234375 -0.96875q0 -0.671875 0.3125 -1.1875q0.3125 -0.515625 0.96875 -0.984375q-0.234375 -0.109375 -0.421875 -0.265625q-0.171875 -0.171875 -0.28125 -0.375q-0.109375 -0.203125 -0.171875 -0.421875q-0.046875 -0.21875 -0.046875 -0.4375q0 -0.609375 0.28125 -1.109375q0.28125 -0.5 0.671875 -0.9375q-0.171875 -0.21875 -0.3125 -0.421875q-0.125 -0.203125 -0.234375 -0.4375q-0.09375 -0.234375 -0.140625 -0.5q-0.046875 -0.28125 -0.046875 -0.640625q0 -0.71875 0.25 -1.3125q0.265625 -0.609375 0.75 -1.03125q0.484375 -0.4375 1.15625 -0.671875q0.671875 -0.234375 1.484375 -0.234375q0.34375 0 0.65625 0.046875q0.3125 0.046875 0.5625 0.125l3.375 0l0 1.3125l-1.5 0zm-5.59375 9.34375q0 0.65625 0.6875 0.953125q0.6875 0.3125 1.90625 0.3125q0.765625 0 1.28125 -0.140625q0.53125 -0.140625 0.84375 -0.375q0.328125 -0.21875 0.46875 -0.515625q0.140625 -0.28125 0.140625 -0.59375q0 -0.5625 -0.46875 -0.84375q-0.453125 -0.265625 -1.40625 -0.3125l-2.4375 -0.078125q-0.3125 0.203125 -0.515625 0.390625q-0.1875 0.203125 -0.296875 0.40625q-0.109375 0.203125 -0.15625 0.390625q-0.046875 0.203125 -0.046875 0.40625zm0.484375 -7.609375q0 0.4375 0.140625 0.8125q0.15625 0.375 0.421875 0.640625q0.28125 0.25 0.640625 0.390625q0.359375 0.140625 0.8125 0.140625q0.484375 0 0.859375 -0.15625q0.375 -0.171875 0.625 -0.4375q0.265625 -0.28125 0.390625 -0.640625q0.140625 -0.359375 0.140625 -0.75q0 -0.453125 -0.15625 -0.8125q-0.140625 -0.375 -0.421875 -0.640625q-0.265625 -0.265625 -0.640625 -0.40625q-0.359375 -0.140625 -0.796875 -0.140625q-0.484375 0 -0.859375 0.171875q-0.375 0.15625 -0.640625 0.4375q-0.25 0.265625 -0.390625 0.640625q-0.125 0.359375 -0.125 0.75zm18.452087 1.796875q0 -1.1875 0.3125 -2.109375q0.328125 -0.921875 0.921875 -1.546875q0.609375 -0.640625 1.4375 -0.96875q0.84375 -0.328125 1.875 -0.328125q0.453125 0 0.875 0.0625q0.4375 0.046875 0.859375 0.171875l0 -3.921875l1.625 0l0 13.109375l-1.453125 0l-0.0625 -1.765625q-0.671875 0.984375 -1.46875 1.46875q-0.78125 0.46875 -1.703125 0.46875q-0.796875 0 -1.40625 -0.328125q-0.59375 -0.34375 -1.0 -0.953125q-0.40625 -0.609375 -0.609375 -1.453125q-0.203125 -0.859375 -0.203125 -1.90625zm1.640625 -0.09375q0 1.6875 0.5 2.515625q0.5 0.828125 1.40625 0.828125q0.609375 0 1.296875 -0.546875q0.6875 -0.546875 1.4375 -1.625l0 -4.3125q-0.40625 -0.1875 -0.890625 -0.28125q-0.484375 -0.109375 -0.953125 -0.109375q-1.3125 0 -2.0625 0.859375q-0.734375 0.84375 -0.734375 2.671875zm16.96045 -0.59375q0 0.34375 -0.015625 0.578125q-0.015625 0.234375 -0.03125 0.4375l-6.53125 0q0 1.4375 0.796875 2.203125q0.796875 0.765625 2.296875 0.765625q0.40625 0 0.8125 -0.03125q0.40625 -0.046875 0.78125 -0.09375q0.390625 -0.0625 0.734375 -0.125q0.34375 -0.078125 0.640625 -0.15625l0 1.328125q-0.65625 0.1875 -1.484375 0.296875q-0.828125 0.125 -1.71875 0.125q-1.203125 0 -2.0625 -0.328125q-0.859375 -0.328125 -1.421875 -0.9375q-0.546875 -0.625 -0.8125 -1.515625q-0.265625 -0.890625 -0.265625 -2.03125q0 -0.984375 0.28125 -1.859375q0.296875 -0.875 0.828125 -1.53125q0.546875 -0.671875 1.328125 -1.0625q0.796875 -0.390625 1.796875 -0.390625q0.984375 0 1.734375 0.3125q0.75 0.296875 1.265625 0.859375q0.515625 0.5625 0.78125 1.375q0.265625 0.796875 0.265625 1.78125zm-1.6875 -0.21875q0.03125 -0.625 -0.125 -1.140625q-0.140625 -0.515625 -0.453125 -0.890625q-0.3125 -0.375 -0.78125 -0.578125q-0.453125 -0.203125 -1.078125 -0.203125q-0.515625 0 -0.953125 0.203125q-0.4375 0.203125 -0.765625 0.578125q-0.3125 0.359375 -0.5 0.890625q-0.1875 0.515625 -0.234375 1.140625l4.890625 0zm12.335388 -6.234375q-1.265625 -0.265625 -2.1875 -0.265625q-2.1875 0 -2.1875 2.28125l0 1.640625l4.09375 0l0 1.34375l-4.09375 0l0 6.609375l-1.640625 0l0 -6.609375l-2.984375 0l0 -1.34375l2.984375 0l0 -1.546875q0 -3.71875 3.875 -3.71875q0.96875 0 2.140625 0.21875l0 1.390625zm-9.75 2.296875l0 0zm17.726074 9.3125l-0.03125 -1.25q-0.765625 0.75 -1.546875 1.09375q-0.78125 0.328125 -1.65625 0.328125q-0.796875 0 -1.359375 -0.203125q-0.5625 -0.203125 -0.9375 -0.5625q-0.359375 -0.359375 -0.53125 -0.84375q-0.171875 -0.484375 -0.171875 -1.046875q0 -1.40625 1.046875 -2.1875q1.046875 -0.796875 3.078125 -0.796875l1.9375 0l0 -0.828125q0 -0.8125 -0.53125 -1.3125q-0.53125 -0.5 -1.609375 -0.5q-0.796875 0 -1.5625 0.1875q-0.765625 0.171875 -1.578125 0.484375l0 -1.453125q0.296875 -0.109375 0.671875 -0.21875q0.390625 -0.109375 0.796875 -0.1875q0.421875 -0.078125 0.875 -0.125q0.453125 -0.0625 0.921875 -0.0625q0.84375 0 1.515625 0.1875q0.6875 0.1875 1.15625 0.578125q0.46875 0.375 0.71875 0.953125q0.25 0.5625 0.25 1.34375l0 6.421875l-1.453125 0zm-0.171875 -4.234375l-2.0625 0q-0.59375 0 -1.03125 0.125q-0.4375 0.109375 -0.71875 0.34375q-0.28125 0.21875 -0.421875 0.53125q-0.125 0.296875 -0.125 0.6875q0 0.28125 0.078125 0.53125q0.09375 0.234375 0.28125 0.421875q0.1875 0.1875 0.484375 0.3125q0.296875 0.109375 0.71875 0.109375q0.5625 0 1.28125 -0.34375q0.71875 -0.34375 1.515625 -1.078125l0 -1.640625zm11.929138 4.234375l-1.4375 0l-0.0625 -1.5q-0.421875 0.484375 -0.796875 0.8125q-0.375 0.3125 -0.75 0.515625q-0.359375 0.1875 -0.734375 0.265625q-0.375 0.078125 -0.796875 0.078125q-1.4375 0 -2.171875 -0.84375q-0.734375 -0.84375 -0.734375 -2.5625l0 -6.078125l1.609375 0l0 5.953125q0 2.140625 1.625 2.140625q0.296875 0 0.578125 -0.078125q0.28125 -0.09375 0.59375 -0.3125q0.3125 -0.21875 0.65625 -0.578125q0.359375 -0.375 0.8125 -0.953125l0 -6.171875l1.609375 0l0 9.3125zm5.944824 -11.78125l-2.75 0l0 -1.328125l4.390625 0l0 11.765625l2.765625 0l0 1.34375l-7.46875 0l0 -1.34375l3.0625 0l0 -10.4375zm14.585388 11.65625q-0.546875 0.140625 -1.125 0.1875q-0.578125 0.0625 -1.1875 0.0625q-1.75 0 -2.625 -0.78125q-0.859375 -0.796875 -0.859375 -2.4375l0 -4.859375l-2.609375 0l0 -1.359375l2.609375 0l0 -2.5625l1.625 -0.421875l0 2.984375l4.171875 0l0 1.359375l-4.171875 0l0 4.71875q0 1.0 0.53125 1.5q0.53125 0.5 1.5625 0.5q0.453125 0 0.984375 -0.0625q0.53125 -0.078125 1.09375 -0.21875l0 1.390625zm6.429199 -2.796875q0.3125 0 0.59375 0.125q0.28125 0.109375 0.484375 0.328125q0.21875 0.21875 0.328125 0.5q0.125 0.28125 0.125 0.609375q0 0.3125 -0.125 0.59375q-0.109375 0.28125 -0.328125 0.484375q-0.203125 0.203125 -0.484375 0.328125q-0.28125 0.125 -0.59375 0.125q-0.328125 0 -0.609375 -0.125q-0.28125 -0.125 -0.5 -0.328125q-0.203125 -0.203125 -0.328125 -0.484375q-0.109375 -0.28125 -0.109375 -0.59375q0 -0.328125 0.109375 -0.609375q0.125 -0.28125 0.328125 -0.5q0.21875 -0.21875 0.5 -0.328125q0.28125 -0.125 0.609375 -0.125zm14.085388 2.796875q-0.546875 0.140625 -1.125 0.1875q-0.578125 0.0625 -1.1875 0.0625q-1.75 0 -2.625 -0.78125q-0.859375 -0.796875 -0.859375 -2.4375l0 -4.859375l-2.609375 0l0 -1.359375l2.609375 0l0 -2.5625l1.625 -0.421875l0 2.984375l4.171875 0l0 1.359375l-4.171875 0l0 4.71875q0 1.0 0.53125 1.5q0.53125 0.5 1.5625 0.5q0.453125 0 0.984375 -0.0625q0.53125 -0.078125 1.09375 -0.21875l0 1.390625zm8.741699 0.125l-0.03125 -1.25q-0.765625 0.75 -1.546875 1.09375q-0.78125 0.328125 -1.65625 0.328125q-0.796875 0 -1.359375 -0.203125q-0.5625 -0.203125 -0.9375 -0.5625q-0.359375 -0.359375 -0.53125 -0.84375q-0.171875 -0.484375 -0.171875 -1.046875q0 -1.40625 1.046875 -2.1875q1.046875 -0.796875 3.078125 -0.796875l1.9375 0l0 -0.828125q0 -0.8125 -0.53125 -1.3125q-0.53125 -0.5 -1.609375 -0.5q-0.796875 0 -1.5625 0.1875q-0.765625 0.171875 -1.578125 0.484375l0 -1.453125q0.296875 -0.109375 0.671875 -0.21875q0.390625 -0.109375 0.796875 -0.1875q0.421875 -0.078125 0.875 -0.125q0.453125 -0.0625 0.921875 -0.0625q0.84375 0 1.515625 0.1875q0.6875 0.1875 1.15625 0.578125q0.46875 0.375 0.71875 0.953125q0.25 0.5625 0.25 1.34375l0 6.421875l-1.453125 0zm-0.171875 -4.234375l-2.0625 0q-0.59375 0 -1.03125 0.125q-0.4375 0.109375 -0.71875 0.34375q-0.28125 0.21875 -0.421875 0.53125q-0.125 0.296875 -0.125 0.6875q0 0.28125 0.078125 0.53125q0.09375 0.234375 0.28125 0.421875q0.1875 0.1875 0.484375 0.3125q0.296875 0.109375 0.71875 0.109375q0.5625 0 1.28125 -0.34375q0.71875 -0.34375 1.515625 -1.078125l0 -1.640625zm4.819763 -5.078125l1.484375 0l0.046875 1.71875q0.828125 -1.0 1.625 -1.4375q0.796875 -0.453125 1.625 -0.453125q1.4375 0 2.1875 0.9375q0.75 0.9375 0.6875 2.78125l-1.625 0q0.015625 -1.21875 -0.375 -1.765625q-0.375 -0.5625 -1.109375 -0.5625q-0.328125 0 -0.65625 0.125q-0.328125 0.109375 -0.6875 0.375q-0.34375 0.25 -0.734375 0.65625q-0.390625 0.390625 -0.828125 0.953125l0 5.984375l-1.640625 0l0 -9.3125zm16.58545 1.3125q0.265625 0.328125 0.40625 0.765625q0.140625 0.421875 0.140625 0.921875q0 0.734375 -0.265625 1.328125q-0.265625 0.59375 -0.75 1.03125q-0.46875 0.421875 -1.140625 0.65625q-0.671875 0.234375 -1.484375 0.234375q-0.578125 0 -1.09375 -0.125q-0.515625 -0.125 -0.8125 -0.3125q-0.171875 0.265625 -0.296875 0.5q-0.109375 0.21875 -0.109375 0.515625q0 0.34375 0.328125 0.578125q0.34375 0.234375 0.90625 0.25l2.4375 0.09375q0.703125 0.015625 1.28125 0.1875q0.59375 0.15625 1.015625 0.453125q0.421875 0.296875 0.65625 0.734375q0.25 0.421875 0.25 1.0q0 0.625 -0.28125 1.171875q-0.265625 0.5625 -0.828125 0.984375q-0.5625 0.421875 -1.421875 0.671875q-0.859375 0.25 -2.046875 0.25q-1.140625 0 -1.9375 -0.1875q-0.78125 -0.171875 -1.296875 -0.5q-0.5 -0.3125 -0.734375 -0.75q-0.234375 -0.4375 -0.234375 -0.96875q0 -0.671875 0.3125 -1.1875q0.3125 -0.515625 0.96875 -0.984375q-0.234375 -0.109375 -0.421875 -0.265625q-0.171875 -0.171875 -0.28125 -0.375q-0.109375 -0.203125 -0.171875 -0.421875q-0.046875 -0.21875 -0.046875 -0.4375q0 -0.609375 0.28125 -1.109375q0.28125 -0.5 0.671875 -0.9375q-0.171875 -0.21875 -0.3125 -0.421875q-0.125 -0.203125 -0.234375 -0.4375q-0.09375 -0.234375 -0.140625 -0.5q-0.046875 -0.28125 -0.046875 -0.640625q0 -0.71875 0.25 -1.3125q0.265625 -0.609375 0.75 -1.03125q0.484375 -0.4375 1.15625 -0.671875q0.671875 -0.234375 1.484375 -0.234375q0.34375 0 0.65625 0.046875q0.3125 0.046875 0.5625 0.125l3.375 0l0 1.3125l-1.5 0zm-5.59375 9.34375q0 0.65625 0.6875 0.953125q0.6875 0.3125 1.90625 0.3125q0.765625 0 1.28125 -0.140625q0.53125 -0.140625 0.84375 -0.375q0.328125 -0.21875 0.46875 -0.515625q0.140625 -0.28125 0.140625 -0.59375q0 -0.5625 -0.46875 -0.84375q-0.453125 -0.265625 -1.40625 -0.3125l-2.4375 -0.078125q-0.3125 0.203125 -0.515625 0.390625q-0.1875 0.203125 -0.296875 0.40625q-0.109375 0.203125 -0.15625 0.390625q-0.046875 0.203125 -0.046875 0.40625zm0.484375 -7.609375q0 0.4375 0.140625 0.8125q0.15625 0.375 0.421875 0.640625q0.28125 0.25 0.640625 0.390625q0.359375 0.140625 0.8125 0.140625q0.484375 0 0.859375 -0.15625q0.375 -0.171875 0.625 -0.4375q0.265625 -0.28125 0.390625 -0.640625q0.140625 -0.359375 0.140625 -0.75q0 -0.453125 -0.15625 -0.8125q-0.140625 -0.375 -0.421875 -0.640625q-0.265625 -0.265625 -0.640625 -0.40625q-0.359375 -0.140625 -0.796875 -0.140625q-0.484375 0 -0.859375 0.171875q-0.375 0.15625 -0.640625 0.4375q-0.25 0.265625 -0.390625 0.640625q-0.125 0.359375 -0.125 0.75zm16.538513 1.109375q0 0.34375 -0.015625 0.578125q-0.015625 0.234375 -0.03125 0.4375l-6.53125 0q0 1.4375 0.796875 2.203125q0.796875 0.765625 2.296875 0.765625q0.40625 0 0.8125 -0.03125q0.40625 -0.046875 0.78125 -0.09375q0.390625 -0.0625 0.734375 -0.125q0.34375 -0.078125 0.640625 -0.15625l0 1.328125q-0.65625 0.1875 -1.484375 0.296875q-0.828125 0.125 -1.71875 0.125q-1.203125 0 -2.0625 -0.328125q-0.859375 -0.328125 -1.421875 -0.9375q-0.546875 -0.625 -0.8125 -1.515625q-0.265625 -0.890625 -0.265625 -2.03125q0 -0.984375 0.28125 -1.859375q0.296875 -0.875 0.828125 -1.53125q0.546875 -0.671875 1.328125 -1.0625q0.796875 -0.390625 1.796875 -0.390625q0.984375 0 1.734375 0.3125q0.75 0.296875 1.265625 0.859375q0.515625 0.5625 0.78125 1.375q0.265625 0.796875 0.265625 1.78125zm-1.6875 -0.21875q0.03125 -0.625 -0.125 -1.140625q-0.140625 -0.515625 -0.453125 -0.890625q-0.3125 -0.375 -0.78125 -0.578125q-0.453125 -0.203125 -1.078125 -0.203125q-0.515625 0 -0.953125 0.203125q-0.4375 0.203125 -0.765625 0.578125q-0.3125 0.359375 -0.5 0.890625q-0.1875 0.515625 -0.234375 1.140625l4.890625 0zm11.569824 5.25q-0.546875 0.140625 -1.125 0.1875q-0.578125 0.0625 -1.1875 0.0625q-1.75 0 -2.625 -0.78125q-0.859375 -0.796875 -0.859375 -2.4375l0 -4.859375l-2.609375 0l0 -1.359375l2.609375 0l0 -2.5625l1.625 -0.421875l0 2.984375l4.171875 0l0 1.359375l-4.171875 0l0 4.71875q0 1.0 0.53125 1.5q0.53125 0.5 1.5625 0.5q0.453125 0 0.984375 -0.0625q0.53125 -0.078125 1.09375 -0.21875l0 1.390625zm4.663513 -13.6875q4.265625 3.953125 4.265625 8.8125q0 1.0 -0.203125 2.078125q-0.203125 1.078125 -0.703125 2.203125q-0.484375 1.125 -1.3125 2.28125q-0.828125 1.171875 -2.09375 2.328125l-0.9375 -0.953125q1.8125 -1.78125 2.703125 -3.734375q0.890625 -1.953125 0.890625 -4.078125q0 -4.421875 -3.59375 -7.953125l0.984375 -0.984375z" fill-rule="nonzero"></path><path fill="#000000" fill-opacity="0.0" d="m598.5617 283.8924l364.28345 0l0 42.48819l-364.28345 0z" fill-rule="evenodd"></path><path fill="#93c47d" d="m616.4211 308.2655q0 0.5 -0.171875 0.890625q-0.15625 0.390625 -0.453125 0.6875q-0.28125 0.296875 -0.671875 0.515625q-0.375 0.21875 -0.8125 0.359375q-0.421875 0.125 -0.875 0.1875q-0.453125 0.078125 -0.890625 0.078125q-0.953125 0 -1.75 -0.09375q-0.78125 -0.078125 -1.546875 -0.265625l0 -1.484375q0.8125 0.234375 1.625 0.359375q0.8125 0.109375 1.609375 0.109375q1.15625 0 1.703125 -0.3125q0.5625 -0.3125 0.5625 -0.890625q0 -0.25 -0.09375 -0.453125q-0.078125 -0.203125 -0.3125 -0.375q-0.234375 -0.1875 -0.71875 -0.375q-0.484375 -0.203125 -1.328125 -0.453125q-0.640625 -0.1875 -1.171875 -0.421875q-0.53125 -0.234375 -0.921875 -0.5625q-0.390625 -0.328125 -0.609375 -0.765625q-0.21875 -0.4375 -0.21875 -1.03125q0 -0.390625 0.171875 -0.84375q0.1875 -0.46875 0.625 -0.859375q0.4375 -0.40625 1.171875 -0.671875q0.75 -0.265625 1.859375 -0.265625q0.546875 0 1.21875 0.0625q0.671875 0.0625 1.390625 0.203125l0 1.4375q-0.765625 -0.171875 -1.453125 -0.265625q-0.671875 -0.09375 -1.171875 -0.09375q-0.609375 0 -1.03125 0.09375q-0.40625 0.09375 -0.65625 0.265625q-0.25 0.15625 -0.375 0.375q-0.109375 0.21875 -0.109375 0.46875q0 0.25 0.09375 0.453125q0.109375 0.203125 0.375 0.390625q0.265625 0.1875 0.734375 0.390625q0.46875 0.1875 1.234375 0.40625q0.828125 0.234375 1.390625 0.5q0.5625 0.265625 0.90625 0.59375q0.359375 0.328125 0.515625 0.734375q0.15625 0.40625 0.15625 0.921875zm2.4135132 -1.921875q0 -1.1875 0.3125 -2.109375q0.328125 -0.921875 0.921875 -1.546875q0.609375 -0.640625 1.4375 -0.96875q0.84375 -0.328125 1.875 -0.328125q0.453125 0 0.875 0.0625q0.4375 0.046875 0.859375 0.171875l0 -3.921875l1.625 0l0 13.109375l-1.453125 0l-0.0625 -1.765625q-0.671875 0.984375 -1.46875 1.46875q-0.78125 0.46875 -1.703125 0.46875q-0.796875 0 -1.40625 -0.328125q-0.59375 -0.34375 -1.0 -0.953125q-0.40625 -0.609375 -0.609375 -1.453125q-0.203125 -0.859375 -0.203125 -1.90625zm1.640625 -0.09375q0 1.6875 0.5 2.515625q0.5 0.828125 1.40625 0.828125q0.609375 0 1.296875 -0.546875q0.6875 -0.546875 1.4375 -1.625l0 -4.3125q-0.40625 -0.1875 -0.890625 -0.28125q-0.484375 -0.109375 -0.953125 -0.109375q-1.3125 0 -2.0625 0.859375q-0.734375 0.84375 -0.734375 2.671875zm18.0542 8.359375l-10.453125 0l0 -1.328125l10.453125 0l0 1.328125zm1.2885132 -13.109375l1.4375 0l0.0625 1.5q0.40625 -0.484375 0.78125 -0.796875q0.390625 -0.328125 0.75 -0.515625q0.375 -0.203125 0.75 -0.28125q0.390625 -0.078125 0.796875 -0.078125q1.4375 0 2.171875 0.859375q0.734375 0.84375 0.734375 2.546875l0 6.078125l-1.609375 0l0 -5.953125q0 -1.09375 -0.40625 -1.609375q-0.40625 -0.53125 -1.21875 -0.53125q-0.296875 0 -0.578125 0.09375q-0.28125 0.09375 -0.59375 0.3125q-0.296875 0.203125 -0.65625 0.578125q-0.359375 0.375 -0.8125 0.9375l0 6.171875l-1.609375 0l0 -9.3125zm18.3667 4.578125q0 1.09375 -0.3125 2.0q-0.296875 0.890625 -0.875 1.546875q-0.578125 0.640625 -1.40625 1.0q-0.828125 0.359375 -1.875 0.359375q-1.0 0 -1.796875 -0.3125q-0.78125 -0.3125 -1.34375 -0.90625q-0.546875 -0.609375 -0.84375 -1.5q-0.28125 -0.890625 -0.28125 -2.0625q0 -1.078125 0.296875 -1.96875q0.3125 -0.90625 0.875 -1.546875q0.578125 -0.640625 1.40625 -1.0q0.828125 -0.359375 1.875 -0.359375q1.0 0 1.796875 0.3125q0.796875 0.3125 1.34375 0.921875q0.5625 0.59375 0.84375 1.484375q0.296875 0.890625 0.296875 2.03125zm-1.65625 0.078125q0 -0.859375 -0.1875 -1.5q-0.1875 -0.65625 -0.546875 -1.078125q-0.34375 -0.4375 -0.859375 -0.65625q-0.5 -0.21875 -1.125 -0.21875q-0.71875 0 -1.234375 0.28125q-0.515625 0.28125 -0.84375 0.765625q-0.328125 0.46875 -0.484375 1.09375q-0.15625 0.625 -0.15625 1.3125q0 0.859375 0.1875 1.515625q0.203125 0.640625 0.546875 1.078125q0.359375 0.421875 0.859375 0.640625q0.5 0.21875 1.125 0.21875q0.734375 0 1.25 -0.28125q0.515625 -0.28125 0.84375 -0.75q0.328125 -0.46875 0.46875 -1.09375q0.15625 -0.640625 0.15625 -1.328125zm11.304138 4.53125q-0.546875 0.140625 -1.125 0.1875q-0.578125 0.0625 -1.1875 0.0625q-1.75 0 -2.625 -0.78125q-0.859375 -0.796875 -0.859375 -2.4375l0 -4.859375l-2.609375 0l0 -1.359375l2.609375 0l0 -2.5625l1.625 -0.421875l0 2.984375l4.171875 0l0 1.359375l-4.171875 0l0 4.71875q0 1.0 0.53125 1.5q0.53125 0.5 1.5625 0.5q0.453125 0 0.984375 -0.0625q0.53125 -0.078125 1.09375 -0.21875l0 1.390625zm5.929199 -7.859375l-2.75 0l0 -1.328125l4.390625 0l0 7.96875l2.765625 0l0 1.34375l-7.46875 0l0 -1.34375l3.0625 0l0 -6.640625zm0.5625 -5.234375q0.28125 0 0.5 0.09375q0.234375 0.09375 0.40625 0.28125q0.171875 0.171875 0.265625 0.40625q0.109375 0.21875 0.109375 0.484375q0 0.265625 -0.109375 0.5q-0.09375 0.234375 -0.265625 0.40625q-0.171875 0.171875 -0.40625 0.28125q-0.21875 0.09375 -0.5 0.09375q-0.265625 0 -0.5 -0.09375q-0.234375 -0.109375 -0.40625 -0.28125q-0.171875 -0.171875 -0.265625 -0.40625q-0.09375 -0.234375 -0.09375 -0.5q0 -0.265625 0.09375 -0.484375q0.09375 -0.234375 0.265625 -0.40625q0.171875 -0.1875 0.40625 -0.28125q0.234375 -0.09375 0.5 -0.09375zm14.788513 1.609375q-1.265625 -0.265625 -2.1875 -0.265625q-2.1875 0 -2.1875 2.28125l0 1.640625l4.09375 0l0 1.34375l-4.09375 0l0 6.609375l-1.640625 0l0 -6.609375l-2.984375 0l0 -1.34375l2.984375 0l0 -1.546875q0 -3.71875 3.875 -3.71875q0.96875 0 2.140625 0.21875l0 1.390625zm-9.75 2.296875l0 0zm20.02295 0l-3.171875 8.328125q-0.484375 1.265625 -1.015625 2.1875q-0.515625 0.921875 -1.140625 1.5q-0.625 0.59375 -1.375 0.875q-0.734375 0.28125 -1.65625 0.28125q-0.234375 0 -0.4375 -0.015625q-0.1875 0 -0.421875 -0.015625l0 -1.46875q0.203125 0.03125 0.4375 0.046875q0.25 0.03125 0.515625 0.03125q0.453125 0 0.828125 -0.140625q0.390625 -0.125 0.734375 -0.421875q0.34375 -0.28125 0.65625 -0.75q0.3125 -0.46875 0.609375 -1.125l-3.71875 -9.3125l1.84375 0l2.359375 6.15625l0.46875 1.453125l0.53125 -1.484375l2.1875 -6.125l1.765625 0z" fill-rule="nonzero"></path></g></svg>

